<svg xmlns="http://www.w3.org/2000/svg" xmlns:xlink="http://www.w3.org/1999/xlink" contentStyleType="text/css" data-diagram-type="SEQUENCE" height="1593px" preserveAspectRatio="none" style="width:1675px;height:1593px;background:#FFFFFF;" version="1.1" viewBox="0 0 1675 1593" width="1675px" zoomAndPan="magnify"><title>LLD - Orquestador de Pagos (Node.js / ultimate-express)</title><defs/><g><text fill="#000000" font-family="sans-serif" font-size="14" font-weight="bold" lengthAdjust="spacing" textLength="376.5166" x="645.4053" y="29.6563">LLD - Orquestador de Pagos (Node.js / ultimate-express)</text><rect fill="#EAF2FB" height="1542.3906" style="stroke:#1168BD;stroke-width:0.5;" width="584.8247" x="699.5259" y="44.625"/><text fill="#003865" font-family="sans-serif" font-size="13" font-weight="bold" lengthAdjust="spacing" textLength="139.4199" x="922.2283" y="58.2344">Orquestador de Pagos</text><g><title>Router de</title><rect fill="#D6E4F0" height="926.1406" style="stroke:#1168BD;stroke-width:1;" width="10" x="393.5601" y="197.9531"/></g><g><title>Servicio de</title><rect fill="#D6E4F0" height="895.7813" style="stroke:#1168BD;stroke-width:1;" width="10" x="740.1533" y="228.3125"/></g><g><title>Servicio de</title><rect fill="#D6E4F0" height="212.5156" style="stroke:#1168BD;stroke-width:1;" width="10" x="740.1533" y="1216.1719"/></g><g><title>Repositorios</title><rect fill="#D6E4F0" height="91.0781" style="stroke:#1168BD;stroke-width:1;" width="10" x="1054.5894" y="258.6719"/></g><g><title>Repositorios</title><rect fill="#D6E4F0" height="60.7188" style="stroke:#1168BD;stroke-width:1;" width="10" x="1054.5894" y="482.0469"/></g><g><title>Repositorios</title><rect fill="#D6E4F0" height="30.3594" style="stroke:#1168BD;stroke-width:1;" width="10" x="1054.5894" y="752.2813"/></g><g><title>Repositorios</title><rect fill="#D6E4F0" height="30.3594" style="stroke:#1168BD;stroke-width:1;" width="10" x="1054.5894" y="950.2969"/></g><g><title>Repositorios</title><rect fill="#D6E4F0" height="30.3594" style="stroke:#1168BD;stroke-width:1;" width="10" x="1054.5894" y="1337.6094"/></g><g><title>Conector</title><rect fill="#D6E4F0" height="123.4375" style="stroke:#1168BD;stroke-width:1;" width="10" x="1145.8994" y="573.125"/></g><g><title>Conector</title><rect fill="#D6E4F0" height="60.7188" style="stroke:#1168BD;stroke-width:1;" width="10" x="1145.8994" y="1246.5313"/></g><rect fill="none" height="752.3438" style="stroke:#000000;stroke-width:1.5;" width="1648.3271" x="10" y="364.75"/><rect fill="none" height="79.0781" style="stroke:#000000;stroke-width:1.5;" width="420.7695" x="1105.4961" y="588.125"/><rect fill="none" height="398.5313" style="stroke:#000000;stroke-width:1.5;" width="1628.3271" x="20" y="711.5625"/><rect fill="none" height="261.2344" style="stroke:#000000;stroke-width:1.5;" width="954.8013" x="693.5259" y="1175.4531"/><g><title>Viajero</title><rect fill="#000000" fill-opacity="0.00000" height="1385.1719" width="8" x="50.7896" y="121.2344"/><line style="stroke:#1168BD;stroke-width:0.5;stroke-dasharray:5,5;" x1="54" x2="54" y1="121.2344" y2="1506.4063"/></g><g><title>Router de</title><rect fill="#000000" fill-opacity="0.00000" height="1385.1719" width="8" x="394.5601" y="121.2344"/><line style="stroke:#1168BD;stroke-width:0.5;stroke-dasharray:5,5;" x1="397.8188" x2="397.8188" y1="121.2344" y2="1506.4063"/></g><g><title>Servicio de</title><rect fill="#000000" fill-opacity="0.00000" height="1385.1719" width="8" x="741.1533" y="121.2344"/><line style="stroke:#1168BD;stroke-width:0.5;stroke-dasharray:5,5;" x1="744.5259" x2="744.5259" y1="121.2344" y2="1506.4063"/></g><g><title>Repositorios</title><rect fill="#000000" fill-opacity="0.00000" height="1385.1719" width="8" x="1055.5894" y="121.2344"/><line style="stroke:#1168BD;stroke-width:0.5;stroke-dasharray:5,5;" x1="1058.6826" x2="1058.6826" y1="121.2344" y2="1506.4063"/></g><g><title>Conector</title><rect fill="#000000" fill-opacity="0.00000" height="1385.1719" width="8" x="1146.8994" y="121.2344"/><line style="stroke:#1168BD;stroke-width:0.5;stroke-dasharray:5,5;" x1="1150.4961" x2="1150.4961" y1="121.2344" y2="1506.4063"/></g><g><title>Publicador</title><rect fill="#000000" fill-opacity="0.00000" height="1385.1719" width="8" x="1234.3267" y="121.2344"/><line style="stroke:#1168BD;stroke-width:0.5;stroke-dasharray:5,5;" x1="1238.3027" x2="1238.3027" y1="121.2344" y2="1506.4063"/></g><g><title>PostgreSQL</title><rect fill="#000000" fill-opacity="0.00000" height="1385.1719" width="8" x="1387.9766" y="121.2344"/><line style="stroke:#1168BD;stroke-width:0.5;stroke-dasharray:5,5;" x1="1391.8457" x2="1391.8457" y1="121.2344" y2="1506.4063"/></g><g><title>Pasarela</title><rect fill="#000000" fill-opacity="0.00000" height="1385.1719" width="8" x="1475.6865" y="121.2344"/><line style="stroke:#1168BD;stroke-width:0.5;stroke-dasharray:5,5;" x1="1479.1074" x2="1479.1074" y1="121.2344" y2="1506.4063"/></g><g><title>Bus de Eventos</title><rect fill="#000000" fill-opacity="0.00000" height="1385.1719" width="8" x="1578.2964" y="121.2344"/><line style="stroke:#1168BD;stroke-width:0.5;stroke-dasharray:5,5;" x1="1582.2656" x2="1582.2656" y1="121.2344" y2="1506.4063"/></g><g class="participant participant-head" data-participant="user"><text fill="#000000" font-family="sans-serif" font-size="14" lengthAdjust="spacing" textLength="43.5791" x="30" y="118.1563">Viajero</text><ellipse cx="54.7896" cy="52.125" fill="#003865" rx="8" ry="8" style="stroke:#003865;stroke-width:0.5;"/><path d="M54.7896,60.125 L54.7896,87.125 M41.7896,68.125 L67.7896,68.125 M54.7896,87.125 L41.7896,102.125 M54.7896,87.125 L67.7896,102.125" fill="none" style="stroke:#003865;stroke-width:0.5;"/></g><g class="participant participant-tail" data-participant="user"><text fill="#000000" font-family="sans-serif" font-size="14" lengthAdjust="spacing" textLength="43.5791" x="30" y="1519.9375">Viajero</text><ellipse cx="54.7896" cy="1531.5156" fill="#003865" rx="8" ry="8" style="stroke:#003865;stroke-width:0.5;"/><path d="M54.7896,1539.5156 L54.7896,1566.5156 M41.7896,1547.5156 L67.7896,1547.5156 M54.7896,1566.5156 L41.7896,1581.5156 M54.7896,1566.5156 L67.7896,1581.5156" fill="none" style="stroke:#003865;stroke-width:0.5;"/></g><g class="participant participant-head" data-participant="router"><rect fill="#003865" height="49.2188" rx="2.5" ry="2.5" style="stroke:#003865;stroke-width:0.5;" width="75.4824" x="360.8188" y="71.0156"/><text fill="#FFFFFF" font-family="sans-serif" font-size="14" lengthAdjust="spacing" textLength="61.4824" x="367.8188" y="92.5469">Router de</text><text fill="#FFFFFF" font-family="sans-serif" font-size="14" lengthAdjust="spacing" textLength="39.6963" x="378.7119" y="110.1563">Pagos</text></g><g class="participant participant-tail" data-participant="router"><rect fill="#003865" height="49.2188" rx="2.5" ry="2.5" style="stroke:#003865;stroke-width:0.5;" width="75.4824" x="360.8188" y="1505.4063"/><text fill="#FFFFFF" font-family="sans-serif" font-size="14" lengthAdjust="spacing" textLength="61.4824" x="367.8188" y="1526.9375">Router de</text><text fill="#FFFFFF" font-family="sans-serif" font-size="14" lengthAdjust="spacing" textLength="39.6963" x="378.7119" y="1544.5469">Pagos</text></g><g class="participant participant-head" data-participant="svc"><rect fill="#003865" height="49.2188" rx="2.5" ry="2.5" style="stroke:#003865;stroke-width:0.5;" width="83.2549" x="703.5259" y="71.0156"/><text fill="#FFFFFF" font-family="sans-serif" font-size="14" lengthAdjust="spacing" textLength="69.2549" x="710.5259" y="92.5469">Servicio de</text><text fill="#FFFFFF" font-family="sans-serif" font-size="14" lengthAdjust="spacing" textLength="39.6963" x="725.3052" y="110.1563">Pagos</text></g><g class="participant participant-tail" data-participant="svc"><rect fill="#003865" height="49.2188" rx="2.5" ry="2.5" style="stroke:#003865;stroke-width:0.5;" width="83.2549" x="703.5259" y="1505.4063"/><text fill="#FFFFFF" font-family="sans-serif" font-size="14" lengthAdjust="spacing" textLength="69.2549" x="710.5259" y="1526.9375">Servicio de</text><text fill="#FFFFFF" font-family="sans-serif" font-size="14" lengthAdjust="spacing" textLength="39.6963" x="725.3052" y="1544.5469">Pagos</text></g><g class="participant participant-head" data-participant="repo"><rect fill="#003865" height="49.2188" rx="2.5" ry="2.5" style="stroke:#003865;stroke-width:0.5;" width="91.8135" x="1013.6826" y="71.0156"/><text fill="#FFFFFF" font-family="sans-serif" font-size="14" lengthAdjust="spacing" textLength="77.8135" x="1020.6826" y="92.5469">Repositorios</text><text fill="#FFFFFF" font-family="sans-serif" font-size="14" lengthAdjust="spacing" textLength="24.8965" x="1047.1411" y="110.1563">(pg)</text></g><g class="participant participant-tail" data-participant="repo"><rect fill="#003865" height="49.2188" rx="2.5" ry="2.5" style="stroke:#003865;stroke-width:0.5;" width="91.8135" x="1013.6826" y="1505.4063"/><text fill="#FFFFFF" font-family="sans-serif" font-size="14" lengthAdjust="spacing" textLength="77.8135" x="1020.6826" y="1526.9375">Repositorios</text><text fill="#FFFFFF" font-family="sans-serif" font-size="14" lengthAdjust="spacing" textLength="24.8965" x="1047.1411" y="1544.5469">(pg)</text></g><g class="participant participant-head" data-participant="conn"><rect fill="#003865" height="49.2188" rx="2.5" ry="2.5" style="stroke:#003865;stroke-width:0.5;" width="70.8066" x="1115.4961" y="71.0156"/><text fill="#FFFFFF" font-family="sans-serif" font-size="14" lengthAdjust="spacing" textLength="56.8066" x="1122.4961" y="92.5469">Conector</text><text fill="#FFFFFF" font-family="sans-serif" font-size="14" lengthAdjust="spacing" textLength="39.6963" x="1131.0513" y="110.1563">Pagos</text></g><g class="participant participant-tail" data-participant="conn"><rect fill="#003865" height="49.2188" rx="2.5" ry="2.5" style="stroke:#003865;stroke-width:0.5;" width="70.8066" x="1115.4961" y="1505.4063"/><text fill="#FFFFFF" font-family="sans-serif" font-size="14" lengthAdjust="spacing" textLength="56.8066" x="1122.4961" y="1526.9375">Conector</text><text fill="#FFFFFF" font-family="sans-serif" font-size="14" lengthAdjust="spacing" textLength="39.6963" x="1131.0513" y="1544.5469">Pagos</text></g><g class="participant participant-head" data-participant="pub"><rect fill="#003865" height="49.2188" rx="2.5" ry="2.5" style="stroke:#003865;stroke-width:0.5;" width="84.0479" x="1196.3027" y="71.0156"/><text fill="#FFFFFF" font-family="sans-serif" font-size="14" lengthAdjust="spacing" textLength="66.1514" x="1205.251" y="92.5469">Publicador</text><text fill="#FFFFFF" font-family="sans-serif" font-size="14" lengthAdjust="spacing" textLength="70.0479" x="1203.3027" y="110.1563">de Eventos</text></g><g class="participant participant-tail" data-participant="pub"><rect fill="#003865" height="49.2188" rx="2.5" ry="2.5" style="stroke:#003865;stroke-width:0.5;" width="84.0479" x="1196.3027" y="1505.4063"/><text fill="#FFFFFF" font-family="sans-serif" font-size="14" lengthAdjust="spacing" textLength="66.1514" x="1205.251" y="1526.9375">Publicador</text><text fill="#FFFFFF" font-family="sans-serif" font-size="14" lengthAdjust="spacing" textLength="70.0479" x="1203.3027" y="1544.5469">de Eventos</text></g><g class="participant participant-head" data-participant="db"><text fill="#000000" font-family="sans-serif" font-size="14" lengthAdjust="spacing" textLength="76.2617" x="1350.8457" y="118.1563">PostgreSQL</text><path d="M1373.9766,67.625 C1373.9766,57.625 1391.9766,57.625 1391.9766,57.625 C1391.9766,57.625 1409.9766,57.625 1409.9766,67.625 L1409.9766,93.625 C1409.9766,103.625 1391.9766,103.625 1391.9766,103.625 C1391.9766,103.625 1373.9766,103.625 1373.9766,93.625 L1373.9766,67.625" fill="#E2E2F0" style="stroke:#181818;stroke-width:0.5;"/><path d="M1373.9766,67.625 C1373.9766,77.625 1391.9766,77.625 1391.9766,77.625 C1391.9766,77.625 1409.9766,77.625 1409.9766,67.625" fill="none" style="stroke:#181818;stroke-width:0.5;"/></g><g class="participant participant-tail" data-participant="db"><text fill="#000000" font-family="sans-serif" font-size="14" lengthAdjust="spacing" textLength="76.2617" x="1350.8457" y="1519.9375">PostgreSQL</text><path d="M1373.9766,1533.0156 C1373.9766,1523.0156 1391.9766,1523.0156 1391.9766,1523.0156 C1391.9766,1523.0156 1409.9766,1523.0156 1409.9766,1533.0156 L1409.9766,1559.0156 C1409.9766,1569.0156 1391.9766,1569.0156 1391.9766,1569.0156 C1391.9766,1569.0156 1373.9766,1569.0156 1373.9766,1559.0156 L1373.9766,1533.0156" fill="#E2E2F0" style="stroke:#181818;stroke-width:0.5;"/><path d="M1373.9766,1533.0156 C1373.9766,1543.0156 1391.9766,1543.0156 1391.9766,1543.0156 C1391.9766,1543.0156 1409.9766,1543.0156 1409.9766,1533.0156" fill="none" style="stroke:#181818;stroke-width:0.5;"/></g><g class="participant participant-head" data-participant="gw"><rect fill="#003865" height="49.2188" rx="2.5" ry="2.5" style="stroke:#003865;stroke-width:0.5;" width="73.1582" x="1443.1074" y="71.0156"/><text fill="#FFFFFF" font-family="sans-serif" font-size="14" lengthAdjust="spacing" textLength="55.2549" x="1452.0591" y="92.5469">Pasarela</text><text fill="#FFFFFF" font-family="sans-serif" font-size="14" lengthAdjust="spacing" textLength="59.1582" x="1450.1074" y="110.1563">de Pagos</text></g><g class="participant participant-tail" data-participant="gw"><rect fill="#003865" height="49.2188" rx="2.5" ry="2.5" style="stroke:#003865;stroke-width:0.5;" width="73.1582" x="1443.1074" y="1505.4063"/><text fill="#FFFFFF" font-family="sans-serif" font-size="14" lengthAdjust="spacing" textLength="55.2549" x="1452.0591" y="1526.9375">Pasarela</text><text fill="#FFFFFF" font-family="sans-serif" font-size="14" lengthAdjust="spacing" textLength="59.1582" x="1450.1074" y="1544.5469">de Pagos</text></g><g class="participant participant-head" data-participant="bus"><rect fill="#003865" height="31.6094" rx="2.5" ry="2.5" style="stroke:#003865;stroke-width:0.5;" width="112.0615" x="1526.2656" y="88.625"/><text fill="#FFFFFF" font-family="sans-serif" font-size="14" lengthAdjust="spacing" textLength="98.0615" x="1533.2656" y="110.1563">Bus de Eventos</text></g><g class="participant participant-tail" data-participant="bus"><rect fill="#003865" height="31.6094" rx="2.5" ry="2.5" style="stroke:#003865;stroke-width:0.5;" width="112.0615" x="1526.2656" y="1505.4063"/><text fill="#FFFFFF" font-family="sans-serif" font-size="14" lengthAdjust="spacing" textLength="98.0615" x="1533.2656" y="1526.9375">Bus de Eventos</text></g><g><title>Router de</title><rect fill="#D6E4F0" height="926.1406" style="stroke:#1168BD;stroke-width:1;" width="10" x="393.5601" y="197.9531"/></g><g><title>Servicio de</title><rect fill="#D6E4F0" height="895.7813" style="stroke:#1168BD;stroke-width:1;" width="10" x="740.1533" y="228.3125"/></g><g><title>Servicio de</title><rect fill="#D6E4F0" height="212.5156" style="stroke:#1168BD;stroke-width:1;" width="10" x="740.1533" y="1216.1719"/></g><g><title>Repositorios</title><rect fill="#D6E4F0" height="91.0781" style="stroke:#1168BD;stroke-width:1;" width="10" x="1054.5894" y="258.6719"/></g><g><title>Repositorios</title><rect fill="#D6E4F0" height="60.7188" style="stroke:#1168BD;stroke-width:1;" width="10" x="1054.5894" y="482.0469"/></g><g><title>Repositorios</title><rect fill="#D6E4F0" height="30.3594" style="stroke:#1168BD;stroke-width:1;" width="10" x="1054.5894" y="752.2813"/></g><g><title>Repositorios</title><rect fill="#D6E4F0" height="30.3594" style="stroke:#1168BD;stroke-width:1;" width="10" x="1054.5894" y="950.2969"/></g><g><title>Repositorios</title><rect fill="#D6E4F0" height="30.3594" style="stroke:#1168BD;stroke-width:1;" width="10" x="1054.5894" y="1337.6094"/></g><g><title>Conector</title><rect fill="#D6E4F0" height="123.4375" style="stroke:#1168BD;stroke-width:1;" width="10" x="1145.8994" y="573.125"/></g><g><title>Conector</title><rect fill="#D6E4F0" height="60.7188" style="stroke:#1168BD;stroke-width:1;" width="10" x="1145.8994" y="1246.5313"/></g><rect fill="#EEEEEE" height="3" style="stroke:#EEEEEE;stroke-width:1;" width="1668.3271" x="0" y="152.4141"/><line style="stroke:#000000;stroke-width:1;" x1="0" x2="1668.3271" y1="152.4141" y2="152.4141"/><line style="stroke:#000000;stroke-width:1;" x1="0" x2="1668.3271" y1="155.4141" y2="155.4141"/><rect fill="#EEEEEE" height="24.3594" style="stroke:#000000;stroke-width:2;" width="72.4937" x="797.9167" y="141.2344"/><text fill="#000000" font-family="sans-serif" font-size="13" font-weight="bold" lengthAdjust="spacing" textLength="54.8818" x="803.9167" y="158.8438">A. Cobro</text><g class="message" data-participant-1="user" data-participant-2="router"><polygon fill="#1168BD" points="381.5601,193.9531,391.5601,197.9531,381.5601,201.9531,385.5601,197.9531" style="stroke:#1168BD;stroke-width:1;"/><line style="stroke:#1168BD;stroke-width:1;" x1="54.7896" x2="387.5601" y1="197.9531" y2="197.9531"/><text fill="#333333" font-family="sans-serif" font-size="13" font-weight="bold" lengthAdjust="spacing" textLength="23.1182" x="61.7896" y="193.2031">[01]</text><text fill="#333333" font-family="sans-serif" font-size="13" lengthAdjust="spacing" textLength="292.6523" x="88.9077" y="193.0938">POST /bookings/{id}/pay (medio, idempotencyKey)</text></g><g class="message" data-participant-1="router" data-participant-2="svc"><polygon fill="#1168BD" points="728.1533,224.3125,738.1533,228.3125,728.1533,232.3125,732.1533,228.3125" style="stroke:#1168BD;stroke-width:1;"/><line style="stroke:#1168BD;stroke-width:1;" x1="403.5601" x2="734.1533" y1="228.3125" y2="228.3125"/><text fill="#333333" font-family="sans-serif" font-size="13" font-weight="bold" lengthAdjust="spacing" textLength="23.1182" x="410.5601" y="223.5625">[02]</text><text fill="#333333" font-family="sans-serif" font-size="13" lengthAdjust="spacing" textLength="290.4751" x="437.6782" y="223.4531">procesarPago(reservaId, monto, idempotencyKey)</text></g><g class="message" data-participant-1="svc" data-participant-2="repo"><polygon fill="#1168BD" points="1042.5894,254.6719,1052.5894,258.6719,1042.5894,262.6719,1046.5894,258.6719" style="stroke:#1168BD;stroke-width:1;"/><line style="stroke:#1168BD;stroke-width:1;" x1="750.1533" x2="1048.5894" y1="258.6719" y2="258.6719"/><text fill="#333333" font-family="sans-serif" font-size="13" font-weight="bold" lengthAdjust="spacing" textLength="23.1182" x="757.1533" y="253.9219">[03]</text><text fill="#333333" font-family="sans-serif" font-size="13" lengthAdjust="spacing" textLength="174.1479" x="784.2715" y="253.8125">buscarPago(idempotencyKey)</text></g><g class="message" data-participant-1="repo" data-participant-2="db"><polygon fill="#1168BD" points="1379.9766,285.0313,1389.9766,289.0313,1379.9766,293.0313,1383.9766,289.0313" style="stroke:#1168BD;stroke-width:1;"/><line style="stroke:#1168BD;stroke-width:1;" x1="1064.5894" x2="1385.9766" y1="289.0313" y2="289.0313"/><text fill="#333333" font-family="sans-serif" font-size="13" font-weight="bold" lengthAdjust="spacing" textLength="23.1182" x="1071.5894" y="284.2813">[04]</text><text fill="#333333" font-family="sans-serif" font-size="13" lengthAdjust="spacing" textLength="266.2271" x="1098.7075" y="284.1719">SELECT * FROM pagos WHERE idem_key=?</text></g><g class="message" data-participant-1="db" data-participant-2="repo"><polygon fill="#1168BD" points="1075.5894,315.3906,1065.5894,319.3906,1075.5894,323.3906,1071.5894,319.3906" style="stroke:#1168BD;stroke-width:1;"/><line style="stroke:#1168BD;stroke-width:1;stroke-dasharray:2,2;" x1="1069.5894" x2="1390.9766" y1="319.3906" y2="319.3906"/><text fill="#333333" font-family="sans-serif" font-size="13" font-weight="bold" lengthAdjust="spacing" textLength="23.1182" x="1081.5894" y="314.6406">[05]</text><text fill="#333333" font-family="sans-serif" font-size="13" lengthAdjust="spacing" textLength="59.7568" x="1108.7075" y="314.5313">pago | null</text></g><g class="message" data-participant-1="repo" data-participant-2="svc"><polygon fill="#1168BD" points="761.1533,345.75,751.1533,349.75,761.1533,353.75,757.1533,349.75" style="stroke:#1168BD;stroke-width:1;"/><line style="stroke:#1168BD;stroke-width:1;stroke-dasharray:2,2;" x1="755.1533" x2="1058.5894" y1="349.75" y2="349.75"/><text fill="#333333" font-family="sans-serif" font-size="13" font-weight="bold" lengthAdjust="spacing" textLength="23.1182" x="767.1533" y="345">[06]</text><text fill="#333333" font-family="sans-serif" font-size="13" lengthAdjust="spacing" textLength="59.7568" x="794.2715" y="344.8906">pago | null</text></g><path d="M10,364.75 L70.1709,364.75 L70.1709,373.1094 L60.1709,383.1094 L10,383.1094 L10,364.75" fill="#EEEEEE" style="stroke:#000000;stroke-width:1.5;"/><rect fill="none" height="752.3438" style="stroke:#000000;stroke-width:1.5;" width="1648.3271" x="10" y="364.75"/><text fill="#000000" font-family="sans-serif" font-size="13" font-weight="bold" lengthAdjust="spacing" textLength="15.1709" x="25" y="379.3594">alt</text><text fill="#000000" font-family="sans-serif" font-size="11" font-weight="bold" lengthAdjust="spacing" textLength="188.8638" x="85.1709" y="378.2656">[pago ya procesado (idempotencia)]</text><g class="message" data-participant-1="svc" data-participant-2="router"><polygon fill="#1168BD" points="414.5601,401.4688,404.5601,405.4688,414.5601,409.4688,410.5601,405.4688" style="stroke:#1168BD;stroke-width:1;"/><line style="stroke:#1168BD;stroke-width:1;stroke-dasharray:2,2;" x1="408.5601" x2="739.1533" y1="405.4688" y2="405.4688"/><text fill="#333333" font-family="sans-serif" font-size="13" font-weight="bold" lengthAdjust="spacing" textLength="23.1182" x="420.5601" y="400.7188">[07]</text><text fill="#333333" font-family="sans-serif" font-size="13" lengthAdjust="spacing" textLength="200.1353" x="447.6782" y="400.6094">resultado previo (mismo response)</text></g><g class="message" data-participant-1="router" data-participant-2="user"><polygon fill="#1168BD" points="65.7896,431.8281,55.7896,435.8281,65.7896,439.8281,61.7896,435.8281" style="stroke:#1168BD;stroke-width:1;"/><line style="stroke:#1168BD;stroke-width:1;stroke-dasharray:2,2;" x1="59.7896" x2="392.5601" y1="435.8281" y2="435.8281"/><text fill="#333333" font-family="sans-serif" font-size="13" font-weight="bold" lengthAdjust="spacing" textLength="23.1182" x="71.7896" y="431.0781">[08]</text><text fill="#333333" font-family="sans-serif" font-size="13" lengthAdjust="spacing" textLength="127.9053" x="98.9077" y="430.9688">200 OK (idempotente)</text></g><line style="stroke:#000000;stroke-width:1;stroke-dasharray:2,2;" x1="10" x2="1658.3271" y1="444.8281" y2="444.8281"/><text fill="#000000" font-family="sans-serif" font-size="11" font-weight="bold" lengthAdjust="spacing" textLength="81.2754" x="15" y="456.3438">[primer intento]</text><g class="message" data-participant-1="svc" data-participant-2="repo"><polygon fill="#1168BD" points="1042.5894,478.0469,1052.5894,482.0469,1042.5894,486.0469,1046.5894,482.0469" style="stroke:#1168BD;stroke-width:1;"/><line style="stroke:#1168BD;stroke-width:1;" x1="750.1533" x2="1048.5894" y1="482.0469" y2="482.0469"/><text fill="#333333" font-family="sans-serif" font-size="13" font-weight="bold" lengthAdjust="spacing" textLength="23.1182" x="757.1533" y="477.2969">[09]</text><text fill="#333333" font-family="sans-serif" font-size="13" lengthAdjust="spacing" textLength="197.6152" x="784.2715" y="477.1875">insert pago (estado=PENDIENTE)</text></g><g class="message" data-participant-1="repo" data-participant-2="db"><polygon fill="#1168BD" points="1379.9766,508.4063,1389.9766,512.4063,1379.9766,516.4063,1383.9766,512.4063" style="stroke:#1168BD;stroke-width:1;"/><line style="stroke:#1168BD;stroke-width:1;" x1="1064.5894" x2="1385.9766" y1="512.4063" y2="512.4063"/><text fill="#333333" font-family="sans-serif" font-size="13" font-weight="bold" lengthAdjust="spacing" textLength="23.1182" x="1071.5894" y="507.6563">[10]</text><text fill="#333333" font-family="sans-serif" font-size="13" lengthAdjust="spacing" textLength="135.8145" x="1098.7075" y="507.5469">INSERT INTO pagos ...</text></g><g class="message" data-participant-1="repo" data-participant-2="svc"><polygon fill="#1168BD" points="761.1533,538.7656,751.1533,542.7656,761.1533,546.7656,757.1533,542.7656" style="stroke:#1168BD;stroke-width:1;"/><line style="stroke:#1168BD;stroke-width:1;stroke-dasharray:2,2;" x1="755.1533" x2="1058.5894" y1="542.7656" y2="542.7656"/><text fill="#333333" font-family="sans-serif" font-size="13" font-weight="bold" lengthAdjust="spacing" textLength="23.1182" x="767.1533" y="538.0156">[11]</text><text fill="#333333" font-family="sans-serif" font-size="13" lengthAdjust="spacing" textLength="39.7617" x="794.2715" y="537.9063">pagoId</text></g><g class="message" data-participant-1="svc" data-participant-2="conn"><polygon fill="#1168BD" points="1133.8994,569.125,1143.8994,573.125,1133.8994,577.125,1137.8994,573.125" style="stroke:#1168BD;stroke-width:1;"/><line style="stroke:#1168BD;stroke-width:1;" x1="750.1533" x2="1139.8994" y1="573.125" y2="573.125"/><text fill="#333333" font-family="sans-serif" font-size="13" font-weight="bold" lengthAdjust="spacing" textLength="23.1182" x="757.1533" y="568.375">[12]</text><text fill="#333333" font-family="sans-serif" font-size="13" lengthAdjust="spacing" textLength="124.2681" x="784.2715" y="568.2656">cobrar(monto, medio)</text></g><path d="M1105.4961,588.125 L1177.9307,588.125 L1177.9307,596.4844 L1167.9307,606.4844 L1105.4961,606.4844 L1105.4961,588.125" fill="#EEEEEE" style="stroke:#000000;stroke-width:1.5;"/><rect fill="none" height="79.0781" style="stroke:#000000;stroke-width:1.5;" width="420.7695" x="1105.4961" y="588.125"/><text fill="#000000" font-family="sans-serif" font-size="13" font-weight="bold" lengthAdjust="spacing" textLength="27.4346" x="1120.4961" y="602.7344">loop</text><text fill="#000000" font-family="sans-serif" font-size="11" font-weight="bold" lengthAdjust="spacing" textLength="147.3022" x="1192.9307" y="601.6406">[reintentos (max 3, backoff)]</text><g class="message" data-participant-1="conn" data-participant-2="gw"><polygon fill="#1168BD" points="1467.6865,624.8438,1477.6865,628.8438,1467.6865,632.8438,1471.6865,628.8438" style="stroke:#1168BD;stroke-width:1;"/><line style="stroke:#1168BD;stroke-width:1;" x1="1155.8994" x2="1473.6865" y1="628.8438" y2="628.8438"/><text fill="#333333" font-family="sans-serif" font-size="13" font-weight="bold" lengthAdjust="spacing" textLength="23.1182" x="1162.8994" y="624.0938">[13]</text><text fill="#333333" font-family="sans-serif" font-size="13" lengthAdjust="spacing" textLength="88.8672" x="1190.0176" y="623.9844">POST /charges</text></g><g class="message" data-participant-1="gw" data-participant-2="conn"><polygon fill="#1168BD" points="1166.8994,655.2031,1156.8994,659.2031,1166.8994,663.2031,1162.8994,659.2031" style="stroke:#1168BD;stroke-width:1;"/><line style="stroke:#1168BD;stroke-width:1;stroke-dasharray:2,2;" x1="1160.8994" x2="1478.6865" y1="659.2031" y2="659.2031"/><text fill="#333333" font-family="sans-serif" font-size="13" font-weight="bold" lengthAdjust="spacing" textLength="23.1182" x="1172.8994" y="654.4531">[14]</text><text fill="#333333" font-family="sans-serif" font-size="13" lengthAdjust="spacing" textLength="179.48" x="1200.0176" y="654.3438">aprobado | rechazado | timeout</text></g><g class="message" data-participant-1="conn" data-participant-2="svc"><polygon fill="#1168BD" points="761.1533,692.5625,751.1533,696.5625,761.1533,700.5625,757.1533,696.5625" style="stroke:#1168BD;stroke-width:1;"/><line style="stroke:#1168BD;stroke-width:1;stroke-dasharray:2,2;" x1="755.1533" x2="1149.8994" y1="696.5625" y2="696.5625"/><text fill="#333333" font-family="sans-serif" font-size="13" font-weight="bold" lengthAdjust="spacing" textLength="23.1182" x="767.1533" y="691.8125">[15]</text><text fill="#333333" font-family="sans-serif" font-size="13" lengthAdjust="spacing" textLength="110.5698" x="794.2715" y="691.7031">resultado del cobro</text></g><path d="M20,711.5625 L80.1709,711.5625 L80.1709,719.9219 L70.1709,729.9219 L20,729.9219 L20,711.5625" fill="#EEEEEE" style="stroke:#000000;stroke-width:1.5;"/><rect fill="none" height="398.5313" style="stroke:#000000;stroke-width:1.5;" width="1628.3271" x="20" y="711.5625"/><text fill="#000000" font-family="sans-serif" font-size="13" font-weight="bold" lengthAdjust="spacing" textLength="15.1709" x="35" y="726.1719">alt</text><text fill="#000000" font-family="sans-serif" font-size="11" font-weight="bold" lengthAdjust="spacing" textLength="105.1069" x="95.1709" y="725.0781">[cobro APROBADO]</text><g class="message" data-participant-1="svc" data-participant-2="repo"><polygon fill="#1168BD" points="1042.5894,748.2813,1052.5894,752.2813,1042.5894,756.2813,1046.5894,752.2813" style="stroke:#1168BD;stroke-width:1;"/><line style="stroke:#1168BD;stroke-width:1;" x1="750.1533" x2="1048.5894" y1="752.2813" y2="752.2813"/><text fill="#333333" font-family="sans-serif" font-size="13" font-weight="bold" lengthAdjust="spacing" textLength="23.1182" x="757.1533" y="747.5313">[16]</text><text fill="#333333" font-family="sans-serif" font-size="13" lengthAdjust="spacing" textLength="233.0479" x="784.2715" y="747.4219">update pago (estado=APROBADO, txId)</text></g><g class="message" data-participant-1="repo" data-participant-2="db"><polygon fill="#1168BD" points="1379.9766,778.6406,1389.9766,782.6406,1379.9766,786.6406,1383.9766,782.6406" style="stroke:#1168BD;stroke-width:1;"/><line style="stroke:#1168BD;stroke-width:1;" x1="1059.5894" x2="1385.9766" y1="782.6406" y2="782.6406"/><text fill="#333333" font-family="sans-serif" font-size="13" font-weight="bold" lengthAdjust="spacing" textLength="23.1182" x="1066.5894" y="777.8906">[17]</text><text fill="#333333" font-family="sans-serif" font-size="13" lengthAdjust="spacing" textLength="249.5391" x="1093.7075" y="777.7813">UPDATE pagos SET estado='APROBADO'</text></g><g class="message" data-participant-1="svc" data-participant-2="pub"><polygon fill="#1168BD" points="1226.3267,809,1236.3267,813,1226.3267,817,1230.3267,813" style="stroke:#1168BD;stroke-width:1;"/><line style="stroke:#1168BD;stroke-width:1;" x1="750.1533" x2="1232.3267" y1="813" y2="813"/><text fill="#333333" font-family="sans-serif" font-size="13" font-weight="bold" lengthAdjust="spacing" textLength="23.1182" x="757.1533" y="808.25">[18]</text><text fill="#333333" font-family="sans-serif" font-size="13" lengthAdjust="spacing" textLength="236.2661" x="784.2715" y="808.1406">PagoProcesado(reservaId, APROBADO)</text></g><g class="message" data-participant-1="pub" data-participant-2="bus"><polygon fill="#1168BD" points="1570.2964,839.3594,1580.2964,843.3594,1570.2964,847.3594,1574.2964,843.3594" style="stroke:#1168BD;stroke-width:1;"/><line style="stroke:#1168BD;stroke-width:1;" x1="1238.3267" x2="1576.2964" y1="843.3594" y2="843.3594"/><text fill="#333333" font-family="sans-serif" font-size="13" font-weight="bold" lengthAdjust="spacing" textLength="23.1182" x="1245.3267" y="838.6094">[19]</text><text fill="#333333" font-family="sans-serif" font-size="13" lengthAdjust="spacing" textLength="137.3188" x="1272.4448" y="838.5">publish PagoProcesado</text></g><g class="message" data-participant-1="svc" data-participant-2="router"><polygon fill="#1168BD" points="414.5601,869.7188,404.5601,873.7188,414.5601,877.7188,410.5601,873.7188" style="stroke:#1168BD;stroke-width:1;"/><line style="stroke:#1168BD;stroke-width:1;stroke-dasharray:2,2;" x1="408.5601" x2="739.1533" y1="873.7188" y2="873.7188"/><text fill="#333333" font-family="sans-serif" font-size="13" font-weight="bold" lengthAdjust="spacing" textLength="23.1182" x="420.5601" y="868.9688">[20]</text><text fill="#333333" font-family="sans-serif" font-size="13" lengthAdjust="spacing" textLength="87.4707" x="447.6782" y="868.8594">pago aprobado</text></g><g class="message" data-participant-1="router" data-participant-2="user"><polygon fill="#1168BD" points="65.7896,900.0781,55.7896,904.0781,65.7896,908.0781,61.7896,904.0781" style="stroke:#1168BD;stroke-width:1;"/><line style="stroke:#1168BD;stroke-width:1;stroke-dasharray:2,2;" x1="59.7896" x2="392.5601" y1="904.0781" y2="904.0781"/><text fill="#333333" font-family="sans-serif" font-size="13" font-weight="bold" lengthAdjust="spacing" textLength="23.1182" x="71.7896" y="899.3281">[21]</text><text fill="#333333" font-family="sans-serif" font-size="13" lengthAdjust="spacing" textLength="143.8252" x="98.9077" y="899.2188">200 OK (pago aprobado)</text></g><line style="stroke:#000000;stroke-width:1;stroke-dasharray:2,2;" x1="20" x2="1648.3271" y1="913.0781" y2="913.0781"/><text fill="#000000" font-family="sans-serif" font-size="11" font-weight="bold" lengthAdjust="spacing" textLength="111.2139" x="25" y="924.5938">[cobro RECHAZADO]</text><g class="message" data-participant-1="svc" data-participant-2="repo"><polygon fill="#1168BD" points="1042.5894,946.2969,1052.5894,950.2969,1042.5894,954.2969,1046.5894,950.2969" style="stroke:#1168BD;stroke-width:1;"/><line style="stroke:#1168BD;stroke-width:1;" x1="750.1533" x2="1048.5894" y1="950.2969" y2="950.2969"/><text fill="#333333" font-family="sans-serif" font-size="13" font-weight="bold" lengthAdjust="spacing" textLength="23.1182" x="757.1533" y="945.5469">[22]</text><text fill="#333333" font-family="sans-serif" font-size="13" lengthAdjust="spacing" textLength="258.3179" x="784.2715" y="945.4375">update pago (estado=RECHAZADO, motivo)</text></g><g class="message" data-participant-1="repo" data-participant-2="db"><polygon fill="#1168BD" points="1379.9766,976.6563,1389.9766,980.6563,1379.9766,984.6563,1383.9766,980.6563" style="stroke:#1168BD;stroke-width:1;"/><line style="stroke:#1168BD;stroke-width:1;" x1="1059.5894" x2="1385.9766" y1="980.6563" y2="980.6563"/><text fill="#333333" font-family="sans-serif" font-size="13" font-weight="bold" lengthAdjust="spacing" textLength="23.1182" x="1066.5894" y="975.9063">[23]</text><text fill="#333333" font-family="sans-serif" font-size="13" lengthAdjust="spacing" textLength="257.4736" x="1093.7075" y="975.7969">UPDATE pagos SET estado='RECHAZADO'</text></g><g class="message" data-participant-1="svc" data-participant-2="pub"><polygon fill="#1168BD" points="1226.3267,1007.0156,1236.3267,1011.0156,1226.3267,1015.0156,1230.3267,1011.0156" style="stroke:#1168BD;stroke-width:1;"/><line style="stroke:#1168BD;stroke-width:1;" x1="750.1533" x2="1232.3267" y1="1011.0156" y2="1011.0156"/><text fill="#333333" font-family="sans-serif" font-size="13" font-weight="bold" lengthAdjust="spacing" textLength="23.1182" x="757.1533" y="1006.2656">[24]</text><text fill="#333333" font-family="sans-serif" font-size="13" lengthAdjust="spacing" textLength="244.2007" x="784.2715" y="1006.1563">PagoProcesado(reservaId, RECHAZADO)</text></g><g class="message" data-participant-1="pub" data-participant-2="bus"><polygon fill="#1168BD" points="1570.2964,1037.375,1580.2964,1041.375,1570.2964,1045.375,1574.2964,1041.375" style="stroke:#1168BD;stroke-width:1;"/><line style="stroke:#1168BD;stroke-width:1;" x1="1238.3267" x2="1576.2964" y1="1041.375" y2="1041.375"/><text fill="#333333" font-family="sans-serif" font-size="13" font-weight="bold" lengthAdjust="spacing" textLength="23.1182" x="1245.3267" y="1036.625">[25]</text><text fill="#333333" font-family="sans-serif" font-size="13" lengthAdjust="spacing" textLength="137.3188" x="1272.4448" y="1036.5156">publish PagoProcesado</text></g><g class="message" data-participant-1="svc" data-participant-2="router"><polygon fill="#1168BD" points="414.5601,1067.7344,404.5601,1071.7344,414.5601,1075.7344,410.5601,1071.7344" style="stroke:#1168BD;stroke-width:1;"/><line style="stroke:#1168BD;stroke-width:1;stroke-dasharray:2,2;" x1="408.5601" x2="739.1533" y1="1071.7344" y2="1071.7344"/><text fill="#333333" font-family="sans-serif" font-size="13" font-weight="bold" lengthAdjust="spacing" textLength="23.1182" x="420.5601" y="1066.9844">[26]</text><text fill="#333333" font-family="sans-serif" font-size="13" lengthAdjust="spacing" textLength="93.2407" x="447.6782" y="1066.875">pago rechazado</text></g><g class="message" data-participant-1="router" data-participant-2="user"><polygon fill="#1168BD" points="65.7896,1098.0938,55.7896,1102.0938,65.7896,1106.0938,61.7896,1102.0938" style="stroke:#1168BD;stroke-width:1;"/><line style="stroke:#1168BD;stroke-width:1;stroke-dasharray:2,2;" x1="59.7896" x2="392.5601" y1="1102.0938" y2="1102.0938"/><text fill="#333333" font-family="sans-serif" font-size="13" font-weight="bold" lengthAdjust="spacing" textLength="23.1182" x="71.7896" y="1097.3438">[27]</text><text fill="#333333" font-family="sans-serif" font-size="13" lengthAdjust="spacing" textLength="132.9707" x="98.9077" y="1097.2344">402 Payment Required</text></g><rect fill="#EEEEEE" height="3" style="stroke:#EEEEEE;stroke-width:1;" width="1668.3271" x="0" y="1145.2734"/><line style="stroke:#000000;stroke-width:1;" x1="0" x2="1668.3271" y1="1145.2734" y2="1145.2734"/><line style="stroke:#000000;stroke-width:1;" x1="0" x2="1668.3271" y1="1148.2734" y2="1148.2734"/><rect fill="#EEEEEE" height="24.3594" style="stroke:#000000;stroke-width:2;" width="190.9917" x="738.6677" y="1134.0938"/><text fill="#000000" font-family="sans-serif" font-size="13" font-weight="bold" lengthAdjust="spacing" textLength="173.3799" x="744.6677" y="1151.7031">B. Reembolso (cancelacion)</text><path d="M693.5259,1175.4531 L758.7368,1175.4531 L758.7368,1183.8125 L748.7368,1193.8125 L693.5259,1193.8125 L693.5259,1175.4531" fill="#EEEEEE" style="stroke:#000000;stroke-width:1.5;"/><rect fill="none" height="261.2344" style="stroke:#000000;stroke-width:1.5;" width="954.8013" x="693.5259" y="1175.4531"/><text fill="#000000" font-family="sans-serif" font-size="13" font-weight="bold" lengthAdjust="spacing" textLength="20.2109" x="708.5259" y="1190.0625">opt</text><text fill="#000000" font-family="sans-serif" font-size="11" font-weight="bold" lengthAdjust="spacing" textLength="208.4683" x="773.7368" y="1188.9688">[reserva cancelada tras pago aprobado]</text><g class="message" data-participant-1="bus" data-participant-2="svc"><polygon fill="#1168BD" points="761.1533,1212.1719,751.1533,1216.1719,761.1533,1220.1719,757.1533,1216.1719" style="stroke:#1168BD;stroke-width:1;"/><line style="stroke:#1168BD;stroke-width:1;" x1="755.1533" x2="1581.2964" y1="1216.1719" y2="1216.1719"/><text fill="#333333" font-family="sans-serif" font-size="13" font-weight="bold" lengthAdjust="spacing" textLength="23.1182" x="767.1533" y="1211.4219">[28]</text><text fill="#333333" font-family="sans-serif" font-size="13" lengthAdjust="spacing" textLength="173.4116" x="794.2715" y="1211.3125">ReservaCancelada(reservaId)</text></g><g class="message" data-participant-1="svc" data-participant-2="conn"><polygon fill="#1168BD" points="1133.8994,1242.5313,1143.8994,1246.5313,1133.8994,1250.5313,1137.8994,1246.5313" style="stroke:#1168BD;stroke-width:1;"/><line style="stroke:#1168BD;stroke-width:1;" x1="750.1533" x2="1139.8994" y1="1246.5313" y2="1246.5313"/><text fill="#333333" font-family="sans-serif" font-size="13" font-weight="bold" lengthAdjust="spacing" textLength="23.1182" x="757.1533" y="1241.7813">[29]</text><text fill="#333333" font-family="sans-serif" font-size="13" lengthAdjust="spacing" textLength="156.7998" x="784.2715" y="1241.6719">reembolsar(pagoId, monto)</text></g><g class="message" data-participant-1="conn" data-participant-2="gw"><polygon fill="#1168BD" points="1467.6865,1272.8906,1477.6865,1276.8906,1467.6865,1280.8906,1471.6865,1276.8906" style="stroke:#1168BD;stroke-width:1;"/><line style="stroke:#1168BD;stroke-width:1;" x1="1155.8994" x2="1473.6865" y1="1276.8906" y2="1276.8906"/><text fill="#333333" font-family="sans-serif" font-size="13" font-weight="bold" lengthAdjust="spacing" textLength="23.1182" x="1162.8994" y="1272.1406">[30]</text><text fill="#333333" font-family="sans-serif" font-size="13" lengthAdjust="spacing" textLength="85.979" x="1190.0176" y="1272.0313">POST /refunds</text></g><g class="message" data-participant-1="gw" data-participant-2="conn"><polygon fill="#1168BD" points="1161.8994,1303.25,1151.8994,1307.25,1161.8994,1311.25,1157.8994,1307.25" style="stroke:#1168BD;stroke-width:1;"/><line style="stroke:#1168BD;stroke-width:1;stroke-dasharray:2,2;" x1="1155.8994" x2="1478.6865" y1="1307.25" y2="1307.25"/><text fill="#333333" font-family="sans-serif" font-size="13" font-weight="bold" lengthAdjust="spacing" textLength="23.1182" x="1167.8994" y="1302.5">[31]</text><text fill="#333333" font-family="sans-serif" font-size="13" lengthAdjust="spacing" textLength="78.0381" x="1195.0176" y="1302.3906">reembolso ok</text></g><g class="message" data-participant-1="svc" data-participant-2="repo"><polygon fill="#1168BD" points="1042.5894,1333.6094,1052.5894,1337.6094,1042.5894,1341.6094,1046.5894,1337.6094" style="stroke:#1168BD;stroke-width:1;"/><line style="stroke:#1168BD;stroke-width:1;" x1="750.1533" x2="1048.5894" y1="1337.6094" y2="1337.6094"/><text fill="#333333" font-family="sans-serif" font-size="13" font-weight="bold" lengthAdjust="spacing" textLength="23.1182" x="757.1533" y="1332.8594">[32]</text><text fill="#333333" font-family="sans-serif" font-size="13" lengthAdjust="spacing" textLength="231.6006" x="784.2715" y="1332.75">update pago (estado=REEMBOLSADO)</text></g><g class="message" data-participant-1="repo" data-participant-2="db"><polygon fill="#1168BD" points="1379.9766,1363.9688,1389.9766,1367.9688,1379.9766,1371.9688,1383.9766,1367.9688" style="stroke:#1168BD;stroke-width:1;"/><line style="stroke:#1168BD;stroke-width:1;" x1="1059.5894" x2="1385.9766" y1="1367.9688" y2="1367.9688"/><text fill="#333333" font-family="sans-serif" font-size="13" font-weight="bold" lengthAdjust="spacing" textLength="23.1182" x="1066.5894" y="1363.2188">[33]</text><text fill="#333333" font-family="sans-serif" font-size="13" lengthAdjust="spacing" textLength="276.269" x="1093.7075" y="1363.1094">UPDATE pagos SET estado='REEMBOLSADO'</text></g><g class="message" data-participant-1="svc" data-participant-2="pub"><polygon fill="#1168BD" points="1226.3267,1394.3281,1236.3267,1398.3281,1226.3267,1402.3281,1230.3267,1398.3281" style="stroke:#1168BD;stroke-width:1;"/><line style="stroke:#1168BD;stroke-width:1;" x1="750.1533" x2="1232.3267" y1="1398.3281" y2="1398.3281"/><text fill="#333333" font-family="sans-serif" font-size="13" font-weight="bold" lengthAdjust="spacing" textLength="23.1182" x="757.1533" y="1393.5781">[34]</text><text fill="#333333" font-family="sans-serif" font-size="13" lengthAdjust="spacing" textLength="173.4243" x="784.2715" y="1393.4688">PagoReembolsado(reservaId)</text></g><g class="message" data-participant-1="pub" data-participant-2="bus"><polygon fill="#1168BD" points="1570.2964,1424.6875,1580.2964,1428.6875,1570.2964,1432.6875,1574.2964,1428.6875" style="stroke:#1168BD;stroke-width:1;"/><line style="stroke:#1168BD;stroke-width:1;" x1="1238.3267" x2="1576.2964" y1="1428.6875" y2="1428.6875"/><text fill="#333333" font-family="sans-serif" font-size="13" font-weight="bold" lengthAdjust="spacing" textLength="23.1182" x="1245.3267" y="1423.9375">[35]</text><text fill="#333333" font-family="sans-serif" font-size="13" lengthAdjust="spacing" textLength="155.3843" x="1272.4448" y="1423.8281">publish PagoReembolsado</text></g><path d="M709,1448.6875 L709,1490.6875 L1186,1490.6875 L1186,1458.6875 L1176,1448.6875 L709,1448.6875" fill="#FFF3CD" style="stroke:#E0A800;stroke-width:0.5;"/><path d="M1176,1448.6875 L1176,1458.6875 L1186,1458.6875 L1176,1448.6875" fill="#FFF3CD" style="stroke:#E0A800;stroke-width:0.5;"/><text fill="#000000" font-family="sans-serif" font-size="13" lengthAdjust="spacing" textLength="341.085" x="772.8459" y="1467.1875">Idempotencia por idempotencyKey y reintentos con backoff</text><text fill="#000000" font-family="sans-serif" font-size="13" lengthAdjust="spacing" textLength="273.895" x="772.8459" y="1483.5469">garantizan que un mismo cobro no se duplique.</text><!--SRC=[hLTjRzis4FwkNt7mFiGk4aTDkY08bWv-aL6ZRkpQtWPi6GPAOXGc4gcIaXFtvR_tIBrRSRQX4H0avTqzT_VS2za3kFo1ppg0sMmCHp1c990a8k1JM54lfTnZ1Bf3SYVWYcres4FL8V7kAVSlO2u_fLGbn1TI6on881JAVoWITSzuJ306SD5D84NA_P48qSDF4_FLDDGjkdvWF80R4YfQbz1FEdOANop0Ro2bUCXHNhy-En-Eg-E9u4akEZMV4StO3PqnJeT2-bIsJKlvRf3ZC-VDn3Ow2o8Jvh6OyAG1OzkdvsS_jrHsaPvMguMRys4oyH8Xzpd9XC_03yNZlZnHLFEOstohCSr5qYO1mpeTZNUrwYuSUt1ksvQLi2IaUVCzrKxGlH8-xTyfE8OqJ5X44df47sD9bUfP5j6fGUTtHkwe51qW2b95fHLNX45dATA4QiXhRZ2DcZI7bkMAH-WyvRc3GGuc9vEXuQ41kA9oW_yGEv1guxLrbpGMYc6KJAXhtes3NkOUZzlA8y6fpgYEwWdEsvgBr0sPfmE-vXYniw4yoGtYrBLmF04piooV9CGbYgA5K4aWwUhZp6ZvRfEa1L54qf0OkCfxyD1K6wOATlovgS92f8dWQUGYpvrVtBT_sVRV7Skwl8H17qR2bGAtWgLB0qTlS-xX0XRprHgENI6mKG9r_8NvtuvZieLkH7qc3e7vD8gnTRYtVK-tFLrkji4EAAgN0o4aSezuiHGUnJnq_5ri4QmJcVg7464BFmUdAsTf21qSLWQXC2il1zeVXIwYqKSxtqMhbJDpHcju1PFb_0DMJ7Vm7- -SfMDy_tDFjvU_MgXvL3dIIl0LU1g6ELQLJataqwPRYuH9fh0bHTw-W5gmZFHCtvYywgmZCJXAMXl7Q8Djt8sOYeG-ZmLND3Chk4LBKxSBEB5jcB-lkKXGbUBYHHmMeGhZ-b1KNiia6SBAFDvkDccN2-TgF7MkraxchvcUYQ3ExFHgvIpN-6izptdjz_irjGPfKzz8MfpL0jDZXTeUzYQHtRn1JDljX5FENoX4Z3XvahYP8l88fuVcdX8tDvcP_WmqkWWUoXRtReaCg2fLK7HK1K6mVgwknrV4HzNFsT-uxIWMmHZXG5iLTfbiLKgVXYOPiPkvYJzB2Jl6gC1WiPmF1-Dv6K-pMcdiQyj6jGgJGqWUftwLRBjihTBzjXWFravUjPMpXXpoeC0yAErsAxOJ7wusJIa2BOgEhuzvWLT5fmtG3eTPTuRUcUgsQTzqKHyJatvHcYgplMFHqCz2CCEHKRvqHky6V_u_paiRlS6G5l4oj9UmByLx2VY2n9U3y0ppR-mJnDn6E8-mn1SVazGlfqN_rDBIAxwUPNxzumqrxACnZLmHAgJU8_Xi30dUxhodxomH9v2d2hdC9v18VT6s6aIdMyxcChCQ5KOLOpiRfdWtD3UJp6F2xPIjjFmQsxUUdjWwajxWcopREisD8yk4nVsJ2-E_DgZpOJYVhShI_yiIVwObIw03Qrz3jfgnA5kZ7RD0zlPVpMRNaQw3xXfBlrP1RB37yEYm86HQkraXnfTYyrq0s_hbW3R5nO2c0Jw2US8-4mxuq8IKGtRZPgk12_p_2lXf73AKzitZJOTWVGS0]--></g></svg>