<svg xmlns="http://www.w3.org/2000/svg" xmlns:xlink="http://www.w3.org/1999/xlink" contentStyleType="text/css" data-diagram-type="ACTIVITY" height="1549px" preserveAspectRatio="none" style="width:1872px;height:1549px;background:#FFFFFF;" version="1.1" viewBox="0 0 1872 1549" width="1872px" zoomAndPan="magnify"><title>Proceso de Negocio (BPMN) - Reserva de vuelo/hotel con pago</title><defs/><g><g class="title" data-source-line="21"><text fill="#000000" font-family="sans-serif" font-size="14" font-weight="bold" lengthAdjust="spacing" textLength="420.082" x="724.7417" y="34.6563">Proceso de Negocio (BPMN) - Reserva de vuelo/hotel con pago</text></g><rect fill="none" height="17.6094" style="stroke:none;stroke-width:1;" width="1839.5654" x="15" y="50.2031"/><rect fill="#EAF2FB" height="1416.6719" style="stroke:#EAF2FB;stroke-width:1;" width="482.4429" x="15" y="50.2031"/><ellipse cx="249.3311" cy="82.8125" fill="#222222" rx="10" ry="10" style="stroke:#222222;stroke-width:1;"/><rect fill="#FFFFFF" height="50.1875" rx="12.5" ry="12.5" style="stroke:#1168BD;stroke-width:1.2;" width="207.4355" x="145.6133" y="112.8125"/><text fill="#1A1A1A" font-family="sans-serif" font-size="12" lengthAdjust="spacing" textLength="162.0938" x="155.6133" y="135.2656">Ingresar criterios de busqueda</text><text fill="#1A1A1A" font-family="sans-serif" font-size="12" lengthAdjust="spacing" textLength="187.4355" x="155.6133" y="150.3594">(origen, destino, fechas, pasajeros)</text><rect fill="#FFFFFF" height="35.0938" rx="12.5" ry="12.5" style="stroke:#1168BD;stroke-width:1.2;" width="100.6953" x="198.9834" y="308.2813"/><text fill="#1A1A1A" font-family="sans-serif" font-size="12" lengthAdjust="spacing" textLength="80.6953" x="208.9834" y="330.7344">Revisar ofertas</text><polygon fill="#FFF3CD" points="172.272,363.375,326.3901,363.375,338.3901,375.375,326.3901,387.375,172.272,387.375,160.272,375.375,172.272,363.375" style="stroke:#E0A800;stroke-width:1.2;"/><text fill="#1A1A1A" font-family="sans-serif" font-size="11" lengthAdjust="spacing" textLength="154.1182" x="172.272" y="379.8828">Encontro una oferta adecuada?</text><text fill="#1A1A1A" font-family="sans-serif" font-size="11" lengthAdjust="spacing" textLength="12.2354" x="148.0366" y="372.9531">no</text><text fill="#1A1A1A" font-family="sans-serif" font-size="11" lengthAdjust="spacing" textLength="7.9438" x="338.3901" y="372.9531">si</text><rect fill="#FFFFFF" height="35.0938" rx="12.5" ry="12.5" style="stroke:#1168BD;stroke-width:1.2;" width="177.4648" x="51.5405" y="397.375"/><text fill="#1A1A1A" font-family="sans-serif" font-size="12" lengthAdjust="spacing" textLength="157.4648" x="61.5405" y="419.8281">Abandonar / nueva busqueda</text><ellipse cx="140.2729" cy="463.4688" fill="none" rx="11" ry="11" style="stroke:#222222;stroke-width:1;"/><ellipse cx="140.2729" cy="463.4688" fill="#222222" rx="6" ry="6" style="stroke:#222222;stroke-width:1;"/><rect fill="#FFFFFF" height="35.0938" rx="12.5" ry="12.5" style="stroke:#1168BD;stroke-width:1.2;" width="218.7676" x="249.0054" y="397.375"/><text fill="#1A1A1A" font-family="sans-serif" font-size="12" lengthAdjust="spacing" textLength="198.7676" x="259.0054" y="419.8281">Seleccionar oferta y cargar pasajeros</text><rect fill="#FFFFFF" height="35.0938" rx="12.5" ry="12.5" style="stroke:#1168BD;stroke-width:1.2;" width="198.1074" x="29.2222" y="663.6563"/><text fill="#1A1A1A" font-family="sans-serif" font-size="12" lengthAdjust="spacing" textLength="178.1074" x="39.2222" y="686.1094">Recibir aviso de no disponibilidad</text><ellipse cx="128.2759" cy="729.75" fill="none" rx="11" ry="11" style="stroke:#222222;stroke-width:1;"/><ellipse cx="128.2759" cy="729.75" fill="#222222" rx="6" ry="6" style="stroke:#222222;stroke-width:1;"/><rect fill="#FFFFFF" height="50.1875" rx="12.5" ry="12.5" style="stroke:#1168BD;stroke-width:1.2;" width="246.1133" x="247.3296" y="593.5625"/><text fill="#1A1A1A" font-family="sans-serif" font-size="12" lengthAdjust="spacing" textLength="226.1133" x="257.3296" y="616.0156">Crear reserva con bloqueo temporal (hold)</text><text fill="#1A1A1A" font-family="sans-serif" font-size="12" lengthAdjust="spacing" textLength="118.3828" x="257.3296" y="631.1094">estado = PENDIENTE</text><rect fill="#FFFFFF" height="50.1875" rx="12.5" ry="12.5" style="stroke:#1168BD;stroke-width:1.2;" width="107.3867" x="195.6377" y="760.75"/><text fill="#1A1A1A" font-family="sans-serif" font-size="12" lengthAdjust="spacing" textLength="74.0449" x="205.6377" y="783.2031">Realizar pago</text><text fill="#1A1A1A" font-family="sans-serif" font-size="12" lengthAdjust="spacing" textLength="87.3867" x="205.6377" y="798.2969">(medio de pago)</text><rect fill="#FFFFFF" height="35.0938" rx="12.5" ry="12.5" style="stroke:#1168BD;stroke-width:1.2;" width="211.4141" x="21" y="1377.7813"/><text fill="#1A1A1A" font-family="sans-serif" font-size="12" lengthAdjust="spacing" textLength="191.4141" x="31" y="1400.2344">Recibir confirmacion y comprobante</text><ellipse cx="126.707" cy="1443.875" fill="none" rx="11" ry="11" style="stroke:#222222;stroke-width:1;"/><ellipse cx="126.707" cy="1443.875" fill="#222222" rx="6" ry="6" style="stroke:#222222;stroke-width:1;"/><rect fill="#FFFFFF" height="35.0938" rx="12.5" ry="12.5" style="stroke:#1168BD;stroke-width:1.2;" width="194.7734" x="274.5684" y="1265.6875"/><text fill="#1A1A1A" font-family="sans-serif" font-size="12" lengthAdjust="spacing" textLength="174.7734" x="284.5684" y="1288.1406">Recibir aviso de pago rechazado</text><ellipse cx="371.9551" cy="1346.7813" fill="none" rx="11" ry="11" style="stroke:#222222;stroke-width:1;"/><ellipse cx="371.9551" cy="1346.7813" fill="#222222" rx="6" ry="6" style="stroke:#222222;stroke-width:1;"/><line style="stroke:#9BB7D4;stroke-width:1.5;" x1="15" x2="15" y1="50.2031" y2="1466.875"/><rect fill="#FFFFFF" height="1416.6719" style="stroke:#FFFFFF;stroke-width:1;" width="241.4473" x="497.4429" y="50.2031"/><rect fill="#FFFFFF" height="50.1875" rx="12.5" ry="12.5" style="stroke:#1168BD;stroke-width:1.2;" width="231.4473" x="503.4429" y="183"/><text fill="#1A1A1A" font-family="sans-serif" font-size="12" lengthAdjust="spacing" textLength="172.7578" x="513.4429" y="205.4531">Consultar disponibilidad y tarifas</text><text fill="#1A1A1A" font-family="sans-serif" font-size="12" lengthAdjust="spacing" textLength="211.4473" x="513.4429" y="220.5469">(GDS de vuelos / proveedor de hoteles)</text><rect fill="#FFFFFF" height="35.0938" rx="12.5" ry="12.5" style="stroke:#1168BD;stroke-width:1.2;" width="172.0566" x="533.1382" y="253.1875"/><text fill="#1A1A1A" font-family="sans-serif" font-size="12" lengthAdjust="spacing" textLength="152.0566" x="543.1382" y="275.6406">Normalizar y ordenar ofertas</text><line style="stroke:#9BB7D4;stroke-width:1.5;" x1="497.4429" x2="497.4429" y1="50.2031" y2="1466.875"/><rect fill="#EAF2FB" height="1416.6719" style="stroke:#EAF2FB;stroke-width:1;" width="454.6387" x="738.8901" y="50.2031"/><rect fill="#FFFFFF" height="35.0938" rx="12.5" ry="12.5" style="stroke:#1168BD;stroke-width:1.2;" width="203.4395" x="893.6558" y="494.4688"/><text fill="#1A1A1A" font-family="sans-serif" font-size="12" lengthAdjust="spacing" textLength="183.4395" x="903.6558" y="516.9219">Verificar disponibilidad de la oferta</text><polygon fill="#FFF3CD" points="947.6775,549.5625,1043.0735,549.5625,1055.0735,561.5625,1043.0735,573.5625,947.6775,573.5625,935.6775,561.5625,947.6775,549.5625" style="stroke:#E0A800;stroke-width:1.2;"/><text fill="#1A1A1A" font-family="sans-serif" font-size="11" lengthAdjust="spacing" textLength="95.396" x="947.6775" y="566.0703">Hay disponibilidad?</text><text fill="#1A1A1A" font-family="sans-serif" font-size="11" lengthAdjust="spacing" textLength="12.2354" x="923.4421" y="559.1406">no</text><text fill="#1A1A1A" font-family="sans-serif" font-size="11" lengthAdjust="spacing" textLength="7.9438" x="1055.0735" y="559.1406">si</text><rect fill="#FFFFFF" height="35.0938" rx="12.5" ry="12.5" style="stroke:#1168BD;stroke-width:1.2;" width="162.7344" x="792.9531" y="593.5625"/><text fill="#1A1A1A" font-family="sans-serif" font-size="12" lengthAdjust="spacing" textLength="142.7344" x="802.9531" y="616.0156">Rechazar (oferta expirada)</text><rect fill="#FFFFFF" height="35.0938" rx="12.5" ry="12.5" style="stroke:#1168BD;stroke-width:1.2;" width="250.7773" x="747.3628" y="1110.4063"/><text fill="#1A1A1A" font-family="sans-serif" font-size="12" lengthAdjust="spacing" textLength="230.7773" x="757.3628" y="1132.8594">Confirmar reserva definitiva ante proveedor</text><rect fill="#FFFFFF" height="35.0938" rx="12.5" ry="12.5" style="stroke:#1168BD;stroke-width:1.2;" width="255.7227" x="744.8901" y="1180.5"/><text fill="#1A1A1A" font-family="sans-serif" font-size="12" lengthAdjust="spacing" textLength="235.7227" x="754.8901" y="1202.9531">Marcar reserva CONFIRMADA + localizador</text><rect fill="#FFFFFF" height="35.0938" rx="12.5" ry="12.5" style="stroke:#1168BD;stroke-width:1.2;" width="212.7617" x="766.3706" y="1250.5938"/><text fill="#1A1A1A" font-family="sans-serif" font-size="12" lengthAdjust="spacing" textLength="192.7617" x="776.3706" y="1273.0469">Publicar evento ReservaConfirmada</text><rect fill="#FFFFFF" height="50.1875" rx="12.5" ry="12.5" style="stroke:#1168BD;stroke-width:1.2;" width="143.0586" x="1046.4702" y="1110.4063"/><text fill="#1A1A1A" font-family="sans-serif" font-size="12" lengthAdjust="spacing" textLength="91.3711" x="1056.4702" y="1132.8594">Cancelar reserva</text><text fill="#1A1A1A" font-family="sans-serif" font-size="12" lengthAdjust="spacing" textLength="123.0586" x="1056.4702" y="1147.9531">estado = CANCELADA</text><rect fill="#FFFFFF" height="35.0938" rx="12.5" ry="12.5" style="stroke:#1168BD;stroke-width:1.2;" width="137.4102" x="1049.2944" y="1195.5938"/><text fill="#1A1A1A" font-family="sans-serif" font-size="12" lengthAdjust="spacing" textLength="117.4102" x="1059.2944" y="1218.0469">Liberar bloqueo (hold)</text><line style="stroke:#9BB7D4;stroke-width:1.5;" x1="738.8901" x2="738.8901" y1="50.2031" y2="1466.875"/><rect fill="#FFFFFF" height="1416.6719" style="stroke:#FFFFFF;stroke-width:1;" width="446.6934" x="1193.5288" y="50.2031"/><rect fill="#FFFFFF" height="35.0938" rx="12.5" ry="12.5" style="stroke:#1168BD;stroke-width:1.2;" width="232.127" x="1301.812" y="830.9375"/><text fill="#1A1A1A" font-family="sans-serif" font-size="12" lengthAdjust="spacing" textLength="212.127" x="1311.812" y="853.3906">Registrar intento de pago (idempotente)</text><rect fill="#FFFFFF" height="50.1875" rx="12.5" ry="12.5" style="stroke:#1168BD;stroke-width:1.2;" width="180.0898" x="1327.8306" y="886.0313"/><text fill="#1A1A1A" font-family="sans-serif" font-size="12" lengthAdjust="spacing" textLength="160.0898" x="1337.8306" y="908.4844">Procesar cobro en la pasarela</text><text fill="#1A1A1A" font-family="sans-serif" font-size="12" lengthAdjust="spacing" textLength="83.373" x="1337.8306" y="923.5781">(con reintentos)</text><polygon fill="#FFF3CD" points="1377.2002,956.2188,1458.5508,956.2188,1470.5508,968.2188,1458.5508,980.2188,1377.2002,980.2188,1365.2002,968.2188,1377.2002,956.2188" style="stroke:#E0A800;stroke-width:1.2;"/><text fill="#1A1A1A" font-family="sans-serif" font-size="11" lengthAdjust="spacing" textLength="81.3506" x="1377.2002" y="972.7266">Pago aprobado?</text><text fill="#1A1A1A" font-family="sans-serif" font-size="11" lengthAdjust="spacing" textLength="7.9438" x="1357.2563" y="965.7969">si</text><text fill="#1A1A1A" font-family="sans-serif" font-size="11" lengthAdjust="spacing" textLength="12.2354" x="1470.5508" y="965.7969">no</text><rect fill="#FFFFFF" height="35.0938" rx="12.5" ry="12.5" style="stroke:#1168BD;stroke-width:1.2;" width="158.7148" x="1215.894" y="1000.2188"/><text fill="#1A1A1A" font-family="sans-serif" font-size="12" lengthAdjust="spacing" textLength="138.7148" x="1225.894" y="1022.6719">Marcar pago APROBADO</text><rect fill="#FFFFFF" height="35.0938" rx="12.5" ry="12.5" style="stroke:#1168BD;stroke-width:1.2;" width="191.4453" x="1199.5288" y="1055.3125"/><text fill="#1A1A1A" font-family="sans-serif" font-size="12" lengthAdjust="spacing" textLength="171.4453" x="1209.5288" y="1077.7656">Publicar evento PagoProcesado</text><rect fill="#FFFFFF" height="35.0938" rx="12.5" ry="12.5" style="stroke:#1168BD;stroke-width:1.2;" width="166.0391" x="1457.48" y="1000.2188"/><text fill="#1A1A1A" font-family="sans-serif" font-size="12" lengthAdjust="spacing" textLength="146.0391" x="1467.48" y="1022.6719">Marcar pago RECHAZADO</text><rect fill="#FFFFFF" height="35.0938" rx="12.5" ry="12.5" style="stroke:#1168BD;stroke-width:1.2;" width="191.4453" x="1444.7769" y="1055.3125"/><text fill="#1A1A1A" font-family="sans-serif" font-size="12" lengthAdjust="spacing" textLength="171.4453" x="1454.7769" y="1077.7656">Publicar evento PagoProcesado</text><line style="stroke:#9BB7D4;stroke-width:1.5;" x1="1193.5288" x2="1193.5288" y1="50.2031" y2="1466.875"/><rect fill="#EAF2FB" height="1416.6719" style="stroke:#EAF2FB;stroke-width:1;" width="213.3984" x="1640.2222" y="50.2031"/><rect fill="#FFFFFF" height="35.0938" rx="12.5" ry="12.5" style="stroke:#1168BD;stroke-width:1.2;" width="203.3984" x="1646.2222" y="1320.6875"/><text fill="#1A1A1A" font-family="sans-serif" font-size="12" lengthAdjust="spacing" textLength="183.3984" x="1656.2222" y="1343.1406">Enviar comprobante (email / SMS)</text><line style="stroke:#9BB7D4;stroke-width:1.5;" x1="1640.2222" x2="1640.2222" y1="50.2031" y2="1466.875"/><line style="stroke:#9BB7D4;stroke-width:1.5;" x1="1853.6206" x2="1853.6206" y1="50.2031" y2="1466.875"/><line style="stroke:#1168BD;stroke-width:1.2;" x1="249.3311" x2="249.3311" y1="92.8125" y2="112.8125"/><polygon fill="#1168BD" points="245.3311,102.8125,249.3311,112.8125,253.3311,102.8125,249.3311,106.8125" style="stroke:#1168BD;stroke-width:1;"/><line style="stroke:#1168BD;stroke-width:1.2;" x1="140.2729" x2="140.2729" y1="432.4688" y2="452.4688"/><polygon fill="#1168BD" points="136.2729,442.4688,140.2729,452.4688,144.2729,442.4688,140.2729,446.4688" style="stroke:#1168BD;stroke-width:1;"/><line style="stroke:#1168BD;stroke-width:1.2;" x1="160.272" x2="140.2729" y1="375.375" y2="375.375"/><line style="stroke:#1168BD;stroke-width:1.2;" x1="140.2729" x2="140.2729" y1="375.375" y2="397.375"/><polygon fill="#1168BD" points="136.2729,387.375,140.2729,397.375,144.2729,387.375,140.2729,391.375" style="stroke:#1168BD;stroke-width:1;"/><line style="stroke:#1168BD;stroke-width:1.2;" x1="338.3901" x2="358.3892" y1="375.375" y2="375.375"/><line style="stroke:#1168BD;stroke-width:1.2;" x1="358.3892" x2="358.3892" y1="375.375" y2="397.375"/><polygon fill="#1168BD" points="354.3892,387.375,358.3892,397.375,362.3892,387.375,358.3892,391.375" style="stroke:#1168BD;stroke-width:1;"/><line style="stroke:#1168BD;stroke-width:1.2;" x1="358.3892" x2="358.3892" y1="432.4688" y2="479.4688"/><line style="stroke:#1168BD;stroke-width:1.2;" x1="358.3892" x2="995.3755" y1="479.4688" y2="479.4688"/><line style="stroke:#1168BD;stroke-width:1.2;" x1="995.3755" x2="995.3755" y1="479.4688" y2="494.4688"/><polygon fill="#1168BD" points="991.3755,484.4688,995.3755,494.4688,999.3755,484.4688,995.3755,488.4688" style="stroke:#1168BD;stroke-width:1;"/><line style="stroke:#1168BD;stroke-width:1.2;" x1="249.3311" x2="249.3311" y1="343.375" y2="363.375"/><polygon fill="#1168BD" points="245.3311,353.375,249.3311,363.375,253.3311,353.375,249.3311,357.375" style="stroke:#1168BD;stroke-width:1;"/><line style="stroke:#1168BD;stroke-width:1.2;" x1="128.2759" x2="128.2759" y1="698.75" y2="718.75"/><polygon fill="#1168BD" points="124.2759,708.75,128.2759,718.75,132.2759,708.75,128.2759,712.75" style="stroke:#1168BD;stroke-width:1;"/><line style="stroke:#1168BD;stroke-width:1.2;" x1="126.707" x2="126.707" y1="1412.875" y2="1432.875"/><polygon fill="#1168BD" points="122.707,1422.875,126.707,1432.875,130.707,1422.875,126.707,1426.875" style="stroke:#1168BD;stroke-width:1;"/><line style="stroke:#1168BD;stroke-width:1.2;" x1="371.9551" x2="371.9551" y1="1300.7813" y2="1335.7813"/><polygon fill="#1168BD" points="367.9551,1325.7813,371.9551,1335.7813,375.9551,1325.7813,371.9551,1329.7813" style="stroke:#1168BD;stroke-width:1;"/><line style="stroke:#1168BD;stroke-width:1.2;" x1="619.1665" x2="619.1665" y1="233.1875" y2="253.1875"/><polygon fill="#1168BD" points="615.1665,243.1875,619.1665,253.1875,623.1665,243.1875,619.1665,247.1875" style="stroke:#1168BD;stroke-width:1;"/><line style="stroke:#1168BD;stroke-width:1.2;" x1="935.6775" x2="874.3203" y1="561.5625" y2="561.5625"/><line style="stroke:#1168BD;stroke-width:1.2;" x1="874.3203" x2="874.3203" y1="561.5625" y2="593.5625"/><polygon fill="#1168BD" points="870.3203,583.5625,874.3203,593.5625,878.3203,583.5625,874.3203,587.5625" style="stroke:#1168BD;stroke-width:1;"/><line style="stroke:#1168BD;stroke-width:1.2;" x1="995.3755" x2="995.3755" y1="529.5625" y2="549.5625"/><polygon fill="#1168BD" points="991.3755,539.5625,995.3755,549.5625,999.3755,539.5625,995.3755,543.5625" style="stroke:#1168BD;stroke-width:1;"/><line style="stroke:#1168BD;stroke-width:1.2;" x1="872.7515" x2="872.7515" y1="1145.5" y2="1180.5"/><polygon fill="#1168BD" points="868.7515,1170.5,872.7515,1180.5,876.7515,1170.5,872.7515,1174.5" style="stroke:#1168BD;stroke-width:1;"/><line style="stroke:#1168BD;stroke-width:1.2;" x1="872.7515" x2="872.7515" y1="1215.5938" y2="1250.5938"/><polygon fill="#1168BD" points="868.7515,1240.5938,872.7515,1250.5938,876.7515,1240.5938,872.7515,1244.5938" style="stroke:#1168BD;stroke-width:1;"/><line style="stroke:#1168BD;stroke-width:1.2;" x1="1117.9995" x2="1117.9995" y1="1160.5938" y2="1195.5938"/><polygon fill="#1168BD" points="1113.9995,1185.5938,1117.9995,1195.5938,1121.9995,1185.5938,1117.9995,1189.5938" style="stroke:#1168BD;stroke-width:1;"/><line style="stroke:#1168BD;stroke-width:1.2;" x1="1417.8755" x2="1417.8755" y1="866.0313" y2="886.0313"/><polygon fill="#1168BD" points="1413.8755,876.0313,1417.8755,886.0313,1421.8755,876.0313,1417.8755,880.0313" style="stroke:#1168BD;stroke-width:1;"/><line style="stroke:#1168BD;stroke-width:1.2;" x1="1295.2515" x2="1295.2515" y1="1035.3125" y2="1055.3125"/><polygon fill="#1168BD" points="1291.2515,1045.3125,1295.2515,1055.3125,1299.2515,1045.3125,1295.2515,1049.3125" style="stroke:#1168BD;stroke-width:1;"/><line style="stroke:#1168BD;stroke-width:1.2;" x1="1540.4995" x2="1540.4995" y1="1035.3125" y2="1055.3125"/><polygon fill="#1168BD" points="1536.4995,1045.3125,1540.4995,1055.3125,1544.4995,1045.3125,1540.4995,1049.3125" style="stroke:#1168BD;stroke-width:1;"/><line style="stroke:#1168BD;stroke-width:1.2;" x1="1365.2002" x2="1295.2515" y1="968.2188" y2="968.2188"/><line style="stroke:#1168BD;stroke-width:1.2;" x1="1295.2515" x2="1295.2515" y1="968.2188" y2="1000.2188"/><polygon fill="#1168BD" points="1291.2515,990.2188,1295.2515,1000.2188,1299.2515,990.2188,1295.2515,994.2188" style="stroke:#1168BD;stroke-width:1;"/><line style="stroke:#1168BD;stroke-width:1.2;" x1="1470.5508" x2="1540.4995" y1="968.2188" y2="968.2188"/><line style="stroke:#1168BD;stroke-width:1.2;" x1="1540.4995" x2="1540.4995" y1="968.2188" y2="1000.2188"/><polygon fill="#1168BD" points="1536.4995,990.2188,1540.4995,1000.2188,1544.4995,990.2188,1540.4995,994.2188" style="stroke:#1168BD;stroke-width:1;"/><line style="stroke:#1168BD;stroke-width:1.2;" x1="1417.8755" x2="1417.8755" y1="936.2188" y2="956.2188"/><polygon fill="#1168BD" points="1413.8755,946.2188,1417.8755,956.2188,1421.8755,946.2188,1417.8755,950.2188" style="stroke:#1168BD;stroke-width:1;"/><line style="stroke:#1168BD;stroke-width:1.2;" x1="249.3311" x2="249.3311" y1="163" y2="168"/><line style="stroke:#1168BD;stroke-width:1.2;" x1="249.3311" x2="619.1665" y1="168" y2="168"/><line style="stroke:#1168BD;stroke-width:1.2;" x1="619.1665" x2="619.1665" y1="168" y2="183"/><polygon fill="#1168BD" points="615.1665,173,619.1665,183,623.1665,173,619.1665,177" style="stroke:#1168BD;stroke-width:1;"/><line style="stroke:#1168BD;stroke-width:1.2;" x1="619.1665" x2="619.1665" y1="288.2813" y2="293.2813"/><line style="stroke:#1168BD;stroke-width:1.2;" x1="619.1665" x2="249.3311" y1="293.2813" y2="293.2813"/><line style="stroke:#1168BD;stroke-width:1.2;" x1="249.3311" x2="249.3311" y1="293.2813" y2="308.2813"/><polygon fill="#1168BD" points="245.3311,298.2813,249.3311,308.2813,253.3311,298.2813,249.3311,302.2813" style="stroke:#1168BD;stroke-width:1;"/><line style="stroke:#1168BD;stroke-width:1.2;" x1="874.3203" x2="874.3203" y1="628.6563" y2="646.1563"/><line style="stroke:#1168BD;stroke-width:1.2;" x1="874.3203" x2="128.2759" y1="646.1563" y2="646.1563"/><line style="stroke:#1168BD;stroke-width:1.2;" x1="128.2759" x2="128.2759" y1="646.1563" y2="663.6563"/><polygon fill="#1168BD" points="124.2759,653.6563,128.2759,663.6563,132.2759,653.6563,128.2759,657.6563" style="stroke:#1168BD;stroke-width:1;"/><line style="stroke:#1168BD;stroke-width:1.2;" x1="1055.0735" x2="1067.0735" y1="561.5625" y2="561.5625"/><line style="stroke:#1168BD;stroke-width:1.2;" x1="1067.0735" x2="1067.0735" y1="561.5625" y2="579.5625"/><line style="stroke:#1168BD;stroke-width:1.2;" x1="1067.0735" x2="370.3862" y1="579.5625" y2="579.5625"/><line style="stroke:#1168BD;stroke-width:1.2;" x1="370.3862" x2="370.3862" y1="579.5625" y2="593.5625"/><polygon fill="#1168BD" points="366.3862,583.5625,370.3862,593.5625,374.3862,583.5625,370.3862,587.5625" style="stroke:#1168BD;stroke-width:1;"/><line style="stroke:#1168BD;stroke-width:1.2;" x1="370.3862" x2="370.3862" y1="643.75" y2="745.75"/><line style="stroke:#1168BD;stroke-width:1.2;" x1="370.3862" x2="249.3311" y1="745.75" y2="745.75"/><line style="stroke:#1168BD;stroke-width:1.2;" x1="249.3311" x2="249.3311" y1="745.75" y2="760.75"/><polygon fill="#1168BD" points="245.3311,750.75,249.3311,760.75,253.3311,750.75,249.3311,754.75" style="stroke:#1168BD;stroke-width:1;"/><line style="stroke:#1168BD;stroke-width:1.2;" x1="249.3311" x2="249.3311" y1="810.9375" y2="815.9375"/><line style="stroke:#1168BD;stroke-width:1.2;" x1="249.3311" x2="1417.8755" y1="815.9375" y2="815.9375"/><line style="stroke:#1168BD;stroke-width:1.2;" x1="1417.8755" x2="1417.8755" y1="815.9375" y2="830.9375"/><polygon fill="#1168BD" points="1413.8755,820.9375,1417.8755,830.9375,1421.8755,820.9375,1417.8755,824.9375" style="stroke:#1168BD;stroke-width:1;"/><line style="stroke:#1168BD;stroke-width:1.2;" x1="1295.2515" x2="1295.2515" y1="1090.4063" y2="1095.4063"/><line style="stroke:#1168BD;stroke-width:1.2;" x1="1295.2515" x2="872.7515" y1="1095.4063" y2="1095.4063"/><line style="stroke:#1168BD;stroke-width:1.2;" x1="872.7515" x2="872.7515" y1="1095.4063" y2="1110.4063"/><polygon fill="#1168BD" points="868.7515,1100.4063,872.7515,1110.4063,876.7515,1100.4063,872.7515,1104.4063" style="stroke:#1168BD;stroke-width:1;"/><line style="stroke:#1168BD;stroke-width:1.2;" x1="872.7515" x2="872.7515" y1="1285.6875" y2="1303.1875"/><line style="stroke:#1168BD;stroke-width:1.2;" x1="872.7515" x2="1747.9214" y1="1303.1875" y2="1303.1875"/><line style="stroke:#1168BD;stroke-width:1.2;" x1="1747.9214" x2="1747.9214" y1="1303.1875" y2="1320.6875"/><polygon fill="#1168BD" points="1743.9214,1310.6875,1747.9214,1320.6875,1751.9214,1310.6875,1747.9214,1314.6875" style="stroke:#1168BD;stroke-width:1;"/><line style="stroke:#1168BD;stroke-width:1.2;" x1="1747.9214" x2="1747.9214" y1="1355.7813" y2="1362.7813"/><line style="stroke:#1168BD;stroke-width:1.2;" x1="1747.9214" x2="126.707" y1="1362.7813" y2="1362.7813"/><line style="stroke:#1168BD;stroke-width:1.2;" x1="126.707" x2="126.707" y1="1362.7813" y2="1377.7813"/><polygon fill="#1168BD" points="122.707,1367.7813,126.707,1377.7813,130.707,1367.7813,126.707,1371.7813" style="stroke:#1168BD;stroke-width:1;"/><line style="stroke:#1168BD;stroke-width:1.2;" x1="1540.4995" x2="1540.4995" y1="1090.4063" y2="1095.4063"/><line style="stroke:#1168BD;stroke-width:1.2;" x1="1540.4995" x2="1117.9995" y1="1095.4063" y2="1095.4063"/><line style="stroke:#1168BD;stroke-width:1.2;" x1="1117.9995" x2="1117.9995" y1="1095.4063" y2="1110.4063"/><polygon fill="#1168BD" points="1113.9995,1100.4063,1117.9995,1110.4063,1121.9995,1100.4063,1117.9995,1104.4063" style="stroke:#1168BD;stroke-width:1;"/><line style="stroke:#1168BD;stroke-width:1.2;" x1="1117.9995" x2="1117.9995" y1="1230.6875" y2="1248.1875"/><line style="stroke:#1168BD;stroke-width:1.2;" x1="1117.9995" x2="371.9551" y1="1248.1875" y2="1248.1875"/><line style="stroke:#1168BD;stroke-width:1.2;" x1="371.9551" x2="371.9551" y1="1248.1875" y2="1265.6875"/><polygon fill="#1168BD" points="367.9551,1255.6875,371.9551,1265.6875,375.9551,1255.6875,371.9551,1259.6875" style="stroke:#1168BD;stroke-width:1;"/><text fill="#003865" font-family="sans-serif" font-size="14" lengthAdjust="spacing" textLength="43.5791" x="234.4319" y="64.7344">Viajero</text><text fill="#003865" font-family="sans-serif" font-size="14" lengthAdjust="spacing" textLength="136.1992" x="550.0669" y="64.7344">Servicio de Busqueda</text><text fill="#003865" font-family="sans-serif" font-size="14" lengthAdjust="spacing" textLength="132.2754" x="900.0718" y="64.7344">Servicio de Reservas</text><text fill="#003865" font-family="sans-serif" font-size="14" lengthAdjust="spacing" textLength="140.8682" x="1346.4414" y="64.7344">Orquestador de Pagos</text><text fill="#003865" font-family="sans-serif" font-size="14" lengthAdjust="spacing" textLength="87.1514" x="1703.3457" y="64.7344">Notificaciones</text><g class="legend" data-source-line="87"><rect fill="none" height="45.2188" rx="7.5" ry="7.5" style="stroke:#000000;stroke-width:1;" width="511.8945" x="678.8354" y="1478.875"/><text fill="#000000" font-family="sans-serif" font-size="14" lengthAdjust="spacing" textLength="441.2461" x="683.8354" y="1498.4063">Camino alterno: si el viajero no paga antes de que expire el hold (TTL),</text><text fill="#000000" font-family="sans-serif" font-size="14" lengthAdjust="spacing" textLength="501.8945" x="683.8354" y="1516.0156">un proceso programado marca la reserva como EXPIRADA y libera el inventario.</text></g><!--SRC=[hLPDRnit4BtlhnWWXwnG9xQJD7Lb1CNgmua1MnOa8oYANAXTIfgOor59hbm7_l6TuUvAYYexXrGwQ4KEtxnvV3FII_Zm4w_a9VJ6y0fwbKUhlOUnerm-qzxuUjI1GXkOc-ehyHCuxRLRApvJHr4N9lMIxAuhRUXuIO6Fv6HXfHR4eICAAaUoNSZoW6iC3r2WMZXLnYX_ZwLHd1hIN3c7XfzMv43bWTpnJELtsXOTnlcfAlqTsfMId8AuS5JPea-6yxouYA-T2BzK1TsZNS1S6QztTje2BiY6vlHf9ky3CJroXNPjrEdxizxWoQZR9UPtKVtJrsyEHVsGSnivG5MIBGuTUDiVF7DWb-tm93ixENaw-DdodQFx9wkMpUTEJnipt68mUYVmvEJjsVjVdmkSuZSDf-yEX7nNsk-ztc-3TqaIv5phOZ7lI2-8NThQ_jKFZPqylXXc5sykUe-VKNtLZXuJ7vGBIVVIBhXHb8FSOT0EoGl8hF9_LxfGNsnA3XVQ7l6g3sZf2EOwNof_nC0-GldEkU3Nj_muPHuet1Ybrw0y9jq-MLyPJidjv5TaSOO62rN00_0YpfNdL1y7qqq57evXvMYjTS5Iy6giI4koxeXSgGn-OxG74C4iFz5Skw2ySDdKs9teDVhTJPn3EhIiIt04bLND3gX2vvKgr1yT24jj8RNKIG2wsKpPWWJ_66obMU9McdFUze5MYUQsWzHZZ9yonrm6o2OfK-HHiU3l6y7E4vuIED-vbLtLchlqJFypNyWSy_-gnc6cvLuNzKazx0NjbpAHUnFDqeQO_cU5ZclkI2bRqUfGHk6nnkf5JfRsm0zNttUQyPl16zqtCyHg4GHTyfnK1j8bcQBpXUT7uC457s0y70qkXwFRuLQLtVjhxbbSp0ufTL6B9D-_yzsDupmHCxfbpFi-0YpG1yS8Q8EsONCOKYo4aongCLNTNj88D6Dli72ii5oPqqRwGAfnka69dXVP9GyeDkgCCsyKR-IuLYvlk4Csdjpqii6D2DSTLpCJhrMl8oT1QV8NnCXy7OST8HgJdIFxVwjpeUTeaOSUsvZfRTlcV8T46zo_6LrSJgwpGGQ_WA4ywjl6xlDg4hSfnVJ2hNKj_rX6UuhVTSrkQDSODIoZ9a8drQL2m_qplPvsQe13NikR908cFRD5sFDQRUSdBdnFzScm_odxwt-HNTcSZR0HSiV1_MpK7rwneZ795Swq-ArrVctuf-lUz5WaxEec5JfjqNLJ6CrJk80PXK0bx_LLoTCObE6XRVclZKVWWR-k4qY_CbpjXpZGcKhTxrh2X1AajxTNdIE6ggnO9lwsyAVyrv6wIf5HUc3RpYN1yC_nvKJCym0c5YfmQ4LF7kFqMkZML9D_0G00]--></g></svg>