<svg xmlns="http://www.w3.org/2000/svg" xmlns:xlink="http://www.w3.org/1999/xlink" contentStyleType="text/css" data-diagram-type="SEQUENCE" height="1390px" preserveAspectRatio="none" style="width:1497px;height:1390px;background:#FFFFFF;" version="1.1" viewBox="0 0 1497 1390" width="1497px" zoomAndPan="magnify"><title>LLD - Servicio de Reservas (Node.js / ultimate-express)</title><defs/><g><text fill="#000000" font-family="sans-serif" font-size="14" font-weight="bold" lengthAdjust="spacing" textLength="367.2402" x="561.0242" y="29.6563">LLD - Servicio de Reservas (Node.js / ultimate-express)</text><rect fill="#EAF2FB" height="1339.875" style="stroke:#1168BD;stroke-width:0.5;" width="500.0444" x="503.7407" y="44.625"/><text fill="#003865" font-family="sans-serif" font-size="13" font-weight="bold" lengthAdjust="spacing" textLength="130.8062" x="688.3599" y="58.2344">Servicio de Reservas</text><g><title>Router de</title><rect fill="#D6E4F0" height="511.6094" style="stroke:#1168BD;stroke-width:1;" width="10" x="304.7329" y="197.9531"/></g><g><title>Servicio de</title><rect fill="#D6E4F0" height="481.25" style="stroke:#1168BD;stroke-width:1;" width="10" x="544.3682" y="228.3125"/></g><g><title>Servicio de</title><rect fill="#D6E4F0" height="420.5313" style="stroke:#1168BD;stroke-width:1;" width="10" x="544.3682" y="776.2813"/></g><g><title>Conector</title><rect fill="#D6E4F0" height="30.3594" style="stroke:#1168BD;stroke-width:1;" width="10" x="729.0771" y="421.3281"/></g><g><title>Repositorios</title><rect fill="#D6E4F0" height="91.0781" style="stroke:#1168BD;stroke-width:1;" width="10" x="854.8306" y="482.0469"/></g><g><title>Repositorios</title><rect fill="#D6E4F0" height="30.3594" style="stroke:#1168BD;stroke-width:1;" width="10" x="854.8306" y="892.7188"/></g><g><title>Repositorios</title><rect fill="#D6E4F0" height="30.3594" style="stroke:#1168BD;stroke-width:1;" width="10" x="854.8306" y="1060.375"/></g><rect fill="none" height="398.5313" style="stroke:#000000;stroke-width:1.5;" width="1356.813" x="10" y="304.0313"/><rect fill="none" height="398.5313" style="stroke:#000000;stroke-width:1.5;" width="982.5479" x="497.7407" y="791.2813"/><g><title>Viajero</title><rect fill="#000000" fill-opacity="0.00000" height="1182.6563" width="8" x="40.7896" y="121.2344"/><line style="stroke:#1168BD;stroke-width:0.5;stroke-dasharray:5,5;" x1="44" x2="44" y1="121.2344" y2="1303.8906"/></g><g><title>Router de</title><rect fill="#000000" fill-opacity="0.00000" height="1182.6563" width="8" x="305.7329" y="121.2344"/><line style="stroke:#1168BD;stroke-width:0.5;stroke-dasharray:5,5;" x1="308.9917" x2="308.9917" y1="121.2344" y2="1303.8906"/></g><g><title>Servicio de</title><rect fill="#000000" fill-opacity="0.00000" height="1182.6563" width="8" x="545.3682" y="121.2344"/><line style="stroke:#1168BD;stroke-width:0.5;stroke-dasharray:5,5;" x1="548.7407" x2="548.7407" y1="121.2344" y2="1303.8906"/></g><g><title>Conector</title><rect fill="#000000" fill-opacity="0.00000" height="1182.6563" width="8" x="730.0771" y="121.2344"/><line style="stroke:#1168BD;stroke-width:0.5;stroke-dasharray:5,5;" x1="733.6738" x2="733.6738" y1="121.2344" y2="1303.8906"/></g><g><title>Repositorios</title><rect fill="#000000" fill-opacity="0.00000" height="1182.6563" width="8" x="855.8306" y="121.2344"/><line style="stroke:#1168BD;stroke-width:0.5;stroke-dasharray:5,5;" x1="858.9238" x2="858.9238" y1="121.2344" y2="1303.8906"/></g><g><title>Publicador</title><rect fill="#000000" fill-opacity="0.00000" height="1182.6563" width="8" x="953.7612" y="121.2344"/><line style="stroke:#1168BD;stroke-width:0.5;stroke-dasharray:5,5;" x1="957.7373" x2="957.7373" y1="121.2344" y2="1303.8906"/></g><g><title>Cache</title><rect fill="#000000" fill-opacity="0.00000" height="1182.6563" width="8" x="1035.3438" y="121.2344"/><line style="stroke:#1168BD;stroke-width:0.5;stroke-dasharray:5,5;" x1="1038.7852" x2="1038.7852" y1="121.2344" y2="1303.8906"/></g><g><title>PostgreSQL</title><rect fill="#000000" fill-opacity="0.00000" height="1182.6563" width="8" x="1189.6206" y="121.2344"/><line style="stroke:#1168BD;stroke-width:0.5;stroke-dasharray:5,5;" x1="1193.4897" x2="1193.4897" y1="121.2344" y2="1303.8906"/></g><g><title>Bus de Eventos</title><rect fill="#000000" fill-opacity="0.00000" height="1182.6563" width="8" x="1296.7822" y="121.2344"/><line style="stroke:#1168BD;stroke-width:0.5;stroke-dasharray:5,5;" x1="1300.7515" x2="1300.7515" y1="121.2344" y2="1303.8906"/></g><g><title>GDS . Hoteles</title><rect fill="#000000" fill-opacity="0.00000" height="1182.6563" width="8" x="1414.5508" y="121.2344"/><line style="stroke:#1168BD;stroke-width:0.5;stroke-dasharray:5,5;" x1="1417.813" x2="1417.813" y1="121.2344" y2="1303.8906"/></g><g class="participant participant-head" data-participant="user"><text fill="#000000" font-family="sans-serif" font-size="14" lengthAdjust="spacing" textLength="43.5791" x="20" y="118.1563">Viajero</text><ellipse cx="44.7896" cy="52.125" fill="#003865" rx="8" ry="8" style="stroke:#003865;stroke-width:0.5;"/><path d="M44.7896,60.125 L44.7896,87.125 M31.7896,68.125 L57.7896,68.125 M44.7896,87.125 L31.7896,102.125 M44.7896,87.125 L57.7896,102.125" fill="none" style="stroke:#003865;stroke-width:0.5;"/></g><g class="participant participant-tail" data-participant="user"><text fill="#000000" font-family="sans-serif" font-size="14" lengthAdjust="spacing" textLength="43.5791" x="20" y="1317.4219">Viajero</text><ellipse cx="44.7896" cy="1329" fill="#003865" rx="8" ry="8" style="stroke:#003865;stroke-width:0.5;"/><path d="M44.7896,1337 L44.7896,1364 M31.7896,1345 L57.7896,1345 M44.7896,1364 L31.7896,1379 M44.7896,1364 L57.7896,1379" fill="none" style="stroke:#003865;stroke-width:0.5;"/></g><g class="participant participant-head" data-participant="router"><rect fill="#003865" height="49.2188" rx="2.5" ry="2.5" style="stroke:#003865;stroke-width:0.5;" width="75.4824" x="271.9917" y="71.0156"/><text fill="#FFFFFF" font-family="sans-serif" font-size="14" lengthAdjust="spacing" textLength="61.4824" x="278.9917" y="92.5469">Router de</text><text fill="#FFFFFF" font-family="sans-serif" font-size="14" lengthAdjust="spacing" textLength="59.1309" x="280.1675" y="110.1563">Reservas</text></g><g class="participant participant-tail" data-participant="router"><rect fill="#003865" height="49.2188" rx="2.5" ry="2.5" style="stroke:#003865;stroke-width:0.5;" width="75.4824" x="271.9917" y="1302.8906"/><text fill="#FFFFFF" font-family="sans-serif" font-size="14" lengthAdjust="spacing" textLength="61.4824" x="278.9917" y="1324.4219">Router de</text><text fill="#FFFFFF" font-family="sans-serif" font-size="14" lengthAdjust="spacing" textLength="59.1309" x="280.1675" y="1342.0313">Reservas</text></g><g class="participant participant-head" data-participant="svc"><rect fill="#003865" height="49.2188" rx="2.5" ry="2.5" style="stroke:#003865;stroke-width:0.5;" width="83.2549" x="507.7407" y="71.0156"/><text fill="#FFFFFF" font-family="sans-serif" font-size="14" lengthAdjust="spacing" textLength="69.2549" x="514.7407" y="92.5469">Servicio de</text><text fill="#FFFFFF" font-family="sans-serif" font-size="14" lengthAdjust="spacing" textLength="59.1309" x="519.8027" y="110.1563">Reservas</text></g><g class="participant participant-tail" data-participant="svc"><rect fill="#003865" height="49.2188" rx="2.5" ry="2.5" style="stroke:#003865;stroke-width:0.5;" width="83.2549" x="507.7407" y="1302.8906"/><text fill="#FFFFFF" font-family="sans-serif" font-size="14" lengthAdjust="spacing" textLength="69.2549" x="514.7407" y="1324.4219">Servicio de</text><text fill="#FFFFFF" font-family="sans-serif" font-size="14" lengthAdjust="spacing" textLength="59.1309" x="519.8027" y="1342.0313">Reservas</text></g><g class="participant participant-head" data-participant="cCache"><rect fill="#003865" height="49.2188" rx="2.5" ry="2.5" style="stroke:#003865;stroke-width:0.5;" width="70.8066" x="698.6738" y="71.0156"/><text fill="#FFFFFF" font-family="sans-serif" font-size="14" lengthAdjust="spacing" textLength="56.8066" x="705.6738" y="92.5469">Conector</text><text fill="#FFFFFF" font-family="sans-serif" font-size="14" lengthAdjust="spacing" textLength="40.4688" x="713.8428" y="110.1563">Cache</text></g><g class="participant participant-tail" data-participant="cCache"><rect fill="#003865" height="49.2188" rx="2.5" ry="2.5" style="stroke:#003865;stroke-width:0.5;" width="70.8066" x="698.6738" y="1302.8906"/><text fill="#FFFFFF" font-family="sans-serif" font-size="14" lengthAdjust="spacing" textLength="56.8066" x="705.6738" y="1324.4219">Conector</text><text fill="#FFFFFF" font-family="sans-serif" font-size="14" lengthAdjust="spacing" textLength="40.4688" x="713.8428" y="1342.0313">Cache</text></g><g class="participant participant-head" data-participant="repo"><rect fill="#003865" height="49.2188" rx="2.5" ry="2.5" style="stroke:#003865;stroke-width:0.5;" width="91.8135" x="813.9238" y="71.0156"/><text fill="#FFFFFF" font-family="sans-serif" font-size="14" lengthAdjust="spacing" textLength="77.8135" x="820.9238" y="92.5469">Repositorios</text><text fill="#FFFFFF" font-family="sans-serif" font-size="14" lengthAdjust="spacing" textLength="24.8965" x="847.3823" y="110.1563">(pg)</text></g><g class="participant participant-tail" data-participant="repo"><rect fill="#003865" height="49.2188" rx="2.5" ry="2.5" style="stroke:#003865;stroke-width:0.5;" width="91.8135" x="813.9238" y="1302.8906"/><text fill="#FFFFFF" font-family="sans-serif" font-size="14" lengthAdjust="spacing" textLength="77.8135" x="820.9238" y="1324.4219">Repositorios</text><text fill="#FFFFFF" font-family="sans-serif" font-size="14" lengthAdjust="spacing" textLength="24.8965" x="847.3823" y="1342.0313">(pg)</text></g><g class="participant participant-head" data-participant="pub"><rect fill="#003865" height="49.2188" rx="2.5" ry="2.5" style="stroke:#003865;stroke-width:0.5;" width="84.0479" x="915.7373" y="71.0156"/><text fill="#FFFFFF" font-family="sans-serif" font-size="14" lengthAdjust="spacing" textLength="66.1514" x="924.6855" y="92.5469">Publicador</text><text fill="#FFFFFF" font-family="sans-serif" font-size="14" lengthAdjust="spacing" textLength="70.0479" x="922.7373" y="110.1563">de Eventos</text></g><g class="participant participant-tail" data-participant="pub"><rect fill="#003865" height="49.2188" rx="2.5" ry="2.5" style="stroke:#003865;stroke-width:0.5;" width="84.0479" x="915.7373" y="1302.8906"/><text fill="#FFFFFF" font-family="sans-serif" font-size="14" lengthAdjust="spacing" textLength="66.1514" x="924.6855" y="1324.4219">Publicador</text><text fill="#FFFFFF" font-family="sans-serif" font-size="14" lengthAdjust="spacing" textLength="70.0479" x="922.7373" y="1342.0313">de Eventos</text></g><g class="participant participant-head" data-participant="redis"><rect fill="#003865" height="49.2188" rx="2.5" ry="2.5" style="stroke:#003865;stroke-width:0.5;" width="59.1172" x="1009.7852" y="71.0156"/><text fill="#FFFFFF" font-family="sans-serif" font-size="14" lengthAdjust="spacing" textLength="40.4688" x="1019.1094" y="92.5469">Cache</text><text fill="#FFFFFF" font-family="sans-serif" font-size="14" lengthAdjust="spacing" textLength="45.1172" x="1016.7852" y="110.1563">(Redis)</text></g><g class="participant participant-tail" data-participant="redis"><rect fill="#003865" height="49.2188" rx="2.5" ry="2.5" style="stroke:#003865;stroke-width:0.5;" width="59.1172" x="1009.7852" y="1302.8906"/><text fill="#FFFFFF" font-family="sans-serif" font-size="14" lengthAdjust="spacing" textLength="40.4688" x="1019.1094" y="1324.4219">Cache</text><text fill="#FFFFFF" font-family="sans-serif" font-size="14" lengthAdjust="spacing" textLength="45.1172" x="1016.7852" y="1342.0313">(Redis)</text></g><g class="participant participant-head" data-participant="db"><text fill="#000000" font-family="sans-serif" font-size="14" lengthAdjust="spacing" textLength="76.2617" x="1152.4897" y="118.1563">PostgreSQL</text><path d="M1175.6206,67.625 C1175.6206,57.625 1193.6206,57.625 1193.6206,57.625 C1193.6206,57.625 1211.6206,57.625 1211.6206,67.625 L1211.6206,93.625 C1211.6206,103.625 1193.6206,103.625 1193.6206,103.625 C1193.6206,103.625 1175.6206,103.625 1175.6206,93.625 L1175.6206,67.625" fill="#E2E2F0" style="stroke:#181818;stroke-width:0.5;"/><path d="M1175.6206,67.625 C1175.6206,77.625 1193.6206,77.625 1193.6206,77.625 C1193.6206,77.625 1211.6206,77.625 1211.6206,67.625" fill="none" style="stroke:#181818;stroke-width:0.5;"/></g><g class="participant participant-tail" data-participant="db"><text fill="#000000" font-family="sans-serif" font-size="14" lengthAdjust="spacing" textLength="76.2617" x="1152.4897" y="1317.4219">PostgreSQL</text><path d="M1175.6206,1330.5 C1175.6206,1320.5 1193.6206,1320.5 1193.6206,1320.5 C1193.6206,1320.5 1211.6206,1320.5 1211.6206,1330.5 L1211.6206,1356.5 C1211.6206,1366.5 1193.6206,1366.5 1193.6206,1366.5 C1193.6206,1366.5 1175.6206,1366.5 1175.6206,1356.5 L1175.6206,1330.5" fill="#E2E2F0" style="stroke:#181818;stroke-width:0.5;"/><path d="M1175.6206,1330.5 C1175.6206,1340.5 1193.6206,1340.5 1193.6206,1340.5 C1193.6206,1340.5 1211.6206,1340.5 1211.6206,1330.5" fill="none" style="stroke:#181818;stroke-width:0.5;"/></g><g class="participant participant-head" data-participant="bus"><rect fill="#003865" height="31.6094" rx="2.5" ry="2.5" style="stroke:#003865;stroke-width:0.5;" width="112.0615" x="1244.7515" y="88.625"/><text fill="#FFFFFF" font-family="sans-serif" font-size="14" lengthAdjust="spacing" textLength="98.0615" x="1251.7515" y="110.1563">Bus de Eventos</text></g><g class="participant participant-tail" data-participant="bus"><rect fill="#003865" height="31.6094" rx="2.5" ry="2.5" style="stroke:#003865;stroke-width:0.5;" width="112.0615" x="1244.7515" y="1302.8906"/><text fill="#FFFFFF" font-family="sans-serif" font-size="14" lengthAdjust="spacing" textLength="98.0615" x="1251.7515" y="1324.4219">Bus de Eventos</text></g><g class="participant participant-head" data-participant="ext"><rect fill="#003865" height="31.6094" rx="2.5" ry="2.5" style="stroke:#003865;stroke-width:0.5;" width="103.4756" x="1366.813" y="88.625"/><text fill="#FFFFFF" font-family="sans-serif" font-size="14" lengthAdjust="spacing" textLength="89.4756" x="1373.813" y="110.1563">GDS / Hoteles</text></g><g class="participant participant-tail" data-participant="ext"><rect fill="#003865" height="31.6094" rx="2.5" ry="2.5" style="stroke:#003865;stroke-width:0.5;" width="103.4756" x="1366.813" y="1302.8906"/><text fill="#FFFFFF" font-family="sans-serif" font-size="14" lengthAdjust="spacing" textLength="89.4756" x="1373.813" y="1324.4219">GDS / Hoteles</text></g><g><title>Router de</title><rect fill="#D6E4F0" height="511.6094" style="stroke:#1168BD;stroke-width:1;" width="10" x="304.7329" y="197.9531"/></g><g><title>Servicio de</title><rect fill="#D6E4F0" height="481.25" style="stroke:#1168BD;stroke-width:1;" width="10" x="544.3682" y="228.3125"/></g><g><title>Servicio de</title><rect fill="#D6E4F0" height="420.5313" style="stroke:#1168BD;stroke-width:1;" width="10" x="544.3682" y="776.2813"/></g><g><title>Conector</title><rect fill="#D6E4F0" height="30.3594" style="stroke:#1168BD;stroke-width:1;" width="10" x="729.0771" y="421.3281"/></g><g><title>Repositorios</title><rect fill="#D6E4F0" height="91.0781" style="stroke:#1168BD;stroke-width:1;" width="10" x="854.8306" y="482.0469"/></g><g><title>Repositorios</title><rect fill="#D6E4F0" height="30.3594" style="stroke:#1168BD;stroke-width:1;" width="10" x="854.8306" y="892.7188"/></g><g><title>Repositorios</title><rect fill="#D6E4F0" height="30.3594" style="stroke:#1168BD;stroke-width:1;" width="10" x="854.8306" y="1060.375"/></g><rect fill="#EEEEEE" height="3" style="stroke:#EEEEEE;stroke-width:1;" width="1490.2886" x="0" y="152.4141"/><line style="stroke:#000000;stroke-width:1;" x1="0" x2="1490.2886" y1="152.4141" y2="152.4141"/><line style="stroke:#000000;stroke-width:1;" x1="0" x2="1490.2886" y1="155.4141" y2="155.4141"/><rect fill="#EEEEEE" height="24.3594" style="stroke:#000000;stroke-width:2;" width="279.8462" x="605.2212" y="141.2344"/><text fill="#000000" font-family="sans-serif" font-size="13" font-weight="bold" lengthAdjust="spacing" textLength="262.2344" x="611.2212" y="158.8438">A. Creacion de reserva (bloqueo temporal)</text><g class="message" data-participant-1="user" data-participant-2="router"><polygon fill="#1168BD" points="292.7329,193.9531,302.7329,197.9531,292.7329,201.9531,296.7329,197.9531" style="stroke:#1168BD;stroke-width:1;"/><line style="stroke:#1168BD;stroke-width:1;" x1="44.7896" x2="298.7329" y1="197.9531" y2="197.9531"/><text fill="#333333" font-family="sans-serif" font-size="13" font-weight="bold" lengthAdjust="spacing" textLength="23.1182" x="51.7896" y="193.2031">[01]</text><text fill="#333333" font-family="sans-serif" font-size="13" lengthAdjust="spacing" textLength="203.7598" x="78.9077" y="193.0938">POST /bookings (oferta, pasajeros)</text></g><g class="message" data-participant-1="router" data-participant-2="svc"><polygon fill="#1168BD" points="532.3682,224.3125,542.3682,228.3125,532.3682,232.3125,536.3682,228.3125" style="stroke:#1168BD;stroke-width:1;"/><line style="stroke:#1168BD;stroke-width:1;" x1="314.7329" x2="538.3682" y1="228.3125" y2="228.3125"/><text fill="#333333" font-family="sans-serif" font-size="13" font-weight="bold" lengthAdjust="spacing" textLength="23.1182" x="321.7329" y="223.5625">[02]</text><text fill="#333333" font-family="sans-serif" font-size="13" lengthAdjust="spacing" textLength="183.5171" x="348.8511" y="223.4531">crearReserva(oferta, pasajeros)</text></g><g class="message" data-participant-1="svc" data-participant-2="ext"><polygon fill="#1168BD" points="1406.5508,254.6719,1416.5508,258.6719,1406.5508,262.6719,1410.5508,258.6719" style="stroke:#1168BD;stroke-width:1;"/><line style="stroke:#1168BD;stroke-width:1;" x1="554.3682" x2="1412.5508" y1="258.6719" y2="258.6719"/><text fill="#333333" font-family="sans-serif" font-size="13" font-weight="bold" lengthAdjust="spacing" textLength="23.1182" x="561.3682" y="253.9219">[03]</text><text fill="#333333" font-family="sans-serif" font-size="13" lengthAdjust="spacing" textLength="123.5698" x="588.4863" y="253.8125">verifica disponibilidad</text></g><g class="message" data-participant-1="ext" data-participant-2="svc"><polygon fill="#1168BD" points="565.3682,285.0313,555.3682,289.0313,565.3682,293.0313,561.3682,289.0313" style="stroke:#1168BD;stroke-width:1;"/><line style="stroke:#1168BD;stroke-width:1;stroke-dasharray:2,2;" x1="559.3682" x2="1417.5508" y1="289.0313" y2="289.0313"/><text fill="#333333" font-family="sans-serif" font-size="13" font-weight="bold" lengthAdjust="spacing" textLength="23.1182" x="571.3682" y="284.2813">[04]</text><text fill="#333333" font-family="sans-serif" font-size="13" lengthAdjust="spacing" textLength="96.8462" x="598.4863" y="284.1719">disponible? si/no</text></g><path d="M10,304.0313 L70.1709,304.0313 L70.1709,312.3906 L60.1709,322.3906 L10,322.3906 L10,304.0313" fill="#EEEEEE" style="stroke:#000000;stroke-width:1.5;"/><rect fill="none" height="398.5313" style="stroke:#000000;stroke-width:1.5;" width="1356.813" x="10" y="304.0313"/><text fill="#000000" font-family="sans-serif" font-size="13" font-weight="bold" lengthAdjust="spacing" textLength="15.1709" x="25" y="318.6406">alt</text><text fill="#000000" font-family="sans-serif" font-size="11" font-weight="bold" lengthAdjust="spacing" textLength="100.8262" x="85.1709" y="317.5469">[sin disponibilidad]</text><g class="message" data-participant-1="svc" data-participant-2="router"><polygon fill="#1168BD" points="325.7329,340.75,315.7329,344.75,325.7329,348.75,321.7329,344.75" style="stroke:#1168BD;stroke-width:1;"/><line style="stroke:#1168BD;stroke-width:1;stroke-dasharray:2,2;" x1="319.7329" x2="543.3682" y1="344.75" y2="344.75"/><text fill="#333333" font-family="sans-serif" font-size="13" font-weight="bold" lengthAdjust="spacing" textLength="23.1182" x="331.7329" y="340">[05]</text><text fill="#333333" font-family="sans-serif" font-size="13" lengthAdjust="spacing" textLength="167.6416" x="358.8511" y="339.8906">409 Conflict (oferta expirada)</text></g><g class="message" data-participant-1="router" data-participant-2="user"><polygon fill="#1168BD" points="55.7896,371.1094,45.7896,375.1094,55.7896,379.1094,51.7896,375.1094" style="stroke:#1168BD;stroke-width:1;"/><line style="stroke:#1168BD;stroke-width:1;stroke-dasharray:2,2;" x1="49.7896" x2="303.7329" y1="375.1094" y2="375.1094"/><text fill="#333333" font-family="sans-serif" font-size="13" font-weight="bold" lengthAdjust="spacing" textLength="23.1182" x="61.7896" y="370.3594">[06]</text><text fill="#333333" font-family="sans-serif" font-size="13" lengthAdjust="spacing" textLength="68.6499" x="88.9077" y="370.25">409 Conflict</text></g><line style="stroke:#000000;stroke-width:1;stroke-dasharray:2,2;" x1="10" x2="1366.813" y1="384.1094" y2="384.1094"/><text fill="#000000" font-family="sans-serif" font-size="11" font-weight="bold" lengthAdjust="spacing" textLength="62.3262" x="15" y="395.625">[disponible]</text><g class="message" data-participant-1="svc" data-participant-2="cCache"><polygon fill="#1168BD" points="717.0771,417.3281,727.0771,421.3281,717.0771,425.3281,721.0771,421.3281" style="stroke:#1168BD;stroke-width:1;"/><line style="stroke:#1168BD;stroke-width:1;" x1="554.3682" x2="723.0771" y1="421.3281" y2="421.3281"/><text fill="#333333" font-family="sans-serif" font-size="13" font-weight="bold" lengthAdjust="spacing" textLength="23.1182" x="561.3682" y="416.5781">[07]</text><text fill="#333333" font-family="sans-serif" font-size="13" lengthAdjust="spacing" textLength="128.5908" x="588.4863" y="416.4688">crearHold(oferta, TTL)</text></g><g class="message" data-participant-1="cCache" data-participant-2="redis"><polygon fill="#1168BD" points="1027.3438,447.6875,1037.3438,451.6875,1027.3438,455.6875,1031.3438,451.6875" style="stroke:#1168BD;stroke-width:1;"/><line style="stroke:#1168BD;stroke-width:1;" x1="734.0771" x2="1033.3438" y1="451.6875" y2="451.6875"/><text fill="#333333" font-family="sans-serif" font-size="13" font-weight="bold" lengthAdjust="spacing" textLength="23.1182" x="741.0771" y="446.9375">[08]</text><text fill="#333333" font-family="sans-serif" font-size="13" lengthAdjust="spacing" textLength="119.9517" x="768.1953" y="446.8281">SETEX hold:{id} TTL</text></g><g class="message" data-participant-1="svc" data-participant-2="repo"><polygon fill="#1168BD" points="842.8306,478.0469,852.8306,482.0469,842.8306,486.0469,846.8306,482.0469" style="stroke:#1168BD;stroke-width:1;"/><line style="stroke:#1168BD;stroke-width:1;" x1="554.3682" x2="848.8306" y1="482.0469" y2="482.0469"/><text fill="#333333" font-family="sans-serif" font-size="13" font-weight="bold" lengthAdjust="spacing" textLength="23.1182" x="561.3682" y="477.2969">[09]</text><text fill="#333333" font-family="sans-serif" font-size="13" lengthAdjust="spacing" textLength="212.0435" x="588.4863" y="477.1875">insert reserva (estado=PENDIENTE)</text></g><g class="message" data-participant-1="repo" data-participant-2="db"><polygon fill="#1168BD" points="1181.6206,508.4063,1191.6206,512.4063,1181.6206,516.4063,1185.6206,512.4063" style="stroke:#1168BD;stroke-width:1;"/><line style="stroke:#1168BD;stroke-width:1;" x1="864.8306" x2="1187.6206" y1="512.4063" y2="512.4063"/><text fill="#333333" font-family="sans-serif" font-size="13" font-weight="bold" lengthAdjust="spacing" textLength="23.1182" x="871.8306" y="507.6563">[10]</text><text fill="#333333" font-family="sans-serif" font-size="13" lengthAdjust="spacing" textLength="150.2427" x="898.9487" y="507.5469">INSERT INTO reservas ...</text></g><g class="message" data-participant-1="db" data-participant-2="repo"><polygon fill="#1168BD" points="875.8306,538.7656,865.8306,542.7656,875.8306,546.7656,871.8306,542.7656" style="stroke:#1168BD;stroke-width:1;"/><line style="stroke:#1168BD;stroke-width:1;stroke-dasharray:2,2;" x1="869.8306" x2="1192.6206" y1="542.7656" y2="542.7656"/><text fill="#333333" font-family="sans-serif" font-size="13" font-weight="bold" lengthAdjust="spacing" textLength="23.1182" x="881.8306" y="538.0156">[11]</text><text fill="#333333" font-family="sans-serif" font-size="13" lengthAdjust="spacing" textLength="54.1899" x="908.9487" y="537.9063">reservaId</text></g><g class="message" data-participant-1="repo" data-participant-2="svc"><polygon fill="#1168BD" points="565.3682,569.125,555.3682,573.125,565.3682,577.125,561.3682,573.125" style="stroke:#1168BD;stroke-width:1;"/><line style="stroke:#1168BD;stroke-width:1;stroke-dasharray:2,2;" x1="559.3682" x2="858.8306" y1="573.125" y2="573.125"/><text fill="#333333" font-family="sans-serif" font-size="13" font-weight="bold" lengthAdjust="spacing" textLength="23.1182" x="571.3682" y="568.375">[12]</text><text fill="#333333" font-family="sans-serif" font-size="13" lengthAdjust="spacing" textLength="54.1899" x="598.4863" y="568.2656">reservaId</text></g><g class="message" data-participant-1="svc" data-participant-2="pub"><polygon fill="#1168BD" points="945.7612,599.4844,955.7612,603.4844,945.7612,607.4844,949.7612,603.4844" style="stroke:#1168BD;stroke-width:1;"/><line style="stroke:#1168BD;stroke-width:1;" x1="554.3682" x2="951.7612" y1="603.4844" y2="603.4844"/><text fill="#333333" font-family="sans-serif" font-size="13" font-weight="bold" lengthAdjust="spacing" textLength="23.1182" x="561.3682" y="598.7344">[13]</text><text fill="#333333" font-family="sans-serif" font-size="13" lengthAdjust="spacing" textLength="153.8926" x="588.4863" y="598.625">ReservaCreada(reservaId)</text></g><g class="message" data-participant-1="pub" data-participant-2="bus"><polygon fill="#1168BD" points="1288.7822,629.8438,1298.7822,633.8438,1288.7822,637.8438,1292.7822,633.8438" style="stroke:#1168BD;stroke-width:1;"/><line style="stroke:#1168BD;stroke-width:1;" x1="957.7612" x2="1294.7822" y1="633.8438" y2="633.8438"/><text fill="#333333" font-family="sans-serif" font-size="13" font-weight="bold" lengthAdjust="spacing" textLength="23.1182" x="964.7612" y="629.0938">[14]</text><text fill="#333333" font-family="sans-serif" font-size="13" lengthAdjust="spacing" textLength="135.8525" x="991.8794" y="628.9844">publish ReservaCreada</text></g><g class="message" data-participant-1="svc" data-participant-2="router"><polygon fill="#1168BD" points="325.7329,660.2031,315.7329,664.2031,325.7329,668.2031,321.7329,664.2031" style="stroke:#1168BD;stroke-width:1;"/><line style="stroke:#1168BD;stroke-width:1;stroke-dasharray:2,2;" x1="319.7329" x2="543.3682" y1="664.2031" y2="664.2031"/><text fill="#333333" font-family="sans-serif" font-size="13" font-weight="bold" lengthAdjust="spacing" textLength="23.1182" x="331.7329" y="659.4531">[15]</text><text fill="#333333" font-family="sans-serif" font-size="13" lengthAdjust="spacing" textLength="93.5835" x="358.8511" y="659.3438">reservaId + hold</text></g><g class="message" data-participant-1="router" data-participant-2="user"><polygon fill="#1168BD" points="55.7896,690.5625,45.7896,694.5625,55.7896,698.5625,51.7896,694.5625" style="stroke:#1168BD;stroke-width:1;"/><line style="stroke:#1168BD;stroke-width:1;stroke-dasharray:2,2;" x1="49.7896" x2="303.7329" y1="694.5625" y2="694.5625"/><text fill="#333333" font-family="sans-serif" font-size="13" font-weight="bold" lengthAdjust="spacing" textLength="23.1182" x="61.7896" y="689.8125">[16]</text><text fill="#333333" font-family="sans-serif" font-size="13" lengthAdjust="spacing" textLength="208.8252" x="88.9077" y="689.7031">201 Created (PENDIENTE de pago)</text></g><rect fill="#EEEEEE" height="3" style="stroke:#EEEEEE;stroke-width:1;" width="1490.2886" x="0" y="730.7422"/><line style="stroke:#000000;stroke-width:1;" x1="0" x2="1490.2886" y1="730.7422" y2="730.7422"/><line style="stroke:#000000;stroke-width:1;" x1="0" x2="1490.2886" y1="733.7422" y2="733.7422"/><rect fill="#EEEEEE" height="24.3594" style="stroke:#000000;stroke-width:2;" width="300.0381" x="595.1252" y="719.5625"/><text fill="#000000" font-family="sans-serif" font-size="13" font-weight="bold" lengthAdjust="spacing" textLength="282.4263" x="601.1252" y="737.1719">B. Confirmacion tras pago (evento asincrono)</text><g class="message" data-participant-1="bus" data-participant-2="svc"><polygon fill="#1168BD" points="565.3682,772.2813,555.3682,776.2813,565.3682,780.2813,561.3682,776.2813" style="stroke:#1168BD;stroke-width:1;"/><line style="stroke:#1168BD;stroke-width:1;" x1="559.3682" x2="1299.7822" y1="776.2813" y2="776.2813"/><text fill="#333333" font-family="sans-serif" font-size="13" font-weight="bold" lengthAdjust="spacing" textLength="23.1182" x="571.3682" y="771.5313">[17]</text><text fill="#333333" font-family="sans-serif" font-size="13" lengthAdjust="spacing" textLength="201.6143" x="598.4863" y="771.4219">PagoProcesado(reservaId, estado)</text></g><path d="M497.7407,791.2813 L557.9116,791.2813 L557.9116,799.6406 L547.9116,809.6406 L497.7407,809.6406 L497.7407,791.2813" fill="#EEEEEE" style="stroke:#000000;stroke-width:1.5;"/><rect fill="none" height="398.5313" style="stroke:#000000;stroke-width:1.5;" width="982.5479" x="497.7407" y="791.2813"/><text fill="#000000" font-family="sans-serif" font-size="13" font-weight="bold" lengthAdjust="spacing" textLength="15.1709" x="512.7407" y="805.8906">alt</text><text fill="#000000" font-family="sans-serif" font-size="11" font-weight="bold" lengthAdjust="spacing" textLength="100.8262" x="572.9116" y="804.7969">[pago APROBADO]</text><g class="message" data-participant-1="svc" data-participant-2="ext"><polygon fill="#1168BD" points="1406.5508,828,1416.5508,832,1406.5508,836,1410.5508,832" style="stroke:#1168BD;stroke-width:1;"/><line style="stroke:#1168BD;stroke-width:1;" x1="554.3682" x2="1412.5508" y1="832" y2="832"/><text fill="#333333" font-family="sans-serif" font-size="13" font-weight="bold" lengthAdjust="spacing" textLength="23.1182" x="561.3682" y="827.25">[18]</text><text fill="#333333" font-family="sans-serif" font-size="13" lengthAdjust="spacing" textLength="151.728" x="588.4863" y="827.1406">confirma reserva definitiva</text></g><g class="message" data-participant-1="ext" data-participant-2="svc"><polygon fill="#1168BD" points="565.3682,858.3594,555.3682,862.3594,565.3682,866.3594,561.3682,862.3594" style="stroke:#1168BD;stroke-width:1;"/><line style="stroke:#1168BD;stroke-width:1;stroke-dasharray:2,2;" x1="559.3682" x2="1417.5508" y1="862.3594" y2="862.3594"/><text fill="#333333" font-family="sans-serif" font-size="13" font-weight="bold" lengthAdjust="spacing" textLength="23.1182" x="571.3682" y="857.6094">[19]</text><text fill="#333333" font-family="sans-serif" font-size="13" lengthAdjust="spacing" textLength="119.228" x="598.4863" y="857.5">localizador / voucher</text></g><g class="message" data-participant-1="svc" data-participant-2="repo"><polygon fill="#1168BD" points="842.8306,888.7188,852.8306,892.7188,842.8306,896.7188,846.8306,892.7188" style="stroke:#1168BD;stroke-width:1;"/><line style="stroke:#1168BD;stroke-width:1;" x1="554.3682" x2="848.8306" y1="892.7188" y2="892.7188"/><text fill="#333333" font-family="sans-serif" font-size="13" font-weight="bold" lengthAdjust="spacing" textLength="23.1182" x="561.3682" y="887.9688">[20]</text><text fill="#333333" font-family="sans-serif" font-size="13" lengthAdjust="spacing" textLength="254.3442" x="588.4863" y="887.8594">update estado=CONFIRMADA + localizador</text></g><g class="message" data-participant-1="repo" data-participant-2="db"><polygon fill="#1168BD" points="1181.6206,919.0781,1191.6206,923.0781,1181.6206,927.0781,1185.6206,923.0781" style="stroke:#1168BD;stroke-width:1;"/><line style="stroke:#1168BD;stroke-width:1;" x1="859.8306" x2="1187.6206" y1="923.0781" y2="923.0781"/><text fill="#333333" font-family="sans-serif" font-size="13" font-weight="bold" lengthAdjust="spacing" textLength="23.1182" x="866.8306" y="918.3281">[21]</text><text fill="#333333" font-family="sans-serif" font-size="13" lengthAdjust="spacing" textLength="277.6719" x="893.9487" y="918.2188">UPDATE reservas SET estado='CONFIRMADA'</text></g><g class="message" data-participant-1="svc" data-participant-2="cCache"><polygon fill="#1168BD" points="722.0771,949.4375,732.0771,953.4375,722.0771,957.4375,726.0771,953.4375" style="stroke:#1168BD;stroke-width:1;"/><line style="stroke:#1168BD;stroke-width:1;" x1="554.3682" x2="728.0771" y1="953.4375" y2="953.4375"/><text fill="#333333" font-family="sans-serif" font-size="13" font-weight="bold" lengthAdjust="spacing" textLength="23.1182" x="561.3682" y="948.6875">[22]</text><text fill="#333333" font-family="sans-serif" font-size="13" lengthAdjust="spacing" textLength="59.9854" x="588.4863" y="948.5781">libera hold</text></g><g class="message" data-participant-1="svc" data-participant-2="pub"><polygon fill="#1168BD" points="945.7612,979.7969,955.7612,983.7969,945.7612,987.7969,949.7612,983.7969" style="stroke:#1168BD;stroke-width:1;"/><line style="stroke:#1168BD;stroke-width:1;" x1="554.3682" x2="951.7612" y1="983.7969" y2="983.7969"/><text fill="#333333" font-family="sans-serif" font-size="13" font-weight="bold" lengthAdjust="spacing" textLength="23.1182" x="561.3682" y="979.0469">[23]</text><text fill="#333333" font-family="sans-serif" font-size="13" lengthAdjust="spacing" textLength="178.4517" x="588.4863" y="978.9375">ReservaConfirmada(reservaId)</text></g><g class="message" data-participant-1="pub" data-participant-2="bus"><polygon fill="#1168BD" points="1288.7822,1010.1563,1298.7822,1014.1563,1288.7822,1018.1563,1292.7822,1014.1563" style="stroke:#1168BD;stroke-width:1;"/><line style="stroke:#1168BD;stroke-width:1;" x1="957.7612" x2="1294.7822" y1="1014.1563" y2="1014.1563"/><text fill="#333333" font-family="sans-serif" font-size="13" font-weight="bold" lengthAdjust="spacing" textLength="23.1182" x="964.7612" y="1009.4063">[24]</text><text fill="#333333" font-family="sans-serif" font-size="13" lengthAdjust="spacing" textLength="160.4116" x="991.8794" y="1009.2969">publish ReservaConfirmada</text></g><line style="stroke:#000000;stroke-width:1;stroke-dasharray:2,2;" x1="497.7407" x2="1480.2886" y1="1023.1563" y2="1023.1563"/><text fill="#000000" font-family="sans-serif" font-size="11" font-weight="bold" lengthAdjust="spacing" textLength="106.9331" x="502.7407" y="1034.6719">[pago RECHAZADO]</text><g class="message" data-participant-1="svc" data-participant-2="repo"><polygon fill="#1168BD" points="842.8306,1056.375,852.8306,1060.375,842.8306,1064.375,846.8306,1060.375" style="stroke:#1168BD;stroke-width:1;"/><line style="stroke:#1168BD;stroke-width:1;" x1="554.3682" x2="848.8306" y1="1060.375" y2="1060.375"/><text fill="#333333" font-family="sans-serif" font-size="13" font-weight="bold" lengthAdjust="spacing" textLength="23.1182" x="561.3682" y="1055.625">[25]</text><text fill="#333333" font-family="sans-serif" font-size="13" lengthAdjust="spacing" textLength="169.4634" x="588.4863" y="1055.5156">update estado=CANCELADA</text></g><g class="message" data-participant-1="repo" data-participant-2="db"><polygon fill="#1168BD" points="1181.6206,1086.7344,1191.6206,1090.7344,1181.6206,1094.7344,1185.6206,1090.7344" style="stroke:#1168BD;stroke-width:1;"/><line style="stroke:#1168BD;stroke-width:1;" x1="859.8306" x2="1187.6206" y1="1090.7344" y2="1090.7344"/><text fill="#333333" font-family="sans-serif" font-size="13" font-weight="bold" lengthAdjust="spacing" textLength="23.1182" x="866.8306" y="1085.9844">[26]</text><text fill="#333333" font-family="sans-serif" font-size="13" lengthAdjust="spacing" textLength="269.75" x="893.9487" y="1085.875">UPDATE reservas SET estado='CANCELADA'</text></g><g class="message" data-participant-1="svc" data-participant-2="cCache"><polygon fill="#1168BD" points="722.0771,1117.0938,732.0771,1121.0938,722.0771,1125.0938,726.0771,1121.0938" style="stroke:#1168BD;stroke-width:1;"/><line style="stroke:#1168BD;stroke-width:1;" x1="554.3682" x2="728.0771" y1="1121.0938" y2="1121.0938"/><text fill="#333333" font-family="sans-serif" font-size="13" font-weight="bold" lengthAdjust="spacing" textLength="23.1182" x="561.3682" y="1116.3438">[27]</text><text fill="#333333" font-family="sans-serif" font-size="13" lengthAdjust="spacing" textLength="59.9854" x="588.4863" y="1116.2344">libera hold</text></g><g class="message" data-participant-1="svc" data-participant-2="pub"><polygon fill="#1168BD" points="945.7612,1147.4531,955.7612,1151.4531,945.7612,1155.4531,949.7612,1151.4531" style="stroke:#1168BD;stroke-width:1;"/><line style="stroke:#1168BD;stroke-width:1;" x1="554.3682" x2="951.7612" y1="1151.4531" y2="1151.4531"/><text fill="#333333" font-family="sans-serif" font-size="13" font-weight="bold" lengthAdjust="spacing" textLength="23.1182" x="561.3682" y="1146.7031">[28]</text><text fill="#333333" font-family="sans-serif" font-size="13" lengthAdjust="spacing" textLength="173.4116" x="588.4863" y="1146.5938">ReservaCancelada(reservaId)</text></g><g class="message" data-participant-1="pub" data-participant-2="bus"><polygon fill="#1168BD" points="1288.7822,1177.8125,1298.7822,1181.8125,1288.7822,1185.8125,1292.7822,1181.8125" style="stroke:#1168BD;stroke-width:1;"/><line style="stroke:#1168BD;stroke-width:1;" x1="957.7612" x2="1294.7822" y1="1181.8125" y2="1181.8125"/><text fill="#333333" font-family="sans-serif" font-size="13" font-weight="bold" lengthAdjust="spacing" textLength="23.1182" x="964.7612" y="1177.0625">[29]</text><text fill="#333333" font-family="sans-serif" font-size="13" lengthAdjust="spacing" textLength="155.3716" x="991.8794" y="1176.9531">publish ReservaCancelada</text></g><rect fill="#EEEEEE" height="3" style="stroke:#EEEEEE;stroke-width:1;" width="1490.2886" x="0" y="1217.9922"/><line style="stroke:#000000;stroke-width:1;" x1="0" x2="1490.2886" y1="1217.9922" y2="1217.9922"/><line style="stroke:#000000;stroke-width:1;" x1="0" x2="1490.2886" y1="1220.9922" y2="1220.9922"/><rect fill="#EEEEEE" height="24.3594" style="stroke:#000000;stroke-width:2;" width="276.9136" x="606.6875" y="1206.8125"/><text fill="#000000" font-family="sans-serif" font-size="13" font-weight="bold" lengthAdjust="spacing" textLength="259.3018" x="612.6875" y="1224.4219">C. Expiracion del hold (sin pago a tiempo)</text><path d="M516,1246.1719 L516,1288.1719 L1072,1288.1719 L1072,1256.1719 L1062,1246.1719 L516,1246.1719" fill="#FFF3CD" style="stroke:#E0A800;stroke-width:0.5;"/><path d="M1062,1246.1719 L1062,1256.1719 L1072,1256.1719 L1062,1246.1719" fill="#FFF3CD" style="stroke:#E0A800;stroke-width:0.5;"/><text fill="#000000" font-family="sans-serif" font-size="13" lengthAdjust="spacing" textLength="278.2051" x="627.3792" y="1264.6719">Si el hold (TTL en Redis) expira sin pago, un job</text><text fill="#000000" font-family="sans-serif" font-size="13" lengthAdjust="spacing" textLength="324.4033" x="627.3792" y="1281.0313">marca la reserva como EXPIRADA y libera el inventario.</text><!--SRC=[hLRRRjj647tdLmpK1qkeBSjnOhX6xK8NgZQWogga5a7hFYp9bRmEjSikbuhJ8F_UiykBg8k31YvVB7DdpioSEJFB8xf-nUCTqMWqe1CQ2BRKRCKeuZJZOSPbA1WrU-n9qLYiUTo2QO-57xYChc2Xro8KobfFUOh_M8hpLsMIVX0oOSY10eHPQfN9gAzYfUcxeNjg5kaZYzH78PUqO77AwoVyRvixfyyUuUbghJuMA6Td5vUzmURrK4bJ79sxnnsDn8AFXEGzfIEkzrshyzqa1nV-ss77sKoODg0dOT9imNGwvvSNx_PCTf4EczNIBVXmbOH6wPU2v8TVWU-fvvVgn54jOk7pfSQqL6QV1AHrtX_iMjL3-9tkPQVZUKQOc1VYEoGdQevLnDjFAPrI5XknOeQVyET4ypHjUHwpfL7ZTy6Uk5ODWaC6Ho_P44QDgSeCrq1za2MiizJklUS5wfaQXu8ta6Tt-6ROSrHiOTRCTr3JTRXltbUIsrGVP9-5ZzmPXkxdlksK9oeLC1OgVP3DPDdAiyNhVUD95iGYn1W06fdxQowDoXD9ii33c1BAyxO9SO41FUMHI4jq_FGYPbZ0KWvSbPgbvhDVH-uu2hOHUbbAE-62BDss-NamGzDkqVcOvoRysQ1bcL4oMmNeIEF7uERFJkUlXkTTNrEtJNtD6KYL5bldf58pY1M6MP7XgqHf5hUmO3pRPJgvANf8LpIvdytfD50Acbj2Dch1jM77O2jrse1Q81QnXdxAnXU-G47F014YkYvw-LL_ssBF-i0LDS5rpRLOe0y45XCbHI1Y4R78iwSdLO3oCEO_KIfEfG8RiS5FkUjd- -m2r4jys_c18AG56cxA0X4_4Pf5hELyofBWvXZQTl8ujcGjYqsOcqAD9GktAeug2kRpKOvU4L2JRk5dyxGI0i3Cd_llwH48Lvz5zCMwEyk8x_hNurjvmrb8f6qspUUfWRYl9_vuSEUFv_vE8jLGE7V0H050xiOpVph7d_bzYPHIkztEqmXoLlDunV5TL4Ef-hLzMClVXQrdZrc3VQ4Tg-A8DIllF6Th0akC2ImJExRfuxR7uQvNCFIz8_M5Fh_fdBdnCJoYPaMN7QI4BLNBRWAlLe6LSBsWOXLY37jjfnUXL_ae6crt2J3G33Vkc6GXGwsaSfDe2weOcy1kebN8KtHjmy0nvNtScI4hVeVSdKplUzt1VPtIVB328fLA4H5V22aiY3FU7h1OXImM_zXrYDMpLXbKfW-eB4iYcqCXhlxzU7Wt_QKxw8BY6iH_aTflaq4ND5SgW_XBsACDxj510HsQlbXWCR9Dem_gg-3a6pLMUULhm14_zVkttJzsc3zCKdVSzqUevTMib43_CoaCdtlnjt9IEXqQ3piC_JRvRi4MjrBiag2cNTcEG4P6s7l9ZOBzoY65ko3VXSV5jy1CKEM8PKXSKdxp5ikRIhHZoYGzgG0-AwPncyGRtOTgfSX_FxcRMfr-AZa1i91sB1a-5zhklhTPUFy2]--></g></svg>