<svg xmlns="http://www.w3.org/2000/svg" xmlns:xlink="http://www.w3.org/1999/xlink" contentStyleType="text/css" data-diagram-type="CLASS" height="1268px" preserveAspectRatio="none" style="width:2395px;height:1268px;background:#FFFFFF;" version="1.1" viewBox="0 0 2395 1268" width="2395px" zoomAndPan="magnify"><title>Diagrama de Clases (C4 - Codigo) - Backend de Reservas</title><defs/><g><g class="title" data-source-line="27"><text fill="#000000" font-family="sans-serif" font-size="14" font-weight="bold" lengthAdjust="spacing" textLength="382.0195" x="999.7852" y="24.6563">Diagrama de Clases (C4 - Codigo) - Backend de Reservas</text></g><!--cluster Dominio--><g class="cluster" data-entity="Dominio" data-source-line="30" data-uid="ent0002" id="cluster_Dominio"><path d="M1867.09,398.625 L1924.0832,398.625 A3.75,3.75 0 0 1 1926.5832,401.125 L1933.5832,422.25 L2386.09,422.25 A2.5,2.5 0 0 1 2388.59,424.75 L2388.59,1259.125 A2.5,2.5 0 0 1 2386.09,1261.625 L1867.09,1261.625 A2.5,2.5 0 0 1 1864.59,1259.125 L1864.59,401.125 A2.5,2.5 0 0 1 1867.09,398.625" fill="#F4F8FD" style="stroke:#9BB7D4;stroke-width:1.5;"/><line style="stroke:#9BB7D4;stroke-width:1.5;" x1="1864.59" x2="1933.5832" y1="422.25" y2="422.25"/><text fill="#003865" font-family="sans-serif" font-size="14" font-weight="bold" lengthAdjust="spacing" textLength="55.9932" x="1868.59" y="415.2813">Dominio</text></g><!--cluster API (ultimate-express)--><g class="cluster" data-entity="API .ultimate-express." data-source-line="105" data-uid="ent0018" id="cluster_API .ultimate-express."><path d="M170.09,44.625 L318.9103,44.625 A3.75,3.75 0 0 1 321.4103,47.125 L328.4103,68.25 L1183.09,68.25 A2.5,2.5 0 0 1 1185.59,70.75 L1185.59,195.125 A2.5,2.5 0 0 1 1183.09,197.625 L170.09,197.625 A2.5,2.5 0 0 1 167.59,195.125 L167.59,47.125 A2.5,2.5 0 0 1 170.09,44.625" fill="#F4F8FD" style="stroke:#9BB7D4;stroke-width:1.5;"/><line style="stroke:#9BB7D4;stroke-width:1.5;" x1="167.59" x2="328.4103" y1="68.25" y2="68.25"/><text fill="#003865" font-family="sans-serif" font-size="14" font-weight="bold" lengthAdjust="spacing" textLength="147.8203" x="171.59" y="61.2813">API (ultimate-express)</text></g><!--cluster Aplicacion--><g class="cluster" data-entity="Aplicacion" data-source-line="124" data-uid="ent0023" id="cluster_Aplicacion"><path d="M390.09,221.625 L461.883,221.625 A3.75,3.75 0 0 1 464.383,224.125 L471.383,245.25 L1233.09,245.25 A2.5,2.5 0 0 1 1235.59,247.75 L1235.59,372.125 A2.5,2.5 0 0 1 1233.09,374.625 L390.09,374.625 A2.5,2.5 0 0 1 387.59,372.125 L387.59,224.125 A2.5,2.5 0 0 1 390.09,221.625" fill="#F4F8FD" style="stroke:#9BB7D4;stroke-width:1.5;"/><line style="stroke:#9BB7D4;stroke-width:1.5;" x1="387.59" x2="471.383" y1="245.25" y2="245.25"/><text fill="#003865" font-family="sans-serif" font-size="14" font-weight="bold" lengthAdjust="spacing" textLength="70.793" x="391.59" y="238.2813">Aplicacion</text></g><!--cluster Persistencia (pg)--><g class="cluster" data-entity="Persistencia .pg." data-source-line="144" data-uid="ent0030" id="cluster_Persistencia .pg."><path d="M1330.09,451.125 L1443.9035,451.125 A3.75,3.75 0 0 1 1446.4035,453.625 L1453.4035,474.75 L1838.09,474.75 A2.5,2.5 0 0 1 1840.59,477.25 L1840.59,601.625 A2.5,2.5 0 0 1 1838.09,604.125 L1330.09,604.125 A2.5,2.5 0 0 1 1327.59,601.625 L1327.59,453.625 A2.5,2.5 0 0 1 1330.09,451.125" fill="#F4F8FD" style="stroke:#9BB7D4;stroke-width:1.5;"/><line style="stroke:#9BB7D4;stroke-width:1.5;" x1="1327.59" x2="1453.4035" y1="474.75" y2="474.75"/><text fill="#003865" font-family="sans-serif" font-size="14" font-weight="bold" lengthAdjust="spacing" textLength="112.8135" x="1331.59" y="467.7813">Persistencia (pg)</text></g><!--cluster Conectores--><g class="cluster" data-entity="Conectores" data-source-line="158" data-uid="ent0033" id="cluster_Conectores"><path d="M79.09,442.625 L157.1105,442.625 A3.75,3.75 0 0 1 159.6105,445.125 L166.6105,466.25 L1251.09,466.25 A2.5,2.5 0 0 1 1253.59,468.75 L1253.59,610.125 A2.5,2.5 0 0 1 1251.09,612.625 L79.09,612.625 A2.5,2.5 0 0 1 76.59,610.125 L76.59,445.125 A2.5,2.5 0 0 1 79.09,442.625" fill="#F4F8FD" style="stroke:#9BB7D4;stroke-width:1.5;"/><line style="stroke:#9BB7D4;stroke-width:1.5;" x1="76.59" x2="166.6105" y1="466.25" y2="466.25"/><text fill="#003865" font-family="sans-serif" font-size="14" font-weight="bold" lengthAdjust="spacing" textLength="77.0205" x="80.59" y="459.2813">Conectores</text></g><!--class EstadoReserva--><g class="entity" data-entity="EstadoReserva" data-source-line="31" data-uid="ent0003" id="entity_EstadoReserva"><rect fill="#FFFFFF" height="118.4375" rx="2.5" ry="2.5" style="stroke:#1168BD;stroke-width:0.5;" width="127.7168" x="2077.59" y="975.625"/><ellipse cx="2092.59" cy="991.625" fill="#EB937F" rx="11" ry="11" style="stroke:#181818;stroke-width:1;"/><path d="M2090.4494,992.4219 L2090.4494,994.9219 L2094.7775,994.9219 L2094.7775,994 Q2094.7775,993.3906 2095.0197,993.125 Q2095.2619,992.8594 2095.6369,992.8594 Q2096.0119,992.8594 2096.2463,993.125 Q2096.4806,993.3906 2096.4806,994 L2096.4806,996.625 L2088.4806,996.625 Q2087.8556,996.625 2087.5978,996.3906 Q2087.34,996.1563 2087.34,995.7656 Q2087.34,995.3906 2087.6056,995.1563 Q2087.8713,994.9219 2088.4806,994.9219 L2088.7463,994.9219 L2088.7463,988.2656 L2088.4806,988.2656 Q2087.8556,988.2656 2087.5978,988.0313 Q2087.34,987.7969 2087.34,987.4063 Q2087.34,987.0313 2087.5978,986.7969 Q2087.8556,986.5625 2088.4806,986.5625 L2096.1056,986.5625 L2096.1056,989.1563 Q2096.1056,989.7656 2095.8791,990.0234 Q2095.6525,990.2813 2095.2619,990.2813 Q2094.8869,990.2813 2094.6525,990.0234 Q2094.4181,989.7656 2094.4181,989.1563 L2094.4181,988.2656 L2090.4494,988.2656 L2090.4494,990.7188 L2091.9338,990.7188 Q2091.9338,990.0625 2092.0588,989.875 Q2092.3244,989.4688 2092.7931,989.4688 Q2093.1681,989.4688 2093.4025,989.7266 Q2093.6369,989.9844 2093.6369,990.5938 L2093.6369,992.5625 Q2093.6369,993.1094 2093.5119,993.2969 Q2093.2463,993.6875 2092.7931,993.6875 Q2092.3244,993.6875 2092.0588,993.2813 Q2091.9338,993.0938 2091.9338,992.4219 L2090.4494,992.4219 Z " fill="#000000"/><text fill="#1A1A1A" font-family="sans-serif" font-size="14" lengthAdjust="spacing" textLength="95.7168" x="2106.59" y="997.3516">EstadoReserva</text><line style="stroke:#1168BD;stroke-width:0.5;" x1="2078.59" x2="2204.3068" y1="1007.625" y2="1007.625"/><text fill="#1A1A1A" font-family="sans-serif" font-size="14" lengthAdjust="spacing" textLength="80.124" x="2083.59" y="1026.1563">PENDIENTE</text><text fill="#1A1A1A" font-family="sans-serif" font-size="14" lengthAdjust="spacing" textLength="94.1104" x="2083.59" y="1043.7656">CONFIRMADA</text><text fill="#1A1A1A" font-family="sans-serif" font-size="14" lengthAdjust="spacing" textLength="85.5791" x="2083.59" y="1061.375">CANCELADA</text><text fill="#1A1A1A" font-family="sans-serif" font-size="14" lengthAdjust="spacing" textLength="70.7998" x="2083.59" y="1078.9844">EXPIRADA</text><line style="stroke:#1168BD;stroke-width:0.5;" x1="2078.59" x2="2204.3068" y1="1086.0625" y2="1086.0625"/></g><!--class EstadoPago--><g class="entity" data-entity="EstadoPago" data-source-line="37" data-uid="ent0004" id="entity_EstadoPago"><rect fill="#FFFFFF" height="118.4375" rx="2.5" ry="2.5" style="stroke:#1168BD;stroke-width:0.5;" width="120.1377" x="2145.59" y="744.625"/><ellipse cx="2165.925" cy="760.625" fill="#EB937F" rx="11" ry="11" style="stroke:#181818;stroke-width:1;"/><path d="M2163.7843,761.4219 L2163.7843,763.9219 L2168.1125,763.9219 L2168.1125,763 Q2168.1125,762.3906 2168.3546,762.125 Q2168.5968,761.8594 2168.9718,761.8594 Q2169.3468,761.8594 2169.5812,762.125 Q2169.8156,762.3906 2169.8156,763 L2169.8156,765.625 L2161.8156,765.625 Q2161.1906,765.625 2160.9328,765.3906 Q2160.675,765.1563 2160.675,764.7656 Q2160.675,764.3906 2160.9406,764.1563 Q2161.2062,763.9219 2161.8156,763.9219 L2162.0812,763.9219 L2162.0812,757.2656 L2161.8156,757.2656 Q2161.1906,757.2656 2160.9328,757.0313 Q2160.675,756.7969 2160.675,756.4063 Q2160.675,756.0313 2160.9328,755.7969 Q2161.1906,755.5625 2161.8156,755.5625 L2169.4406,755.5625 L2169.4406,758.1563 Q2169.4406,758.7656 2169.214,759.0234 Q2168.9875,759.2813 2168.5968,759.2813 Q2168.2218,759.2813 2167.9875,759.0234 Q2167.7531,758.7656 2167.7531,758.1563 L2167.7531,757.2656 L2163.7843,757.2656 L2163.7843,759.7188 L2165.2687,759.7188 Q2165.2687,759.0625 2165.3937,758.875 Q2165.6593,758.4688 2166.1281,758.4688 Q2166.5031,758.4688 2166.7375,758.7266 Q2166.9718,758.9844 2166.9718,759.5938 L2166.9718,761.5625 Q2166.9718,762.1094 2166.8468,762.2969 Q2166.5812,762.6875 2166.1281,762.6875 Q2165.6593,762.6875 2165.3937,762.2813 Q2165.2687,762.0938 2165.2687,761.4219 L2163.7843,761.4219 Z " fill="#000000"/><text fill="#1A1A1A" font-family="sans-serif" font-size="14" lengthAdjust="spacing" textLength="76.2822" x="2181.1105" y="766.3516">EstadoPago</text><line style="stroke:#1168BD;stroke-width:0.5;" x1="2146.59" x2="2264.7277" y1="776.625" y2="776.625"/><text fill="#1A1A1A" font-family="sans-serif" font-size="14" lengthAdjust="spacing" textLength="80.124" x="2151.59" y="795.1563">PENDIENTE</text><text fill="#1A1A1A" font-family="sans-serif" font-size="14" lengthAdjust="spacing" textLength="79.3516" x="2151.59" y="812.7656">APROBADO</text><text fill="#1A1A1A" font-family="sans-serif" font-size="14" lengthAdjust="spacing" textLength="87.8965" x="2151.59" y="830.375">RECHAZADO</text><text fill="#1A1A1A" font-family="sans-serif" font-size="14" lengthAdjust="spacing" textLength="108.1377" x="2151.59" y="847.9844">REEMBOLSADO</text><line style="stroke:#1168BD;stroke-width:0.5;" x1="2146.59" x2="2264.7277" y1="855.0625" y2="855.0625"/></g><!--class TipoOferta--><g class="entity" data-entity="TipoOferta" data-source-line="43" data-uid="ent0005" id="entity_TipoOferta"><rect fill="#FFFFFF" height="83.2188" rx="2.5" ry="2.5" style="stroke:#1168BD;stroke-width:0.5;" width="98.1377" x="1912.59" y="1162.625"/><ellipse cx="1927.59" cy="1178.625" fill="#EB937F" rx="11" ry="11" style="stroke:#181818;stroke-width:1;"/><path d="M1925.4494,1179.4219 L1925.4494,1181.9219 L1929.7775,1181.9219 L1929.7775,1181 Q1929.7775,1180.3906 1930.0197,1180.125 Q1930.2619,1179.8594 1930.6369,1179.8594 Q1931.0119,1179.8594 1931.2463,1180.125 Q1931.4806,1180.3906 1931.4806,1181 L1931.4806,1183.625 L1923.4806,1183.625 Q1922.8556,1183.625 1922.5978,1183.3906 Q1922.34,1183.1563 1922.34,1182.7656 Q1922.34,1182.3906 1922.6056,1182.1563 Q1922.8713,1181.9219 1923.4806,1181.9219 L1923.7463,1181.9219 L1923.7463,1175.2656 L1923.4806,1175.2656 Q1922.8556,1175.2656 1922.5978,1175.0313 Q1922.34,1174.7969 1922.34,1174.4063 Q1922.34,1174.0313 1922.5978,1173.7969 Q1922.8556,1173.5625 1923.4806,1173.5625 L1931.1056,1173.5625 L1931.1056,1176.1563 Q1931.1056,1176.7656 1930.8791,1177.0234 Q1930.6525,1177.2813 1930.2619,1177.2813 Q1929.8869,1177.2813 1929.6525,1177.0234 Q1929.4181,1176.7656 1929.4181,1176.1563 L1929.4181,1175.2656 L1925.4494,1175.2656 L1925.4494,1177.7188 L1926.9338,1177.7188 Q1926.9338,1177.0625 1927.0588,1176.875 Q1927.3244,1176.4688 1927.7931,1176.4688 Q1928.1681,1176.4688 1928.4025,1176.7266 Q1928.6369,1176.9844 1928.6369,1177.5938 L1928.6369,1179.5625 Q1928.6369,1180.1094 1928.5119,1180.2969 Q1928.2463,1180.6875 1927.7931,1180.6875 Q1927.3244,1180.6875 1927.0588,1180.2813 Q1926.9338,1180.0938 1926.9338,1179.4219 L1925.4494,1179.4219 Z " fill="#000000"/><text fill="#1A1A1A" font-family="sans-serif" font-size="14" lengthAdjust="spacing" textLength="66.1377" x="1941.59" y="1184.3516">TipoOferta</text><line style="stroke:#1168BD;stroke-width:0.5;" x1="1913.59" x2="2009.7277" y1="1194.625" y2="1194.625"/><text fill="#1A1A1A" font-family="sans-serif" font-size="14" lengthAdjust="spacing" textLength="47.4619" x="1918.59" y="1213.1563">VUELO</text><text fill="#1A1A1A" font-family="sans-serif" font-size="14" lengthAdjust="spacing" textLength="46.6758" x="1918.59" y="1230.7656">HOTEL</text><line style="stroke:#1168BD;stroke-width:0.5;" x1="1913.59" x2="2009.7277" y1="1237.8438" y2="1237.8438"/></g><!--class MedioPago--><g class="entity" data-entity="MedioPago" data-source-line="47" data-uid="ent0006" id="entity_MedioPago"><rect fill="#FFFFFF" height="100.8281" rx="2.5" ry="2.5" style="stroke:#1168BD;stroke-width:0.5;" width="102.8271" x="2269.09" y="487.125"/><ellipse cx="2284.09" cy="503.125" fill="#EB937F" rx="11" ry="11" style="stroke:#181818;stroke-width:1;"/><path d="M2281.9494,503.9219 L2281.9494,506.4219 L2286.2775,506.4219 L2286.2775,505.5 Q2286.2775,504.8906 2286.5197,504.625 Q2286.7619,504.3594 2287.1369,504.3594 Q2287.5119,504.3594 2287.7463,504.625 Q2287.9806,504.8906 2287.9806,505.5 L2287.9806,508.125 L2279.9806,508.125 Q2279.3556,508.125 2279.0978,507.8906 Q2278.84,507.6563 2278.84,507.2656 Q2278.84,506.8906 2279.1056,506.6563 Q2279.3713,506.4219 2279.9806,506.4219 L2280.2463,506.4219 L2280.2463,499.7656 L2279.9806,499.7656 Q2279.3556,499.7656 2279.0978,499.5313 Q2278.84,499.2969 2278.84,498.9063 Q2278.84,498.5313 2279.0978,498.2969 Q2279.3556,498.0625 2279.9806,498.0625 L2287.6056,498.0625 L2287.6056,500.6563 Q2287.6056,501.2656 2287.3791,501.5234 Q2287.1525,501.7813 2286.7619,501.7813 Q2286.3869,501.7813 2286.1525,501.5234 Q2285.9181,501.2656 2285.9181,500.6563 L2285.9181,499.7656 L2281.9494,499.7656 L2281.9494,502.2188 L2283.4338,502.2188 Q2283.4338,501.5625 2283.5588,501.375 Q2283.8244,500.9688 2284.2931,500.9688 Q2284.6681,500.9688 2284.9025,501.2266 Q2285.1369,501.4844 2285.1369,502.0938 L2285.1369,504.0625 Q2285.1369,504.6094 2285.0119,504.7969 Q2284.7463,505.1875 2284.2931,505.1875 Q2283.8244,505.1875 2283.5588,504.7813 Q2283.4338,504.5938 2283.4338,503.9219 L2281.9494,503.9219 Z " fill="#000000"/><text fill="#1A1A1A" font-family="sans-serif" font-size="14" lengthAdjust="spacing" textLength="70.8271" x="2298.09" y="508.8516">MedioPago</text><line style="stroke:#1168BD;stroke-width:0.5;" x1="2270.09" x2="2370.9171" y1="519.125" y2="519.125"/><text fill="#1A1A1A" font-family="sans-serif" font-size="14" lengthAdjust="spacing" textLength="62.2275" x="2275.09" y="537.6563">TARJETA</text><text fill="#1A1A1A" font-family="sans-serif" font-size="14" lengthAdjust="spacing" textLength="21" x="2275.09" y="555.2656">QR</text><text fill="#1A1A1A" font-family="sans-serif" font-size="14" lengthAdjust="spacing" textLength="56.0137" x="2275.09" y="572.875">WALLET</text><line style="stroke:#1168BD;stroke-width:0.5;" x1="2270.09" x2="2370.9171" y1="579.9531" y2="579.9531"/></g><!--class Money--><g class="entity" data-entity="Money" data-source-line="53" data-uid="ent0007" id="entity_Money"><rect fill="#FFFFFF" height="83.2188" rx="2.5" ry="2.5" style="stroke:#1168BD;stroke-width:0.5;" width="114.334" x="2119.59" y="496.125"/><ellipse cx="2152.7311" cy="512.125" fill="#ADD1B2" rx="11" ry="11" style="stroke:#181818;stroke-width:1;"/><path d="M2154.2467,507.75 Q2154.4029,507.5313 2154.5904,507.4219 Q2154.7779,507.3125 2154.9967,507.3125 Q2155.3717,507.3125 2155.6061,507.5703 Q2155.8404,507.8281 2155.8404,508.4375 L2155.8404,509.8906 Q2155.8404,510.5 2155.6061,510.7656 Q2155.3717,511.0313 2154.9967,511.0313 Q2154.6529,511.0313 2154.4498,510.8281 Q2154.2467,510.6406 2154.1373,510.125 Q2154.0904,509.7656 2153.9029,509.5781 Q2153.5748,509.2031 2152.9654,508.9844 Q2152.3561,508.7656 2151.7311,508.7656 Q2150.9654,508.7656 2150.3326,509.0938 Q2149.6998,509.4219 2149.2076,510.1719 Q2148.7154,510.9219 2148.7154,511.9531 L2148.7154,513.0469 Q2148.7154,514.2813 2149.6061,515.1016 Q2150.4967,515.9219 2152.0904,515.9219 Q2153.0279,515.9219 2153.6842,515.6719 Q2154.0748,515.5156 2154.4967,515.0781 Q2154.7623,514.8125 2154.9108,514.7344 Q2155.0592,514.6563 2155.2623,514.6563 Q2155.5904,514.6563 2155.8483,514.9141 Q2156.1061,515.1719 2156.1061,515.5156 Q2156.1061,515.8594 2155.7623,516.2656 Q2155.2623,516.8438 2154.4654,517.1719 Q2153.3873,517.625 2152.0904,517.625 Q2150.5748,517.625 2149.3717,517 Q2148.3873,516.5 2147.6998,515.4297 Q2147.0123,514.3594 2147.0123,513.0781 L2147.0123,511.9219 Q2147.0123,510.5938 2147.6295,509.4453 Q2148.2467,508.2969 2149.3404,507.6797 Q2150.4342,507.0625 2151.6686,507.0625 Q2152.4029,507.0625 2153.0514,507.2266 Q2153.6998,507.3906 2154.2467,507.75 Z " fill="#000000"/><text fill="#1A1A1A" font-family="sans-serif" font-size="14" lengthAdjust="spacing" textLength="42.0205" x="2170.7624" y="517.8516">Money</text><line style="stroke:#1168BD;stroke-width:0.5;" x1="2120.59" x2="2232.924" y1="528.125" y2="528.125"/><text fill="#1A1A1A" font-family="sans-serif" font-size="14" lengthAdjust="spacing" textLength="102.334" x="2125.59" y="546.6563">+monto: number</text><text fill="#1A1A1A" font-family="sans-serif" font-size="14" lengthAdjust="spacing" textLength="100.7822" x="2125.59" y="564.2656">+moneda: string</text><line style="stroke:#1168BD;stroke-width:0.5;" x1="2120.59" x2="2232.924" y1="571.3438" y2="571.3438"/></g><!--class Oferta--><g class="entity" data-entity="Oferta" data-source-line="58" data-uid="ent0008" id="entity_Oferta"><rect fill="#FFFFFF" height="136.0469" rx="2.5" ry="2.5" style="stroke:#1168BD;stroke-width:0.5;" width="161.0508" x="1881.09" y="966.625"/><ellipse cx="1937.9137" cy="982.625" fill="#ADD1B2" rx="11" ry="11" style="stroke:#181818;stroke-width:1;"/><path d="M1939.4294,978.25 Q1939.5856,978.0313 1939.7731,977.9219 Q1939.9606,977.8125 1940.1794,977.8125 Q1940.5544,977.8125 1940.7887,978.0703 Q1941.0231,978.3281 1941.0231,978.9375 L1941.0231,980.3906 Q1941.0231,981 1940.7887,981.2656 Q1940.5544,981.5313 1940.1794,981.5313 Q1939.8356,981.5313 1939.6325,981.3281 Q1939.4294,981.1406 1939.32,980.625 Q1939.2731,980.2656 1939.0856,980.0781 Q1938.7575,979.7031 1938.1481,979.4844 Q1937.5387,979.2656 1936.9137,979.2656 Q1936.1481,979.2656 1935.5153,979.5938 Q1934.8825,979.9219 1934.3903,980.6719 Q1933.8981,981.4219 1933.8981,982.4531 L1933.8981,983.5469 Q1933.8981,984.7813 1934.7887,985.6016 Q1935.6794,986.4219 1937.2731,986.4219 Q1938.2106,986.4219 1938.8669,986.1719 Q1939.2575,986.0156 1939.6794,985.5781 Q1939.945,985.3125 1940.0934,985.2344 Q1940.2419,985.1563 1940.445,985.1563 Q1940.7731,985.1563 1941.0309,985.4141 Q1941.2887,985.6719 1941.2887,986.0156 Q1941.2887,986.3594 1940.945,986.7656 Q1940.445,987.3438 1939.6481,987.6719 Q1938.57,988.125 1937.2731,988.125 Q1935.7575,988.125 1934.5544,987.5 Q1933.57,987 1932.8825,985.9297 Q1932.195,984.8594 1932.195,983.5781 L1932.195,982.4219 Q1932.195,981.0938 1932.8122,979.9453 Q1933.4294,978.7969 1934.5231,978.1797 Q1935.6169,977.5625 1936.8512,977.5625 Q1937.5856,977.5625 1938.234,977.7266 Q1938.8825,977.8906 1939.4294,978.25 Z " fill="#000000"/><text fill="#1A1A1A" font-family="sans-serif" font-size="14" lengthAdjust="spacing" textLength="38.9033" x="1958.4137" y="988.3516">Oferta</text><line style="stroke:#1168BD;stroke-width:0.5;" x1="1882.09" x2="2041.1408" y1="998.625" y2="998.625"/><text fill="#1A1A1A" font-family="sans-serif" font-size="14" lengthAdjust="spacing" textLength="97.665" x="1887.09" y="1017.1563">+ofertaId: string</text><text fill="#1A1A1A" font-family="sans-serif" font-size="14" lengthAdjust="spacing" textLength="104.665" x="1887.09" y="1034.7656">+tipo: TipoOferta</text><text fill="#1A1A1A" font-family="sans-serif" font-size="14" lengthAdjust="spacing" textLength="96.1064" x="1887.09" y="1052.375">+precio: Money</text><text fill="#1A1A1A" font-family="sans-serif" font-size="14" lengthAdjust="spacing" textLength="118.6787" x="1887.09" y="1069.9844">+validoHasta: Date</text><line style="stroke:#1168BD;stroke-width:0.5;" x1="1882.09" x2="2041.1408" y1="1077.0625" y2="1077.0625"/><text fill="#1A1A1A" font-family="sans-serif" font-size="14" lengthAdjust="spacing" textLength="149.0508" x="1887.09" y="1095.5938">+estaVigente(): boolean</text></g><!--class Pasajero--><g class="entity" data-entity="Pasajero" data-source-line="66" data-uid="ent0009" id="entity_Pasajero"><rect fill="#FFFFFF" height="100.8281" rx="2.5" ry="2.5" style="stroke:#1168BD;stroke-width:0.5;" width="131.458" x="2241.09" y="984.125"/><ellipse cx="2275.9814" cy="1000.125" fill="#ADD1B2" rx="11" ry="11" style="stroke:#181818;stroke-width:1;"/><path d="M2277.497,995.75 Q2277.6533,995.5313 2277.8408,995.4219 Q2278.0283,995.3125 2278.247,995.3125 Q2278.622,995.3125 2278.8564,995.5703 Q2279.0908,995.8281 2279.0908,996.4375 L2279.0908,997.8906 Q2279.0908,998.5 2278.8564,998.7656 Q2278.622,999.0313 2278.247,999.0313 Q2277.9033,999.0313 2277.7002,998.8281 Q2277.497,998.6406 2277.3877,998.125 Q2277.3408,997.7656 2277.1533,997.5781 Q2276.8252,997.2031 2276.2158,996.9844 Q2275.6064,996.7656 2274.9814,996.7656 Q2274.2158,996.7656 2273.583,997.0938 Q2272.9502,997.4219 2272.458,998.1719 Q2271.9658,998.9219 2271.9658,999.9531 L2271.9658,1001.0469 Q2271.9658,1002.2813 2272.8564,1003.1016 Q2273.747,1003.9219 2275.3408,1003.9219 Q2276.2783,1003.9219 2276.9345,1003.6719 Q2277.3252,1003.5156 2277.747,1003.0781 Q2278.0127,1002.8125 2278.1611,1002.7344 Q2278.3095,1002.6563 2278.5127,1002.6563 Q2278.8408,1002.6563 2279.0986,1002.9141 Q2279.3564,1003.1719 2279.3564,1003.5156 Q2279.3564,1003.8594 2279.0127,1004.2656 Q2278.5127,1004.8438 2277.7158,1005.1719 Q2276.6377,1005.625 2275.3408,1005.625 Q2273.8252,1005.625 2272.622,1005 Q2271.6377,1004.5 2270.9502,1003.4297 Q2270.2627,1002.3594 2270.2627,1001.0781 L2270.2627,999.9219 Q2270.2627,998.5938 2270.8798,997.4453 Q2271.497,996.2969 2272.5908,995.6797 Q2273.6845,995.0625 2274.9189,995.0625 Q2275.6533,995.0625 2276.3017,995.2266 Q2276.9502,995.3906 2277.497,995.75 Z " fill="#000000"/><text fill="#1A1A1A" font-family="sans-serif" font-size="14" lengthAdjust="spacing" textLength="55.2549" x="2294.4017" y="1005.8516">Pasajero</text><line style="stroke:#1168BD;stroke-width:0.5;" x1="2242.09" x2="2371.548" y1="1016.125" y2="1016.125"/><text fill="#1A1A1A" font-family="sans-serif" font-size="14" lengthAdjust="spacing" textLength="97.6582" x="2247.09" y="1034.6563">+nombre: string</text><text fill="#1A1A1A" font-family="sans-serif" font-size="14" lengthAdjust="spacing" textLength="119.458" x="2247.09" y="1052.2656">+documento: string</text><text fill="#1A1A1A" font-family="sans-serif" font-size="14" lengthAdjust="spacing" textLength="72.7617" x="2247.09" y="1069.875">+tipo: string</text><line style="stroke:#1168BD;stroke-width:0.5;" x1="2242.09" x2="2371.548" y1="1076.9531" y2="1076.9531"/></g><!--class Reserva--><g class="entity" data-entity="Reserva" data-source-line="72" data-uid="ent0010" id="entity_Reserva"><rect fill="#FFFFFF" height="206.4844" rx="2.5" ry="2.5" style="stroke:#1168BD;stroke-width:0.5;" width="230.2441" x="1880.59" y="700.625"/><ellipse cx="1965.3966" cy="716.625" fill="#ADD1B2" rx="11" ry="11" style="stroke:#181818;stroke-width:1;"/><path d="M1966.9123,712.25 Q1967.0685,712.0313 1967.256,711.9219 Q1967.4435,711.8125 1967.6623,711.8125 Q1968.0373,711.8125 1968.2716,712.0703 Q1968.506,712.3281 1968.506,712.9375 L1968.506,714.3906 Q1968.506,715 1968.2716,715.2656 Q1968.0373,715.5313 1967.6623,715.5313 Q1967.3185,715.5313 1967.1154,715.3281 Q1966.9123,715.1406 1966.8029,714.625 Q1966.756,714.2656 1966.5685,714.0781 Q1966.2404,713.7031 1965.631,713.4844 Q1965.0216,713.2656 1964.3966,713.2656 Q1963.631,713.2656 1962.9982,713.5938 Q1962.3654,713.9219 1961.8732,714.6719 Q1961.381,715.4219 1961.381,716.4531 L1961.381,717.5469 Q1961.381,718.7813 1962.2716,719.6016 Q1963.1623,720.4219 1964.756,720.4219 Q1965.6935,720.4219 1966.3498,720.1719 Q1966.7404,720.0156 1967.1623,719.5781 Q1967.4279,719.3125 1967.5763,719.2344 Q1967.7248,719.1563 1967.9279,719.1563 Q1968.256,719.1563 1968.5138,719.4141 Q1968.7716,719.6719 1968.7716,720.0156 Q1968.7716,720.3594 1968.4279,720.7656 Q1967.9279,721.3438 1967.131,721.6719 Q1966.0529,722.125 1964.756,722.125 Q1963.2404,722.125 1962.0373,721.5 Q1961.0529,721 1960.3654,719.9297 Q1959.6779,718.8594 1959.6779,717.5781 L1959.6779,716.4219 Q1959.6779,715.0938 1960.2951,713.9453 Q1960.9123,712.7969 1962.006,712.1797 Q1963.0998,711.5625 1964.3341,711.5625 Q1965.0685,711.5625 1965.717,711.7266 Q1966.3654,711.8906 1966.9123,712.25 Z " fill="#000000"/><text fill="#1A1A1A" font-family="sans-serif" font-size="14" lengthAdjust="spacing" textLength="52.1309" x="1985.8966" y="722.3516">Reserva</text><line style="stroke:#1168BD;stroke-width:0.5;" x1="1881.59" x2="2109.8341" y1="732.625" y2="732.625"/><text fill="#1A1A1A" font-family="sans-serif" font-size="14" lengthAdjust="spacing" textLength="61.0859" x="1886.59" y="751.1563">+id: string</text><text fill="#1A1A1A" font-family="sans-serif" font-size="14" lengthAdjust="spacing" textLength="153.7061" x="1886.59" y="768.7656">+estado: EstadoReserva</text><text fill="#1A1A1A" font-family="sans-serif" font-size="14" lengthAdjust="spacing" textLength="96.8857" x="1886.59" y="786.375">+monto: Money</text><text fill="#1A1A1A" font-family="sans-serif" font-size="14" lengthAdjust="spacing" textLength="124.8994" x="1886.59" y="803.9844">+localizador?: string</text><text fill="#1A1A1A" font-family="sans-serif" font-size="14" lengthAdjust="spacing" textLength="128.8027" x="1886.59" y="821.5938">+holdExpiraEn: Date</text><text fill="#1A1A1A" font-family="sans-serif" font-size="14" lengthAdjust="spacing" textLength="105.458" x="1886.59" y="839.2031">+creadaEn: Date</text><line style="stroke:#1168BD;stroke-width:0.5;" x1="1881.59" x2="2109.8341" y1="846.2813" y2="846.2813"/><text fill="#1A1A1A" font-family="sans-serif" font-size="14" lengthAdjust="spacing" textLength="218.2441" x="1886.59" y="864.8125">+confirmar(localizador: string): void</text><text fill="#1A1A1A" font-family="sans-serif" font-size="14" lengthAdjust="spacing" textLength="187.127" x="1886.59" y="882.4219">+cancelar(motivo: string): void</text><text fill="#1A1A1A" font-family="sans-serif" font-size="14" lengthAdjust="spacing" textLength="93.7549" x="1886.59" y="900.0313">+expirar(): void</text></g><!--class Pago--><g class="entity" data-entity="Pago" data-source-line="84" data-uid="ent0011" id="entity_Pago"><rect fill="#FFFFFF" height="206.4844" rx="2.5" ry="2.5" style="stroke:#1168BD;stroke-width:0.5;" width="200.6787" x="1883.09" y="434.625"/><ellipse cx="1962.8312" cy="450.625" fill="#ADD1B2" rx="11" ry="11" style="stroke:#181818;stroke-width:1;"/><path d="M1964.3468,446.25 Q1964.5031,446.0313 1964.6906,445.9219 Q1964.8781,445.8125 1965.0968,445.8125 Q1965.4718,445.8125 1965.7062,446.0703 Q1965.9406,446.3281 1965.9406,446.9375 L1965.9406,448.3906 Q1965.9406,449 1965.7062,449.2656 Q1965.4718,449.5313 1965.0968,449.5313 Q1964.7531,449.5313 1964.55,449.3281 Q1964.3468,449.1406 1964.2375,448.625 Q1964.1906,448.2656 1964.0031,448.0781 Q1963.675,447.7031 1963.0656,447.4844 Q1962.4562,447.2656 1961.8312,447.2656 Q1961.0656,447.2656 1960.4328,447.5938 Q1959.8,447.9219 1959.3078,448.6719 Q1958.8156,449.4219 1958.8156,450.4531 L1958.8156,451.5469 Q1958.8156,452.7813 1959.7062,453.6016 Q1960.5968,454.4219 1962.1906,454.4219 Q1963.1281,454.4219 1963.7843,454.1719 Q1964.175,454.0156 1964.5968,453.5781 Q1964.8625,453.3125 1965.0109,453.2344 Q1965.1593,453.1563 1965.3625,453.1563 Q1965.6906,453.1563 1965.9484,453.4141 Q1966.2062,453.6719 1966.2062,454.0156 Q1966.2062,454.3594 1965.8625,454.7656 Q1965.3625,455.3438 1964.5656,455.6719 Q1963.4875,456.125 1962.1906,456.125 Q1960.675,456.125 1959.4718,455.5 Q1958.4875,455 1957.8,453.9297 Q1957.1125,452.8594 1957.1125,451.5781 L1957.1125,450.4219 Q1957.1125,449.0938 1957.7296,447.9453 Q1958.3468,446.7969 1959.4406,446.1797 Q1960.5343,445.5625 1961.7687,445.5625 Q1962.5031,445.5625 1963.1515,445.7266 Q1963.8,445.8906 1964.3468,446.25 Z " fill="#000000"/><text fill="#1A1A1A" font-family="sans-serif" font-size="14" lengthAdjust="spacing" textLength="32.6963" x="1983.3312" y="456.3516">Pago</text><line style="stroke:#1168BD;stroke-width:0.5;" x1="1884.09" x2="2082.7687" y1="466.625" y2="466.625"/><text fill="#1A1A1A" font-family="sans-serif" font-size="14" lengthAdjust="spacing" textLength="61.0859" x="1889.09" y="485.1563">+id: string</text><text fill="#1A1A1A" font-family="sans-serif" font-size="14" lengthAdjust="spacing" textLength="108.5479" x="1889.09" y="502.7656">+reservaId: string</text><text fill="#1A1A1A" font-family="sans-serif" font-size="14" lengthAdjust="spacing" textLength="134.2715" x="1889.09" y="520.375">+estado: EstadoPago</text><text fill="#1A1A1A" font-family="sans-serif" font-size="14" lengthAdjust="spacing" textLength="96.8857" x="1889.09" y="537.9844">+monto: Money</text><text fill="#1A1A1A" font-family="sans-serif" font-size="14" lengthAdjust="spacing" textLength="153.6924" x="1889.09" y="555.5938">+idempotencyKey: string</text><text fill="#1A1A1A" font-family="sans-serif" font-size="14" lengthAdjust="spacing" textLength="141.2441" x="1889.09" y="573.2031">+transaccionId?: string</text><line style="stroke:#1168BD;stroke-width:0.5;" x1="1884.09" x2="2082.7687" y1="580.2813" y2="580.2813"/><text fill="#1A1A1A" font-family="sans-serif" font-size="14" lengthAdjust="spacing" textLength="163.7959" x="1889.09" y="598.8125">+aprobar(txId: string): void</text><text fill="#1A1A1A" font-family="sans-serif" font-size="14" lengthAdjust="spacing" textLength="188.6787" x="1889.09" y="616.4219">+rechazar(motivo: string): void</text><text fill="#1A1A1A" font-family="sans-serif" font-size="14" lengthAdjust="spacing" textLength="120.9893" x="1889.09" y="634.0313">+reembolsar(): void</text></g><!--class BusquedaRouter--><g class="entity" data-entity="BusquedaRouter" data-source-line="106" data-uid="ent0019" id="entity_BusquedaRouter"><rect fill="#FFFFFF" height="65.6094" rx="2.5" ry="2.5" style="stroke:#1168BD;stroke-width:0.5;" width="189.0029" x="406.09" y="98.125"/><ellipse cx="444.4575" cy="114.125" fill="#ADD1B2" rx="11" ry="11" style="stroke:#181818;stroke-width:1;"/><path d="M445.9731,109.75 Q446.1294,109.5313 446.3169,109.4219 Q446.5044,109.3125 446.7231,109.3125 Q447.0981,109.3125 447.3325,109.5703 Q447.5669,109.8281 447.5669,110.4375 L447.5669,111.8906 Q447.5669,112.5 447.3325,112.7656 Q447.0981,113.0313 446.7231,113.0313 Q446.3794,113.0313 446.1762,112.8281 Q445.9731,112.6406 445.8637,112.125 Q445.8169,111.7656 445.6294,111.5781 Q445.3012,111.2031 444.6919,110.9844 Q444.0825,110.7656 443.4575,110.7656 Q442.6919,110.7656 442.059,111.0938 Q441.4262,111.4219 440.934,112.1719 Q440.4419,112.9219 440.4419,113.9531 L440.4419,115.0469 Q440.4419,116.2813 441.3325,117.1016 Q442.2231,117.9219 443.8169,117.9219 Q444.7544,117.9219 445.4106,117.6719 Q445.8012,117.5156 446.2231,117.0781 Q446.4887,116.8125 446.6372,116.7344 Q446.7856,116.6563 446.9887,116.6563 Q447.3169,116.6563 447.5747,116.9141 Q447.8325,117.1719 447.8325,117.5156 Q447.8325,117.8594 447.4887,118.2656 Q446.9887,118.8438 446.1919,119.1719 Q445.1137,119.625 443.8169,119.625 Q442.3012,119.625 441.0981,119 Q440.1137,118.5 439.4262,117.4297 Q438.7387,116.3594 438.7387,115.0781 L438.7387,113.9219 Q438.7387,112.5938 439.3559,111.4453 Q439.9731,110.2969 441.0669,109.6797 Q442.1606,109.0625 443.395,109.0625 Q444.1294,109.0625 444.7778,109.2266 Q445.4262,109.3906 445.9731,109.75 Z " fill="#000000"/><text fill="#1A1A1A" font-family="sans-serif" font-size="14" lengthAdjust="spacing" textLength="105.0752" x="463.6503" y="119.8516">BusquedaRouter</text><line style="stroke:#1168BD;stroke-width:0.5;" x1="407.09" x2="594.0929" y1="130.125" y2="130.125"/><line style="stroke:#1168BD;stroke-width:0.5;" x1="407.09" x2="594.0929" y1="138.125" y2="138.125"/><text fill="#1A1A1A" font-family="sans-serif" font-size="14" lengthAdjust="spacing" textLength="177.0029" x="412.09" y="156.6563">+GET /search(req, res): void</text></g><!--class ReservaRouter--><g class="entity" data-entity="ReservaRouter" data-source-line="109" data-uid="ent0020" id="entity_ReservaRouter"><rect fill="#FFFFFF" height="100.8281" rx="2.5" ry="2.5" style="stroke:#1168BD;stroke-width:0.5;" width="247.3818" x="630.09" y="80.625"/><ellipse cx="702.4552" cy="96.625" fill="#ADD1B2" rx="11" ry="11" style="stroke:#181818;stroke-width:1;"/><path d="M703.9709,92.25 Q704.1271,92.0313 704.3146,91.9219 Q704.5021,91.8125 704.7209,91.8125 Q705.0959,91.8125 705.3302,92.0703 Q705.5646,92.3281 705.5646,92.9375 L705.5646,94.3906 Q705.5646,95 705.3302,95.2656 Q705.0959,95.5313 704.7209,95.5313 Q704.3771,95.5313 704.174,95.3281 Q703.9709,95.1406 703.8615,94.625 Q703.8146,94.2656 703.6271,94.0781 Q703.299,93.7031 702.6896,93.4844 Q702.0802,93.2656 701.4552,93.2656 Q700.6896,93.2656 700.0568,93.5938 Q699.424,93.9219 698.9318,94.6719 Q698.4396,95.4219 698.4396,96.4531 L698.4396,97.5469 Q698.4396,98.7813 699.3302,99.6016 Q700.2209,100.4219 701.8146,100.4219 Q702.7521,100.4219 703.4084,100.1719 Q703.799,100.0156 704.2209,99.5781 Q704.4865,99.3125 704.6349,99.2344 Q704.7834,99.1563 704.9865,99.1563 Q705.3146,99.1563 705.5724,99.4141 Q705.8302,99.6719 705.8302,100.0156 Q705.8302,100.3594 705.4865,100.7656 Q704.9865,101.3438 704.1896,101.6719 Q703.1115,102.125 701.8146,102.125 Q700.299,102.125 699.0959,101.5 Q698.1115,101 697.424,99.9297 Q696.7365,98.8594 696.7365,97.5781 L696.7365,96.4219 Q696.7365,95.0938 697.3537,93.9453 Q697.9709,92.7969 699.0646,92.1797 Q700.1584,91.5625 701.3927,91.5625 Q702.1271,91.5625 702.7755,91.7266 Q703.424,91.8906 703.9709,92.25 Z " fill="#000000"/><text fill="#1A1A1A" font-family="sans-serif" font-size="14" lengthAdjust="spacing" textLength="94.1514" x="722.9552" y="102.3516">ReservaRouter</text><line style="stroke:#1168BD;stroke-width:0.5;" x1="631.09" x2="876.4718" y1="112.625" y2="112.625"/><line style="stroke:#1168BD;stroke-width:0.5;" x1="631.09" x2="876.4718" y1="120.625" y2="120.625"/><text fill="#1A1A1A" font-family="sans-serif" font-size="14" lengthAdjust="spacing" textLength="200.3613" x="636.09" y="139.1563">+POST /bookings(req, res): void</text><text fill="#1A1A1A" font-family="sans-serif" font-size="14" lengthAdjust="spacing" textLength="209.6992" x="636.09" y="156.7656">+GET /bookings/:id(req, res): void</text><text fill="#1A1A1A" font-family="sans-serif" font-size="14" lengthAdjust="spacing" textLength="235.3818" x="636.09" y="174.375">+DELETE /bookings/:id(req, res): void</text></g><!--class PagoRouter--><g class="entity" data-entity="PagoRouter" data-source-line="114" data-uid="ent0021" id="entity_PagoRouter"><rect fill="#FFFFFF" height="83.2188" rx="2.5" ry="2.5" style="stroke:#1168BD;stroke-width:0.5;" width="257.499" x="912.09" y="89.625"/><ellipse cx="999.2311" cy="105.625" fill="#ADD1B2" rx="11" ry="11" style="stroke:#181818;stroke-width:1;"/><path d="M1000.7467,101.25 Q1000.903,101.0313 1001.0905,100.9219 Q1001.278,100.8125 1001.4967,100.8125 Q1001.8717,100.8125 1002.1061,101.0703 Q1002.3405,101.3281 1002.3405,101.9375 L1002.3405,103.3906 Q1002.3405,104 1002.1061,104.2656 Q1001.8717,104.5313 1001.4967,104.5313 Q1001.153,104.5313 1000.9499,104.3281 Q1000.7467,104.1406 1000.6374,103.625 Q1000.5905,103.2656 1000.403,103.0781 Q1000.0749,102.7031 999.4655,102.4844 Q998.8561,102.2656 998.2311,102.2656 Q997.4655,102.2656 996.8327,102.5938 Q996.1999,102.9219 995.7077,103.6719 Q995.2155,104.4219 995.2155,105.4531 L995.2155,106.5469 Q995.2155,107.7813 996.1061,108.6016 Q996.9967,109.4219 998.5905,109.4219 Q999.528,109.4219 1000.1842,109.1719 Q1000.5749,109.0156 1000.9967,108.5781 Q1001.2624,108.3125 1001.4108,108.2344 Q1001.5592,108.1563 1001.7624,108.1563 Q1002.0905,108.1563 1002.3483,108.4141 Q1002.6061,108.6719 1002.6061,109.0156 Q1002.6061,109.3594 1002.2624,109.7656 Q1001.7624,110.3438 1000.9655,110.6719 Q999.8874,111.125 998.5905,111.125 Q997.0749,111.125 995.8717,110.5 Q994.8874,110 994.1999,108.9297 Q993.5124,107.8594 993.5124,106.5781 L993.5124,105.4219 Q993.5124,104.0938 994.1296,102.9453 Q994.7467,101.7969 995.8405,101.1797 Q996.9342,100.5625 998.1686,100.5625 Q998.903,100.5625 999.5514,100.7266 Q1000.1999,100.8906 1000.7467,101.25 Z " fill="#000000"/><text fill="#1A1A1A" font-family="sans-serif" font-size="14" lengthAdjust="spacing" textLength="74.7168" x="1019.7311" y="111.3516">PagoRouter</text><line style="stroke:#1168BD;stroke-width:0.5;" x1="913.09" x2="1168.589" y1="121.625" y2="121.625"/><line style="stroke:#1168BD;stroke-width:0.5;" x1="913.09" x2="1168.589" y1="129.625" y2="129.625"/><text fill="#1A1A1A" font-family="sans-serif" font-size="14" lengthAdjust="spacing" textLength="245.499" x="918.09" y="148.1563">+POST /bookings/:id/pay(req, res): void</text><text fill="#1A1A1A" font-family="sans-serif" font-size="14" lengthAdjust="spacing" textLength="214.3545" x="918.09" y="165.7656">+GET /payments/:id(req, res): void</text></g><!--class SecurityMiddleware--><g class="entity" data-entity="SecurityMiddleware" data-source-line="118" data-uid="ent0022" id="entity_SecurityMiddleware"><rect fill="#FFFFFF" height="65.6094" rx="2.5" ry="2.5" style="stroke:#1168BD;stroke-width:0.5;" width="186.7061" x="184.09" y="98.125"/><ellipse cx="213.7365" cy="114.125" fill="#ADD1B2" rx="11" ry="11" style="stroke:#181818;stroke-width:1;"/><path d="M215.2522,109.75 Q215.4084,109.5313 215.5959,109.4219 Q215.7834,109.3125 216.0022,109.3125 Q216.3772,109.3125 216.6115,109.5703 Q216.8459,109.8281 216.8459,110.4375 L216.8459,111.8906 Q216.8459,112.5 216.6115,112.7656 Q216.3772,113.0313 216.0022,113.0313 Q215.6584,113.0313 215.4553,112.8281 Q215.2522,112.6406 215.1428,112.125 Q215.0959,111.7656 214.9084,111.5781 Q214.5803,111.2031 213.9709,110.9844 Q213.3615,110.7656 212.7365,110.7656 Q211.9709,110.7656 211.3381,111.0938 Q210.7053,111.4219 210.2131,112.1719 Q209.7209,112.9219 209.7209,113.9531 L209.7209,115.0469 Q209.7209,116.2813 210.6115,117.1016 Q211.5022,117.9219 213.0959,117.9219 Q214.0334,117.9219 214.6897,117.6719 Q215.0803,117.5156 215.5022,117.0781 Q215.7678,116.8125 215.9162,116.7344 Q216.0647,116.6563 216.2678,116.6563 Q216.5959,116.6563 216.8537,116.9141 Q217.1115,117.1719 217.1115,117.5156 Q217.1115,117.8594 216.7678,118.2656 Q216.2678,118.8438 215.4709,119.1719 Q214.3928,119.625 213.0959,119.625 Q211.5803,119.625 210.3772,119 Q209.3928,118.5 208.7053,117.4297 Q208.0178,116.3594 208.0178,115.0781 L208.0178,113.9219 Q208.0178,112.5938 208.635,111.4453 Q209.2522,110.2969 210.3459,109.6797 Q211.4397,109.0625 212.674,109.0625 Q213.4084,109.0625 214.0568,109.2266 Q214.7053,109.3906 215.2522,109.75 Z " fill="#000000"/><text fill="#1A1A1A" font-family="sans-serif" font-size="14" lengthAdjust="spacing" textLength="122.1582" x="230.9913" y="119.8516">SecurityMiddleware</text><line style="stroke:#1168BD;stroke-width:0.5;" x1="185.09" x2="369.7961" y1="130.125" y2="130.125"/><line style="stroke:#1168BD;stroke-width:0.5;" x1="185.09" x2="369.7961" y1="138.125" y2="138.125"/><text fill="#1A1A1A" font-family="sans-serif" font-size="14" lengthAdjust="spacing" textLength="174.7061" x="190.09" y="156.6563">+handle(req, res, next): void</text></g><!--class BusquedaService--><g class="entity" data-entity="BusquedaService" data-source-line="125" data-uid="ent0024" id="entity_BusquedaService"><rect fill="#FFFFFF" height="65.6094" rx="2.5" ry="2.5" style="stroke:#1168BD;stroke-width:0.5;" width="174.9893" x="404.09" y="275.125"/><ellipse cx="434.0534" cy="291.125" fill="#ADD1B2" rx="11" ry="11" style="stroke:#181818;stroke-width:1;"/><path d="M435.569,286.75 Q435.7253,286.5313 435.9128,286.4219 Q436.1003,286.3125 436.319,286.3125 Q436.694,286.3125 436.9284,286.5703 Q437.1628,286.8281 437.1628,287.4375 L437.1628,288.8906 Q437.1628,289.5 436.9284,289.7656 Q436.694,290.0313 436.319,290.0313 Q435.9753,290.0313 435.7721,289.8281 Q435.569,289.6406 435.4596,289.125 Q435.4128,288.7656 435.2253,288.5781 Q434.8971,288.2031 434.2878,287.9844 Q433.6784,287.7656 433.0534,287.7656 Q432.2878,287.7656 431.6549,288.0938 Q431.0221,288.4219 430.5299,289.1719 Q430.0378,289.9219 430.0378,290.9531 L430.0378,292.0469 Q430.0378,293.2813 430.9284,294.1016 Q431.819,294.9219 433.4128,294.9219 Q434.3503,294.9219 435.0065,294.6719 Q435.3971,294.5156 435.819,294.0781 Q436.0846,293.8125 436.2331,293.7344 Q436.3815,293.6563 436.5846,293.6563 Q436.9128,293.6563 437.1706,293.9141 Q437.4284,294.1719 437.4284,294.5156 Q437.4284,294.8594 437.0846,295.2656 Q436.5846,295.8438 435.7878,296.1719 Q434.7096,296.625 433.4128,296.625 Q431.8971,296.625 430.694,296 Q429.7096,295.5 429.0221,294.4297 Q428.3346,293.3594 428.3346,292.0781 L428.3346,290.9219 Q428.3346,289.5938 428.9518,288.4453 Q429.569,287.2969 430.6628,286.6797 Q431.7565,286.0625 432.9909,286.0625 Q433.7253,286.0625 434.3737,286.2266 Q435.0221,286.3906 435.569,286.75 Z " fill="#000000"/><text fill="#1A1A1A" font-family="sans-serif" font-size="14" lengthAdjust="spacing" textLength="109.7373" x="451.3786" y="296.8516">BusquedaService</text><line style="stroke:#1168BD;stroke-width:0.5;" x1="405.09" x2="578.0793" y1="307.125" y2="307.125"/><line style="stroke:#1168BD;stroke-width:0.5;" x1="405.09" x2="578.0793" y1="315.125" y2="315.125"/><text fill="#1A1A1A" font-family="sans-serif" font-size="14" lengthAdjust="spacing" textLength="162.9893" x="410.09" y="333.6563">+buscar(criterios): Oferta[]</text></g><!--class ReservaService--><g class="entity" data-entity="ReservaService" data-source-line="128" data-uid="ent0025" id="entity_ReservaService"><rect fill="#FFFFFF" height="100.8281" rx="2.5" ry="2.5" style="stroke:#1168BD;stroke-width:0.5;" width="277.7197" x="614.59" y="257.625"/><ellipse cx="699.7931" cy="273.625" fill="#ADD1B2" rx="11" ry="11" style="stroke:#181818;stroke-width:1;"/><path d="M701.3088,269.25 Q701.465,269.0313 701.6525,268.9219 Q701.84,268.8125 702.0588,268.8125 Q702.4338,268.8125 702.6681,269.0703 Q702.9025,269.3281 702.9025,269.9375 L702.9025,271.3906 Q702.9025,272 702.6681,272.2656 Q702.4338,272.5313 702.0588,272.5313 Q701.715,272.5313 701.5119,272.3281 Q701.3088,272.1406 701.1994,271.625 Q701.1525,271.2656 700.965,271.0781 Q700.6369,270.7031 700.0275,270.4844 Q699.4181,270.2656 698.7931,270.2656 Q698.0275,270.2656 697.3947,270.5938 Q696.7619,270.9219 696.2697,271.6719 Q695.7775,272.4219 695.7775,273.4531 L695.7775,274.5469 Q695.7775,275.7813 696.6681,276.6016 Q697.5588,277.4219 699.1525,277.4219 Q700.09,277.4219 700.7463,277.1719 Q701.1369,277.0156 701.5588,276.5781 Q701.8244,276.3125 701.9728,276.2344 Q702.1213,276.1563 702.3244,276.1563 Q702.6525,276.1563 702.9103,276.4141 Q703.1681,276.6719 703.1681,277.0156 Q703.1681,277.3594 702.8244,277.7656 Q702.3244,278.3438 701.5275,278.6719 Q700.4494,279.125 699.1525,279.125 Q697.6369,279.125 696.4338,278.5 Q695.4494,278 694.7619,276.9297 Q694.0744,275.8594 694.0744,274.5781 L694.0744,273.4219 Q694.0744,272.0938 694.6916,270.9453 Q695.3088,269.7969 696.4025,269.1797 Q697.4963,268.5625 698.7306,268.5625 Q699.465,268.5625 700.1134,268.7266 Q700.7619,268.8906 701.3088,269.25 Z " fill="#000000"/><text fill="#1A1A1A" font-family="sans-serif" font-size="14" lengthAdjust="spacing" textLength="98.8135" x="720.2931" y="279.3516">ReservaService</text><line style="stroke:#1168BD;stroke-width:0.5;" x1="615.59" x2="891.3097" y1="289.625" y2="289.625"/><line style="stroke:#1168BD;stroke-width:0.5;" x1="615.59" x2="891.3097" y1="297.625" y2="297.625"/><text fill="#1A1A1A" font-family="sans-serif" font-size="14" lengthAdjust="spacing" textLength="265.7197" x="620.59" y="316.1563">+crearReserva(oferta, pasajeros): Reserva</text><text fill="#1A1A1A" font-family="sans-serif" font-size="14" lengthAdjust="spacing" textLength="205.8232" x="620.59" y="333.7656">+confirmarPorPago(evento): void</text><text fill="#1A1A1A" font-family="sans-serif" font-size="14" lengthAdjust="spacing" textLength="162.2373" x="620.59" y="351.375">+cancelar(reservaId): void</text></g><!--class PagoService--><g class="entity" data-entity="PagoService" data-source-line="133" data-uid="ent0026" id="entity_PagoService"><rect fill="#FFFFFF" height="83.2188" rx="2.5" ry="2.5" style="stroke:#1168BD;stroke-width:0.5;" width="291.7539" x="927.59" y="266.625"/><ellipse cx="1029.5275" cy="282.625" fill="#ADD1B2" rx="11" ry="11" style="stroke:#181818;stroke-width:1;"/><path d="M1031.0431,278.25 Q1031.1994,278.0313 1031.3869,277.9219 Q1031.5744,277.8125 1031.7931,277.8125 Q1032.1681,277.8125 1032.4025,278.0703 Q1032.6369,278.3281 1032.6369,278.9375 L1032.6369,280.3906 Q1032.6369,281 1032.4025,281.2656 Q1032.1681,281.5313 1031.7931,281.5313 Q1031.4494,281.5313 1031.2463,281.3281 Q1031.0431,281.1406 1030.9338,280.625 Q1030.8869,280.2656 1030.6994,280.0781 Q1030.3713,279.7031 1029.7619,279.4844 Q1029.1525,279.2656 1028.5275,279.2656 Q1027.7619,279.2656 1027.1291,279.5938 Q1026.4963,279.9219 1026.0041,280.6719 Q1025.5119,281.4219 1025.5119,282.4531 L1025.5119,283.5469 Q1025.5119,284.7813 1026.4025,285.6016 Q1027.2931,286.4219 1028.8869,286.4219 Q1029.8244,286.4219 1030.4806,286.1719 Q1030.8713,286.0156 1031.2931,285.5781 Q1031.5588,285.3125 1031.7072,285.2344 Q1031.8556,285.1563 1032.0588,285.1563 Q1032.3869,285.1563 1032.6447,285.4141 Q1032.9025,285.6719 1032.9025,286.0156 Q1032.9025,286.3594 1032.5588,286.7656 Q1032.0588,287.3438 1031.2619,287.6719 Q1030.1838,288.125 1028.8869,288.125 Q1027.3713,288.125 1026.1681,287.5 Q1025.1838,287 1024.4963,285.9297 Q1023.8088,284.8594 1023.8088,283.5781 L1023.8088,282.4219 Q1023.8088,281.0938 1024.4259,279.9453 Q1025.0431,278.7969 1026.1369,278.1797 Q1027.2306,277.5625 1028.465,277.5625 Q1029.1994,277.5625 1029.8478,277.7266 Q1030.4963,277.8906 1031.0431,278.25 Z " fill="#000000"/><text fill="#1A1A1A" font-family="sans-serif" font-size="14" lengthAdjust="spacing" textLength="79.3789" x="1050.0275" y="288.3516">PagoService</text><line style="stroke:#1168BD;stroke-width:0.5;" x1="928.59" x2="1218.3439" y1="298.625" y2="298.625"/><line style="stroke:#1168BD;stroke-width:0.5;" x1="928.59" x2="1218.3439" y1="306.625" y2="306.625"/><text fill="#1A1A1A" font-family="sans-serif" font-size="14" lengthAdjust="spacing" textLength="279.7539" x="933.59" y="325.1563">+procesarPago(reservaId, monto, key): Pago</text><text fill="#1A1A1A" font-family="sans-serif" font-size="14" lengthAdjust="spacing" textLength="179.3477" x="933.59" y="342.7656">+reembolsar(reservaId): void</text></g><!--class ReservaRepository--><g class="entity" data-entity="ReservaRepository" data-source-line="145" data-uid="ent0031" id="entity_ReservaRepository"><rect fill="#FFFFFF" height="100.8281" rx="2.5" ry="2.5" style="stroke:#1168BD;stroke-width:0.5;" width="210.0781" x="1343.59" y="487.125"/><ellipse cx="1385.1536" cy="503.125" fill="#B4A7E5" rx="11" ry="11" style="stroke:#181818;stroke-width:1;"/><path d="M1386.6067,499.7656 L1386.6067,506.4219 L1388.3255,506.4219 Q1388.9349,506.4219 1389.2005,506.6563 Q1389.4661,506.8906 1389.4661,507.2813 Q1389.4661,507.6563 1389.2005,507.8906 Q1388.9349,508.125 1388.3255,508.125 L1383.1849,508.125 Q1382.5755,508.125 1382.3099,507.8906 Q1382.0442,507.6563 1382.0442,507.2656 Q1382.0442,506.8906 1382.3099,506.6563 Q1382.5755,506.4219 1383.1849,506.4219 L1384.9036,506.4219 L1384.9036,499.7656 L1383.1849,499.7656 Q1382.5755,499.7656 1382.3099,499.5313 Q1382.0442,499.2969 1382.0442,498.9063 Q1382.0442,498.5313 1382.3099,498.2969 Q1382.5755,498.0625 1383.1849,498.0625 L1388.3255,498.0625 Q1388.9349,498.0625 1389.2005,498.2969 Q1389.4661,498.5313 1389.4661,498.9063 Q1389.4661,499.2969 1389.2005,499.5313 Q1388.9349,499.7656 1388.3255,499.7656 L1386.6067,499.7656 Z " fill="#000000"/><text fill="#1A1A1A" font-family="sans-serif" font-size="14" font-style="italic" lengthAdjust="spacing" textLength="119.0479" x="1405.0567" y="508.8516">ReservaRepository</text><line style="stroke:#1168BD;stroke-width:0.5;" x1="1344.59" x2="1552.6681" y1="519.125" y2="519.125"/><line style="stroke:#1168BD;stroke-width:0.5;" x1="1344.59" x2="1552.6681" y1="527.125" y2="527.125"/><text fill="#1A1A1A" font-family="sans-serif" font-size="14" lengthAdjust="spacing" textLength="138.8926" x="1349.59" y="545.6563">+findById(id): Reserva</text><text fill="#1A1A1A" font-family="sans-serif" font-size="14" lengthAdjust="spacing" textLength="153.665" x="1349.59" y="563.2656">+save(reserva): Reserva</text><text fill="#1A1A1A" font-family="sans-serif" font-size="14" lengthAdjust="spacing" textLength="198.0781" x="1349.59" y="580.875">+updateEstado(id, estado): void</text></g><!--class PagoRepository--><g class="entity" data-entity="PagoRepository" data-source-line="150" data-uid="ent0032" id="entity_PagoRepository"><rect fill="#FFFFFF" height="100.8281" rx="2.5" ry="2.5" style="stroke:#1168BD;stroke-width:0.5;" width="234.9541" x="1589.09" y="487.125"/><ellipse cx="1652.5104" cy="503.125" fill="#B4A7E5" rx="11" ry="11" style="stroke:#181818;stroke-width:1;"/><path d="M1653.9635,499.7656 L1653.9635,506.4219 L1655.6823,506.4219 Q1656.2917,506.4219 1656.5573,506.6563 Q1656.8229,506.8906 1656.8229,507.2813 Q1656.8229,507.6563 1656.5573,507.8906 Q1656.2917,508.125 1655.6823,508.125 L1650.5417,508.125 Q1649.9323,508.125 1649.6667,507.8906 Q1649.401,507.6563 1649.401,507.2656 Q1649.401,506.8906 1649.6667,506.6563 Q1649.9323,506.4219 1650.5417,506.4219 L1652.2604,506.4219 L1652.2604,499.7656 L1650.5417,499.7656 Q1649.9323,499.7656 1649.6667,499.5313 Q1649.401,499.2969 1649.401,498.9063 Q1649.401,498.5313 1649.6667,498.2969 Q1649.9323,498.0625 1650.5417,498.0625 L1655.6823,498.0625 Q1656.2917,498.0625 1656.5573,498.2969 Q1656.8229,498.5313 1656.8229,498.9063 Q1656.8229,499.2969 1656.5573,499.5313 Q1656.2917,499.7656 1655.6823,499.7656 L1653.9635,499.7656 Z " fill="#000000"/><text fill="#1A1A1A" font-family="sans-serif" font-size="14" font-style="italic" lengthAdjust="spacing" textLength="99.6133" x="1673.0104" y="508.8516">PagoRepository</text><line style="stroke:#1168BD;stroke-width:0.5;" x1="1590.09" x2="1823.0441" y1="519.125" y2="519.125"/><line style="stroke:#1168BD;stroke-width:0.5;" x1="1590.09" x2="1823.0441" y1="527.125" y2="527.125"/><text fill="#1A1A1A" font-family="sans-serif" font-size="14" lengthAdjust="spacing" textLength="222.9541" x="1595.09" y="545.6563">+findByIdempotencyKey(key): Pago</text><text fill="#1A1A1A" font-family="sans-serif" font-size="14" lengthAdjust="spacing" textLength="118.6924" x="1595.09" y="563.2656">+save(pago): Pago</text><text fill="#1A1A1A" font-family="sans-serif" font-size="14" lengthAdjust="spacing" textLength="198.0781" x="1595.09" y="580.875">+updateEstado(id, estado): void</text></g><!--class GdsConnector--><g class="entity" data-entity="GdsConnector" data-source-line="159" data-uid="ent0034" id="entity_GdsConnector"><rect fill="#FFFFFF" height="83.2188" rx="2.5" ry="2.5" style="stroke:#1168BD;stroke-width:0.5;" width="217.7959" x="92.59" y="496.125"/><ellipse cx="152.1037" cy="512.125" fill="#B4A7E5" rx="11" ry="11" style="stroke:#181818;stroke-width:1;"/><path d="M153.5568,508.7656 L153.5568,515.4219 L155.2755,515.4219 Q155.8849,515.4219 156.1505,515.6563 Q156.4162,515.8906 156.4162,516.2813 Q156.4162,516.6563 156.1505,516.8906 Q155.8849,517.125 155.2755,517.125 L150.1349,517.125 Q149.5255,517.125 149.2599,516.8906 Q148.9943,516.6563 148.9943,516.2656 Q148.9943,515.8906 149.2599,515.6563 Q149.5255,515.4219 150.1349,515.4219 L151.8537,515.4219 L151.8537,508.7656 L150.1349,508.7656 Q149.5255,508.7656 149.2599,508.5313 Q148.9943,508.2969 148.9943,507.9063 Q148.9943,507.5313 149.2599,507.2969 Q149.5255,507.0625 150.1349,507.0625 L155.2755,507.0625 Q155.8849,507.0625 156.1505,507.2969 Q156.4162,507.5313 156.4162,507.9063 Q156.4162,508.2969 156.1505,508.5313 Q155.8849,508.7656 155.2755,508.7656 L153.5568,508.7656 Z " fill="#000000"/><text fill="#1A1A1A" font-family="sans-serif" font-size="14" font-style="italic" lengthAdjust="spacing" textLength="90.2686" x="172.6037" y="517.8516">GdsConnector</text><line style="stroke:#1168BD;stroke-width:0.5;" x1="93.59" x2="309.3859" y1="528.125" y2="528.125"/><line style="stroke:#1168BD;stroke-width:0.5;" x1="93.59" x2="309.3859" y1="536.125" y2="536.125"/><text fill="#1A1A1A" font-family="sans-serif" font-size="14" lengthAdjust="spacing" textLength="205.7959" x="98.59" y="554.6563">+buscarVuelos(criterios): Oferta[]</text><text fill="#1A1A1A" font-family="sans-serif" font-size="14" lengthAdjust="spacing" textLength="200.3477" x="98.59" y="572.2656">+confirmarVuelo(reserva): string</text></g><!--class HotelConnector--><g class="entity" data-entity="HotelConnector" data-source-line="163" data-uid="ent0035" id="entity_HotelConnector"><rect fill="#FFFFFF" height="83.2188" rx="2.5" ry="2.5" style="stroke:#1168BD;stroke-width:0.5;" width="222.458" x="570.59" y="496.125"/><ellipse cx="628.9313" cy="512.125" fill="#B4A7E5" rx="11" ry="11" style="stroke:#181818;stroke-width:1;"/><path d="M630.3844,508.7656 L630.3844,515.4219 L632.1032,515.4219 Q632.7126,515.4219 632.9782,515.6563 Q633.2438,515.8906 633.2438,516.2813 Q633.2438,516.6563 632.9782,516.8906 Q632.7126,517.125 632.1032,517.125 L626.9626,517.125 Q626.3532,517.125 626.0876,516.8906 Q625.8219,516.6563 625.8219,516.2656 Q625.8219,515.8906 626.0876,515.6563 Q626.3532,515.4219 626.9626,515.4219 L628.6813,515.4219 L628.6813,508.7656 L626.9626,508.7656 Q626.3532,508.7656 626.0876,508.5313 Q625.8219,508.2969 625.8219,507.9063 Q625.8219,507.5313 626.0876,507.2969 Q626.3532,507.0625 626.9626,507.0625 L632.1032,507.0625 Q632.7126,507.0625 632.9782,507.2969 Q633.2438,507.5313 633.2438,507.9063 Q633.2438,508.2969 632.9782,508.5313 Q632.7126,508.7656 632.1032,508.7656 L630.3844,508.7656 Z " fill="#000000"/><text fill="#1A1A1A" font-family="sans-serif" font-size="14" font-style="italic" lengthAdjust="spacing" textLength="97.2754" x="649.4313" y="517.8516">HotelConnector</text><line style="stroke:#1168BD;stroke-width:0.5;" x1="571.59" x2="792.048" y1="528.125" y2="528.125"/><line style="stroke:#1168BD;stroke-width:0.5;" x1="571.59" x2="792.048" y1="536.125" y2="536.125"/><text fill="#1A1A1A" font-family="sans-serif" font-size="14" lengthAdjust="spacing" textLength="210.458" x="576.59" y="554.6563">+buscarHoteles(criterios): Oferta[]</text><text fill="#1A1A1A" font-family="sans-serif" font-size="14" lengthAdjust="spacing" textLength="197.2236" x="576.59" y="572.2656">+confirmarHotel(reserva): string</text></g><!--class PagoConnector--><g class="entity" data-entity="PagoConnector" data-source-line="167" data-uid="ent0036" id="entity_PagoConnector"><rect fill="#FFFFFF" height="83.2188" rx="2.5" ry="2.5" style="stroke:#1168BD;stroke-width:0.5;" width="224.8232" x="1012.09" y="496.125"/><ellipse cx="1071.6071" cy="512.125" fill="#B4A7E5" rx="11" ry="11" style="stroke:#181818;stroke-width:1;"/><path d="M1073.0602,508.7656 L1073.0602,515.4219 L1074.779,515.4219 Q1075.3883,515.4219 1075.654,515.6563 Q1075.9196,515.8906 1075.9196,516.2813 Q1075.9196,516.6563 1075.654,516.8906 Q1075.3883,517.125 1074.779,517.125 L1069.6383,517.125 Q1069.029,517.125 1068.7633,516.8906 Q1068.4977,516.6563 1068.4977,516.2656 Q1068.4977,515.8906 1068.7633,515.6563 Q1069.029,515.4219 1069.6383,515.4219 L1071.3571,515.4219 L1071.3571,508.7656 L1069.6383,508.7656 Q1069.029,508.7656 1068.7633,508.5313 Q1068.4977,508.2969 1068.4977,507.9063 Q1068.4977,507.5313 1068.7633,507.2969 Q1069.029,507.0625 1069.6383,507.0625 L1074.779,507.0625 Q1075.3883,507.0625 1075.654,507.2969 Q1075.9196,507.5313 1075.9196,507.9063 Q1075.9196,508.2969 1075.654,508.5313 Q1075.3883,508.7656 1074.779,508.7656 L1073.0602,508.7656 Z " fill="#000000"/><text fill="#1A1A1A" font-family="sans-serif" font-size="14" font-style="italic" lengthAdjust="spacing" textLength="97.2891" x="1092.1071" y="517.8516">PagoConnector</text><line style="stroke:#1168BD;stroke-width:0.5;" x1="1013.09" x2="1235.9132" y1="528.125" y2="528.125"/><line style="stroke:#1168BD;stroke-width:0.5;" x1="1013.09" x2="1235.9132" y1="536.125" y2="536.125"/><text fill="#1A1A1A" font-family="sans-serif" font-size="14" lengthAdjust="spacing" textLength="212.8232" x="1018.09" y="554.6563">+cobrar(monto, medio): Resultado</text><text fill="#1A1A1A" font-family="sans-serif" font-size="14" lengthAdjust="spacing" textLength="201.168" x="1018.09" y="572.2656">+reembolsar(pagoId): Resultado</text></g><!--class CacheConnector--><g class="entity" data-entity="CacheConnector" data-source-line="171" data-uid="ent0037" id="entity_CacheConnector"><rect fill="#FFFFFF" height="118.4375" rx="2.5" ry="2.5" style="stroke:#1168BD;stroke-width:0.5;" width="189.0166" x="346.09" y="478.625"/><ellipse cx="384.4698" cy="494.625" fill="#B4A7E5" rx="11" ry="11" style="stroke:#181818;stroke-width:1;"/><path d="M385.9229,491.2656 L385.9229,497.9219 L387.6417,497.9219 Q388.251,497.9219 388.5167,498.1563 Q388.7823,498.3906 388.7823,498.7813 Q388.7823,499.1563 388.5167,499.3906 Q388.251,499.625 387.6417,499.625 L382.501,499.625 Q381.8917,499.625 381.626,499.3906 Q381.3604,499.1563 381.3604,498.7656 Q381.3604,498.3906 381.626,498.1563 Q381.8917,497.9219 382.501,497.9219 L384.2198,497.9219 L384.2198,491.2656 L382.501,491.2656 Q381.8917,491.2656 381.626,491.0313 Q381.3604,490.7969 381.3604,490.4063 Q381.3604,490.0313 381.626,489.7969 Q381.8917,489.5625 382.501,489.5625 L387.6417,489.5625 Q388.251,489.5625 388.5167,489.7969 Q388.7823,490.0313 388.7823,490.4063 Q388.7823,490.7969 388.5167,491.0313 Q388.251,491.2656 387.6417,491.2656 L385.9229,491.2656 Z " fill="#000000"/><text fill="#1A1A1A" font-family="sans-serif" font-size="14" font-style="italic" lengthAdjust="spacing" textLength="105.0615" x="403.6653" y="500.3516">CacheConnector</text><line style="stroke:#1168BD;stroke-width:0.5;" x1="347.09" x2="534.1066" y1="510.625" y2="510.625"/><line style="stroke:#1168BD;stroke-width:0.5;" x1="347.09" x2="534.1066" y1="518.625" y2="518.625"/><text fill="#1A1A1A" font-family="sans-serif" font-size="14" lengthAdjust="spacing" textLength="99.9961" x="352.09" y="537.1563">+get(clave): any</text><text fill="#1A1A1A" font-family="sans-serif" font-size="14" lengthAdjust="spacing" textLength="159.1133" x="352.09" y="554.7656">+set(clave, valor, ttl): void</text><text fill="#1A1A1A" font-family="sans-serif" font-size="14" lengthAdjust="spacing" textLength="177.0029" x="352.09" y="572.375">+crearHold(reserva, ttl): void</text><text fill="#1A1A1A" font-family="sans-serif" font-size="14" lengthAdjust="spacing" textLength="177.0166" x="352.09" y="589.9844">+liberarHold(reservaId): void</text></g><!--class EventPublisher--><g class="entity" data-entity="EventPublisher" data-source-line="177" data-uid="ent0038" id="entity_EventPublisher"><rect fill="#FFFFFF" height="65.6094" rx="2.5" ry="2.5" style="stroke:#1168BD;stroke-width:0.5;" width="149.3613" x="828.09" y="504.625"/><ellipse cx="853.5283" cy="520.625" fill="#B4A7E5" rx="11" ry="11" style="stroke:#181818;stroke-width:1;"/><path d="M854.9815,517.2656 L854.9815,523.9219 L856.7002,523.9219 Q857.3096,523.9219 857.5752,524.1563 Q857.8408,524.3906 857.8408,524.7813 Q857.8408,525.1563 857.5752,525.3906 Q857.3096,525.625 856.7002,525.625 L851.5596,525.625 Q850.9502,525.625 850.6846,525.3906 Q850.419,525.1563 850.419,524.7656 Q850.419,524.3906 850.6846,524.1563 Q850.9502,523.9219 851.5596,523.9219 L853.2783,523.9219 L853.2783,517.2656 L851.5596,517.2656 Q850.9502,517.2656 850.6846,517.0313 Q850.419,516.7969 850.419,516.4063 Q850.419,516.0313 850.6846,515.7969 Q850.9502,515.5625 851.5596,515.5625 L856.7002,515.5625 Q857.3096,515.5625 857.5752,515.7969 Q857.8408,516.0313 857.8408,516.4063 Q857.8408,516.7969 857.5752,517.0313 Q857.3096,517.2656 856.7002,517.2656 L854.9815,517.2656 Z " fill="#000000"/><text fill="#1A1A1A" font-family="sans-serif" font-size="14" font-style="italic" lengthAdjust="spacing" textLength="94.165" x="869.848" y="526.3516">EventPublisher</text><line style="stroke:#1168BD;stroke-width:0.5;" x1="829.09" x2="976.4513" y1="536.625" y2="536.625"/><line style="stroke:#1168BD;stroke-width:0.5;" x1="829.09" x2="976.4513" y1="544.625" y2="544.625"/><text fill="#1A1A1A" font-family="sans-serif" font-size="14" lengthAdjust="spacing" textLength="137.3613" x="834.09" y="563.1563">+publish(evento): void</text></g><!--reverse link Reserva to Pasajero--><g class="link" data-entity-1="Reserva" data-entity-2="Pasajero" data-source-line="97" data-uid="lnk12" id="link_Reserva_Pasajero"><path codeLine="97" d="M2120.5473,901.0221 C2126.5273,905.3421 2122.74,902.545 2128.59,906.625 C2169.56,935.185 2182.98,937.555 2223.59,966.625 C2231.27,972.125 2239.19,978.085 2246.94,984.115" fill="none" id="Reserva-backto-Pasajero" style="stroke:#1168BD;stroke-width:1;"/><polygon fill="#1168BD" points="2110.82,893.995,2113.3413,900.751,2120.5473,901.0221,2118.026,894.2661,2110.82,893.995" style="stroke:#1168BD;stroke-width:1;"/><text fill="#000000" font-family="sans-serif" font-size="13" lengthAdjust="spacing" textLength="7.23" x="2118.7967" y="897.025">1</text><text fill="#000000" font-family="sans-serif" font-size="13" lengthAdjust="spacing" textLength="19.5127" x="2218.2196" y="973.4244">1..*</text></g><!--link Reserva to Oferta--><g class="link" data-entity-1="Reserva" data-entity-2="Oferta" data-source-line="98" data-uid="lnk13" id="link_Reserva_Oferta"><path codeLine="98" d="M1980.43,906.735 C1977.42,927.015 1975.2104,941.8799 1972.4304,960.6199" fill="none" id="Reserva-to-Oferta" style="stroke:#1168BD;stroke-width:1;"/><polygon fill="#1168BD" points="1971.55,966.555,1976.8274,958.2394,1972.2837,961.6091,1968.914,957.0655,1971.55,966.555" style="stroke:#1168BD;stroke-width:1;"/><text fill="#000000" font-family="sans-serif" font-size="13" lengthAdjust="spacing" textLength="7.23" x="1972.0008" y="928.7371">1</text><text fill="#000000" font-family="sans-serif" font-size="13" lengthAdjust="spacing" textLength="7.23" x="1965.2664" y="955.7519">1</text></g><!--link Reserva to EstadoReserva--><g class="link" data-entity-1="Reserva" data-entity-2="EstadoReserva" data-source-line="99" data-uid="lnk14" id="link_Reserva_EstadoReserva"><path codeLine="99" d="M2060.69,906.735 C2075.67,930.235 2087.8731,949.3766 2101.1931,970.2566" fill="none" id="Reserva-to-EstadoReserva" style="stroke:#1168BD;stroke-width:1;"/><polygon fill="#1168BD" points="2104.42,975.315,2102.9519,965.5762,2101.7309,971.0997,2096.2074,969.8787,2104.42,975.315" style="stroke:#1168BD;stroke-width:1;"/></g><!--link Pago to Reserva--><g class="link" data-entity-1="Pago" data-entity-2="Reserva" data-source-line="100" data-uid="lnk15" id="link_Pago_Reserva"><path codeLine="100" d="M1988.23,640.695 C1989.12,660.285 1989.7748,674.8013 1990.6748,694.4013" fill="none" id="Pago-to-Reserva" style="stroke:#1168BD;stroke-width:1;"/><polygon fill="#1168BD" points="1990.95,700.395,1994.533,691.221,1990.7206,695.4003,1986.5414,691.588,1990.95,700.395" style="stroke:#1168BD;stroke-width:1;"/><text fill="#000000" font-family="sans-serif" font-size="13" lengthAdjust="spacing" textLength="7.23" x="1981.3384" y="662.694">1</text><text fill="#000000" font-family="sans-serif" font-size="13" lengthAdjust="spacing" textLength="7.23" x="1983.3517" y="689.722">1</text></g><!--link Pago to EstadoPago--><g class="link" data-entity-1="Pago" data-entity-2="EstadoPago" data-source-line="101" data-uid="lnk16" id="link_Pago_EstadoPago"><path codeLine="101" d="M2077.34,640.775 C2094.68,660.385 2112.41,680.945 2128.59,700.625 C2140.08,714.595 2148.4389,725.2209 2159.4289,739.7409" fill="none" id="Pago-to-EstadoPago" style="stroke:#1168BD;stroke-width:1;"/><polygon fill="#1168BD" points="2163.05,744.525,2160.8078,734.9348,2160.0325,740.5382,2154.429,739.7628,2163.05,744.525" style="stroke:#1168BD;stroke-width:1;"/></g><!--link Oferta to TipoOferta--><g class="link" data-entity-1="Oferta" data-entity-2="TipoOferta" data-source-line="102" data-uid="lnk17" id="link_Oferta_TipoOferta"><path codeLine="102" d="M1961.59,1102.785 C1961.59,1122.995 1961.59,1138.545 1961.59,1156.465" fill="none" id="Oferta-to-TipoOferta" style="stroke:#1168BD;stroke-width:1;"/><polygon fill="#1168BD" points="1961.59,1162.465,1965.59,1153.465,1961.59,1157.465,1957.59,1153.465,1961.59,1162.465" style="stroke:#1168BD;stroke-width:1;"/></g><!--link BusquedaRouter to BusquedaService--><g class="link" data-entity-1="BusquedaRouter" data-entity-2="BusquedaService" data-source-line="139" data-uid="lnk27" id="link_BusquedaRouter_BusquedaService"><path codeLine="139" d="M498.94,164.225 C497.32,195.695 495.1781,237.4329 493.5581,268.9429" fill="none" id="BusquedaRouter-to-BusquedaService" style="stroke:#1168BD;stroke-width:1;"/><polygon fill="#1168BD" points="493.25,274.935,497.7068,266.1522,493.5067,269.9416,489.7174,265.7415,493.25,274.935" style="stroke:#1168BD;stroke-width:1;"/></g><!--link ReservaRouter to ReservaService--><g class="link" data-entity-1="ReservaRouter" data-entity-2="ReservaService" data-source-line="140" data-uid="lnk28" id="link_ReservaRouter_ReservaService"><path codeLine="140" d="M753.59,181.805 C753.59,205.555 753.59,227.905 753.59,251.625" fill="none" id="ReservaRouter-to-ReservaService" style="stroke:#1168BD;stroke-width:1;"/><polygon fill="#1168BD" points="753.59,257.625,757.59,248.625,753.59,252.625,749.59,248.625,753.59,257.625" style="stroke:#1168BD;stroke-width:1;"/></g><!--link PagoRouter to PagoService--><g class="link" data-entity-1="PagoRouter" data-entity-2="PagoService" data-source-line="141" data-uid="lnk29" id="link_PagoRouter_PagoService"><path codeLine="141" d="M1048.25,172.715 C1053.56,200.885 1059.4993,232.3687 1064.8093,260.5587" fill="none" id="PagoRouter-to-PagoService" style="stroke:#1168BD;stroke-width:1;"/><polygon fill="#1168BD" points="1065.92,266.455,1068.1849,256.8701,1064.9945,261.5414,1060.3231,258.351,1065.92,266.455" style="stroke:#1168BD;stroke-width:1;"/></g><!--link BusquedaService to GdsConnector--><g class="link" data-entity-1="BusquedaService" data-entity-2="GdsConnector" data-source-line="183" data-uid="lnk39" id="link_BusquedaService_GdsConnector"><path codeLine="183" d="M412.05,341.245 C384.25,354.405 353.73,371.145 328.59,390.625 C289.69,420.775 257.3108,459.4181 233.6608,491.0781" fill="none" id="BusquedaService-to-GdsConnector" style="stroke:#1168BD;stroke-width:1;stroke-dasharray:7,7;"/><polygon fill="#1168BD" points="230.07,495.885,238.6608,491.0685,233.0623,491.8792,232.2515,486.2808,230.07,495.885" style="stroke:#1168BD;stroke-width:1;"/></g><!--link BusquedaService to HotelConnector--><g class="link" data-entity-1="BusquedaService" data-entity-2="HotelConnector" data-source-line="184" data-uid="lnk40" id="link_BusquedaService_HotelConnector"><path codeLine="184" d="M518.41,341.235 C552.27,381.775 606.7035,446.9602 643.6835,491.2302" fill="none" id="BusquedaService-to-HotelConnector" style="stroke:#1168BD;stroke-width:1;stroke-dasharray:7,7;"/><polygon fill="#1168BD" points="647.53,495.835,644.8301,486.3634,644.3246,491.9977,638.6903,491.4921,647.53,495.835" style="stroke:#1168BD;stroke-width:1;"/></g><!--link BusquedaService to CacheConnector--><g class="link" data-entity-1="BusquedaService" data-entity-2="CacheConnector" data-source-line="185" data-uid="lnk41" id="link_BusquedaService_CacheConnector"><path codeLine="185" d="M484.39,341.235 C476.43,376.755 464.7535,428.8705 454.9735,472.4605" fill="none" id="BusquedaService-to-CacheConnector" style="stroke:#1168BD;stroke-width:1;stroke-dasharray:7,7;"/><polygon fill="#1168BD" points="453.66,478.315,459.5333,470.409,454.7546,473.4363,451.7273,468.6576,453.66,478.315" style="stroke:#1168BD;stroke-width:1;"/></g><!--link ReservaService to ReservaRepository--><g class="link" data-entity-1="ReservaService" data-entity-2="ReservaRepository" data-source-line="187" data-uid="lnk42" id="link_ReservaService_ReservaRepository"><path codeLine="187" d="M843.01,358.785 C864.52,368.515 887.88,377.335 910.59,382.625 C932.56,387.745 1296.06,381.265 1316.59,390.625 C1360.43,410.605 1392.6404,447.9174 1415.7704,481.8474" fill="none" id="ReservaService-to-ReservaRepository" style="stroke:#1168BD;stroke-width:1;stroke-dasharray:7,7;"/><polygon fill="#1168BD" points="1419.15,486.805,1417.3857,477.1155,1416.3337,482.6736,1410.7755,481.6216,1419.15,486.805" style="stroke:#1168BD;stroke-width:1;"/></g><!--link ReservaService to CacheConnector--><g class="link" data-entity-1="ReservaService" data-entity-2="CacheConnector" data-source-line="188" data-uid="lnk43" id="link_ReservaService_CacheConnector"><path codeLine="188" d="M657.57,358.745 C637.77,367.645 616.79,376.135 596.59,382.625 C578.09,388.575 570.18,380.495 553.59,390.625 C518.98,411.755 494.1878,442.5682 474.7178,473.4782" fill="none" id="ReservaService-to-CacheConnector" style="stroke:#1168BD;stroke-width:1;stroke-dasharray:7,7;"/><polygon fill="#1168BD" points="471.52,478.555,479.7013,473.0717,474.1849,474.3243,472.9322,468.8079,471.52,478.555" style="stroke:#1168BD;stroke-width:1;"/></g><!--link ReservaService to GdsConnector--><g class="link" data-entity-1="ReservaService" data-entity-2="GdsConnector" data-source-line="189" data-uid="lnk44" id="link_ReservaService_GdsConnector"><path codeLine="189" d="M663.72,358.805 C642.32,368.465 619.14,377.255 596.59,382.625 C567.61,389.525 355.52,377.875 328.59,390.625 C281.84,412.775 248.5353,456.0017 226.8953,491.0017" fill="none" id="ReservaService-to-GdsConnector" style="stroke:#1168BD;stroke-width:1;stroke-dasharray:7,7;"/><polygon fill="#1168BD" points="223.74,496.105,231.8752,490.5535,226.3694,491.8522,225.0708,486.3465,223.74,496.105" style="stroke:#1168BD;stroke-width:1;"/></g><!--link ReservaService to HotelConnector--><g class="link" data-entity-1="ReservaService" data-entity-2="HotelConnector" data-source-line="190" data-uid="lnk45" id="link_ReservaService_HotelConnector"><path codeLine="190" d="M737.88,358.765 C724.89,399.825 708.4696,451.6944 696.3196,490.1044" fill="none" id="ReservaService-to-HotelConnector" style="stroke:#1168BD;stroke-width:1;stroke-dasharray:7,7;"/><polygon fill="#1168BD" points="694.51,495.825,701.0381,488.4505,696.018,491.0578,693.4106,486.0377,694.51,495.825" style="stroke:#1168BD;stroke-width:1;"/></g><!--link ReservaService to EventPublisher--><g class="link" data-entity-1="ReservaService" data-entity-2="EventPublisher" data-source-line="191" data-uid="lnk46" id="link_ReservaService_EventPublisher"><path codeLine="191" d="M788.94,358.865 C796.2,369.295 803.71,380.265 810.59,390.625 C836.29,429.305 861.4429,469.5666 879.7829,499.3366" fill="none" id="ReservaService-to-EventPublisher" style="stroke:#1168BD;stroke-width:1;stroke-dasharray:7,7;"/><polygon fill="#1168BD" points="882.93,504.445,881.615,494.6843,880.3074,500.188,874.8038,498.8804,882.93,504.445" style="stroke:#1168BD;stroke-width:1;"/></g><!--link PagoService to PagoRepository--><g class="link" data-entity-1="PagoService" data-entity-2="PagoRepository" data-source-line="193" data-uid="lnk47" id="link_PagoService_PagoRepository"><path codeLine="193" d="M1219.78,322.445 C1344.31,335.715 1512.23,358.705 1571.59,390.625 C1613.7,413.265 1646.1914,449.3216 1670.4214,482.0716" fill="none" id="PagoService-to-PagoRepository" style="stroke:#1168BD;stroke-width:1;stroke-dasharray:7,7;"/><polygon fill="#1168BD" points="1673.99,486.895,1671.8527,477.2808,1671.0162,482.8755,1665.4215,482.0389,1673.99,486.895" style="stroke:#1168BD;stroke-width:1;"/></g><!--link PagoService to PagoConnector--><g class="link" data-entity-1="PagoService" data-entity-2="PagoConnector" data-source-line="194" data-uid="lnk48" id="link_PagoService_PagoConnector"><path codeLine="194" d="M1082.71,349.795 C1091.96,391.075 1104.8973,448.7704 1114.1573,490.0704" fill="none" id="PagoService-to-PagoConnector" style="stroke:#1168BD;stroke-width:1;stroke-dasharray:7,7;"/><polygon fill="#1168BD" points="1115.47,495.925,1117.4041,486.2679,1114.3761,491.0461,1109.5979,488.0182,1115.47,495.925" style="stroke:#1168BD;stroke-width:1;"/></g><!--link PagoService to EventPublisher--><g class="link" data-entity-1="PagoService" data-entity-2="EventPublisher" data-source-line="195" data-uid="lnk49" id="link_PagoService_EventPublisher"><path codeLine="195" d="M1030.84,349.895 C1018.57,362.465 1005.55,376.685 994.59,390.625 C965.53,427.605 940.4758,468.9292 923.1558,499.3892" fill="none" id="PagoService-to-EventPublisher" style="stroke:#1168BD;stroke-width:1;stroke-dasharray:7,7;"/><polygon fill="#1168BD" points="920.19,504.605,928.1158,498.7585,922.6615,500.2585,921.1615,494.8042,920.19,504.605" style="stroke:#1168BD;stroke-width:1;"/></g><!--link ReservaService to Reserva--><g class="link" data-entity-1="ReservaService" data-entity-2="Reserva" data-source-line="198" data-uid="lnk50" id="link_ReservaService_Reserva"><path codeLine="198" d="M843.02,358.725 C864.54,368.455 887.89,377.295 910.59,382.625 C929.15,386.985 1238.46,379.045 1253.59,390.625 C1345.62,461.045 1243.64,560.755 1327.59,640.625 C1406.32,715.525 1705.1837,765.0441 1874.5337,787.8541" fill="none" id="ReservaService-to-Reserva" style="stroke:#1168BD;stroke-width:1;stroke-dasharray:7,7;"/><polygon fill="#1168BD" points="1880.48,788.655,1872.0945,783.4894,1875.5247,787.9876,1871.0266,791.4178,1880.48,788.655" style="stroke:#1168BD;stroke-width:1;"/></g><!--link PagoService to Pago--><g class="link" data-entity-1="PagoService" data-entity-2="Pago" data-source-line="199" data-uid="lnk51" id="link_PagoService_Pago"><path codeLine="199" d="M1219.6,312.955 C1410.86,319.955 1734.38,339.205 1840.59,390.625 C1862.95,401.445 1879.3908,413.1635 1897.8408,430.4435" fill="none" id="PagoService-to-Pago" style="stroke:#1168BD;stroke-width:1;stroke-dasharray:7,7;"/><polygon fill="#1168BD" points="1902.22,434.545,1898.3855,425.4732,1898.5706,431.1271,1892.9168,431.3122,1902.22,434.545" style="stroke:#1168BD;stroke-width:1;"/></g><!--link BusquedaService to Oferta--><g class="link" data-entity-1="BusquedaService" data-entity-2="Oferta" data-source-line="200" data-uid="lnk52" id="link_BusquedaService_Oferta"><path codeLine="200" d="M403.62,313.665 C294.31,321.375 117.18,341.295 76.59,390.625 C6,476.425 6.5,554.415 76.59,640.625 C310.15,927.895 1544.7184,1011.947 1874.8484,1029.467" fill="none" id="BusquedaService-to-Oferta" style="stroke:#1168BD;stroke-width:1;stroke-dasharray:7,7;"/><polygon fill="#1168BD" points="1880.84,1029.785,1872.0646,1025.3137,1875.847,1029.52,1871.6407,1033.3024,1880.84,1029.785" style="stroke:#1168BD;stroke-width:1;"/></g><!--SRC=[fLXjSzf64FxEhxXnFqI9mNOcRk8oqtI4a6Er62ZGjDDEFnowDLmYTCgTH4mw_k_TEo7Gos6O2Vu0ixlQrsUVE_a5-VaxFgqNnBic7JBaQuZ8TPTuWl6584wVquMaAqeO42-Y2jHBjEtHy3F4J0ide42kgTA_FsOG2KKsv4wa484Ypb0mkFYao2N9efIlQ0eTU4maAEFckp9MdtcSKCoDp36RXHHPp3mH2Kb-k3MVaeLQKYQ-ydX17cYaeAG9iIRbfgdayoo581Jnb7y3SbKt8V-r27vw1q8PdP0Cv5R- -lNRcrxVo5qfnTUc-5R4QI5rzLzkNAHYLqzJa23IJLBMNrszkNdxO-kfb7E2UT857Cpw-lRcjj_C-gTUxrt_kfwUnJ_4sUgPbhpptpQT-rVkpTNLWTgVMgsKfn6G9k28Ow2P8_8b_hAWhtK4JQG_kW-6mUXPerRHjRE-MF6OYxDjYQPQNwK8ect0hK9_nlwm7_Z3cR-JUAFXRJ2vT_lkNkGEFNzGblX_ZOD98NYgXnbJNBxdOhZZoQZdzaSxmSJtxjo_gnB_lZSQJ0jPASYC9sBq038j5_Bn3t-mV_fkDFC7zUVkWV5wRZDtygi_snVs-sJtyqztCF1dMoVcAz-bUn73fkJYV8Lu45s28UOWAs9Wj4iKxaIyQFffb70kZ2HWbMUC9iMIkwN2zngaev2ZpcIr5wzfn9cuepYFBkaZS-rLWBAFV05n2ixBBfaB4G6Dc_cDgQAVG9QxTHwBrLn2Cpycmcm5fWtsr0yreOd8Sswf7mokkbKODoPGwq4aGkp2Dtn0_j9qkHGHynyJBgaVrriKIg3C9XVn0vShAfsIxy8rzd8jE2jPqpY428rN8kLhST0EJ1RIAIjgawXWrjeXcVSaEDeyxUnOvpY3LOAdO1nkVeEDPQQIneg62BmuO9RUqaIAELQKFkxpQPIDm5tIRyVR8m5MSn6fHeUmHmLypbwVaLUT3dvVNBmwsq6tekzqtfllxGOLAYskmigqk_n4HR6tDvtSRh6MbjRp6A6xu-14CjUMJkFwKN1xZezUfhvao3KJWKUlB2FbWpyZbmge39UEX2zjWazNczXOnQQJyMYANf0dy01TAAkVVR32xBBBsM7Jle_KwfzW_LHRWsFPQKUN2TqSoH8jD5sT5dSAOIPvkhddZ4NmbKeenr_I6AKx9sqImsFQ0EfHF0m2p_M2qV1KM2GH3wbUG3iKfZXA7bOIdMSgn1qAiHIGNEXoSxJ-y-yXB5YyQ6gKMxMJ7rXjlB3b-wPzDiXvHvfZ8VK87LZha-8mNUwex3aWM593qWa1QS84sJbf4yDnRV8PDkYmIdybRZaG5MTNMo-zwhKsjwgxeosg7MoLiAkrfGgEOcFiJwR1TEOFlS0z4HrZa8ehpT-S4YTPxFY2uw4l7sYuktjE816Afq9MRZGFF6QzJS0SpcmJLNGDHRzi-YnXI5OvIQABDibFeEOuz-cO_ZoRI_b4ScopD5abA6feJihd-9BYpTZtPgE9Fprn31wUgY7M0whP_mzCeJhNDxSqVnSzlAlLnJBMfO5KBblLiERTzfd0stVVKoCRyzCYwv5O0uTYBiqjm6pfIb_ISr3XgOTJiYwh7dF06cRrc1uDbs0Dke3KGJ9P0_gWSUdgemf5c-0TMiWsITEeoLMQ1U_m1bdKRZUBEBuHL0rjhBPFsDVKECxc4LVBwZ6Nv48BUMwXsy4FlbGc-6vfzjxyJqCPZi4n6dMhVZfSNBol0D5gK8MCrQJQvzsrh6pIu1kRKSsFnQAIhKLVIzPYKMrngrK-JBI-oaHMzTv_NLjtlXqBdamimmVqJ2B2ylVpV2I7MsKDRMt_zjBvFm00]--></g></svg>